<?xml version="1.0" encoding="utf-8" ?>
<svg xmlns="http://www.w3.org/2000/svg" xmlns:xlink="http://www.w3.org/1999/xlink" width="440" height="440">
	<path fill="#b49566" d="M263.312 485.93L235.68 485.573C236.77 481.434 236.214 476.061 236.221 471.791L236.325 445.521L216.588 445.403L216.427 483.21C206.461 481.415 196.655 479.337 186.928 476.488L175.094 472.541L175.192 437.662C172.889 437.289 170.125 437.554 167.77 437.548L153.263 437.583L153.361 467.622C152.223 466.964 150.925 466.873 149.703 466.414L121.878 453.187C117.955 451.247 113.712 449.609 109.947 447.404L110.083 376.621C110.082 374.005 110.528 356.893 110.028 355.856C109.65 355.072 108.489 354.302 107.884 353.636L92.6536 333.255C47.2696 264.794 49.434 172.595 96.9596 105.906C130.548 58.7746 187.804 25.6631 245.942 23.5643L261.722 23.4881C275.497 23.5453 289.627 25.751 302.964 29.1392C340.924 38.7828 374.113 59.6682 400.524 88.2448C464.507 157.473 469.375 266.479 413.493 341.82L407.812 349.457C406.482 351.235 405.146 353.148 403.501 354.645L402.8 355.299C400.838 357.36 402.036 363.971 402.04 366.692L402.156 448.079C401.231 449.173 400 449.285 398.728 449.812L370.05 462.927L358.761 466.925L359.013 437.701L336.487 437.521L336.515 473.3C334.593 474.599 311.335 480.151 308.446 480.745C304.467 481.564 300.321 481.866 296.391 482.777L296.341 450.319C296.345 448.812 296.471 447.18 296.277 445.691L276.578 445.66C276.12 449.902 276.488 454.582 276.486 458.869L276.48 485.575C272.307 486.229 267.573 485.859 263.312 485.93ZM246.511 68.2666C160.783 74.5333 98.2701 150.941 104.738 235.266L107.071 252.312C111.972 281.106 126.454 307.96 145.738 329.655C147.26 331.368 154.344 338.303 154.384 340.008L153.867 391.644L175.524 391.678L175.745 383.477C175.757 382.162 175.549 380.489 175.922 379.244L216.005 379.281L215.638 401.05L231.922 401.083C233.493 401.076 236.191 401.412 237.572 400.903L237.739 379.18L265.375 379.275L274.83 379.469C275.249 385.367 274.183 396.09 275.144 401.034L296.28 401.158L296.446 379.162L336.531 379.163L336.514 391.894L351.375 391.706C353.495 391.698 355.881 391.912 357.951 391.557L358.22 343.156C358.325 338.469 359.221 337.95 362.351 334.408L368.29 327.506C394.179 295.896 407.579 262.98 407.552 222.32C407.512 162.574 372.996 106.802 318.176 81.9704C302.105 74.6908 284.901 69.5004 267.213 68.4319L246.511 68.2666Z"/>
	<path fill="#b49566" d="M260.375 342.466L216.281 342.443C205.294 342.352 193.946 336.066 192.391 324.377C190.483 310.038 197.298 306.507 180.489 301.117C171.591 298.264 162.721 295.505 155.748 288.928C135.691 270.008 127.51 232.421 129.321 205.125C131.23 176.364 144.406 146.664 164.623 125.875C186.297 103.588 221.138 88.0841 252.636 87.6796L263.957 87.761C331.607 91.6618 385.37 150.14 383.032 217.849C382.647 228.98 380.684 238.991 377.519 249.667C370.278 274.097 359.66 292.731 334.475 300.417C331.022 301.471 320.812 303.629 320.163 308.263L320.122 308.625C319.281 315.007 320.213 321.984 317.648 328.009C313.761 337.138 304.917 342.337 295.271 342.446L260.375 342.466ZM199.419 178.114C191.077 178.524 183.973 181.865 178.308 188.049C160.438 207.559 177.098 241.907 203.177 240.526C211.788 239.494 219.027 235.213 224.394 228.378C240.599 207.741 225.957 178.123 199.419 178.114ZM310.769 178.112C302.2 178.627 295.135 181.803 289.404 188.303C271.472 208.639 285.331 239.714 311.898 240.333C338.641 239.522 351.214 204.195 331.35 186.073C325.691 180.91 318.495 177.791 310.769 178.112ZM252.523 266.816C228.857 272.022 228.977 304.718 251.875 304.986L259.562 304.992C263.874 305.284 267.443 303.891 270.689 301.078C284.542 289.072 272.933 267.221 256.358 266.679L252.523 266.816Z"/>
</svg>
