<?xml version="1.0" encoding="utf-8" ?>
<svg xmlns="http://www.w3.org/2000/svg" xmlns:xlink="http://www.w3.org/1999/xlink" width="512" height="512">
	<path fill="#F02" d="M0 0L0 512L512 512L512 0L0 0Z"/>
	<path fill="#011627" d="M64.8688 28.3825C58.5425 28.97 53.0303 24.1808 52.4535 17.9039C51.8795 11.6579 56.9522 6.34842 63.0352 5.83828C68.69 5.58005 74.4665 9.43917 75.1785 15.3125C76.0085 22.1604 71.721 27.5562 64.8688 28.3825Z"/>
	<path fill="#011627" d="M20.5286 51.4012C18.2377 47.9195 16.622 44.056 15.7326 39.979C15.5079 38.949 15.4327 37.896 15.2195 36.872L15.1872 36.7223C14.9998 35.6433 15.0566 34.4385 15.0575 33.3438C15.0626 27.471 16.8888 21.5737 19.858 16.5275C20.3723 15.6533 22.7858 11.6733 23.8425 11.5596C25.401 11.3918 25.032 13.1469 24.8246 13.9805L24.3701 16.0247C22.8025 24.4444 24.6085 33.43 29.9123 40.253C31.584 42.4035 33.4907 44.2235 35.5358 46.0132L41.421 39.5733C36.349 36.2985 32.755 31.092 32.5772 24.9439C32.5252 23.1441 32.784 20.1831 34.575 19.2048L41.894 19.209C43.1433 19.2105 44.459 19.1317 45.7025 19.2303C47.607 19.3813 44.964 21.4721 45.0015 23.1911C45.0778 26.6617 48.979 29.1025 51.8113 30.2687C59.7732 33.5468 74.8275 33.772 80.9617 27.088C82.2348 25.7007 83.2985 23.4136 82.3085 21.5849C81.9265 20.8793 80.4002 19.4127 82.1718 19.2617C83.0108 19.1903 83.8697 19.2185 84.7115 19.2168L91.7117 19.2124C92.7938 19.2134 93.5515 19.0028 94.2768 19.9602C95.2113 21.1935 95.369 22.6093 95.405 24.1035C95.5787 31.303 91.6265 35.569 86.327 39.5928L92.2325 46.029C92.7445 45.6875 93.2125 45.2355 93.6653 44.8195L95.6153 42.9245C102.243 35.8355 105.336 25.7253 103.683 16.1651L103.264 14.0302C103.044 13.0281 102.644 12.056 103.77 11.4982L103.832 11.4688C104.817 11.2558 105.683 12.8749 106.151 13.5329C110.834 20.1223 113.323 27.3813 112.797 35.5998C112.341 42.7375 109.357 50.0832 104.275 55.1835C100.569 58.9032 92.9995 63.394 87.827 65.217C87.3443 64.882 86.9075 64.4262 86.4688 64.034L77.6905 55.932C77.3418 55.6095 75.0627 53.5675 74.9617 53.3407L74.9748 109.749C74.971 113.016 74.091 115.736 71.664 118.123C65.277 124.404 54.4423 120.527 53.0853 111.98C52.966 111.229 53.001 110.413 52.9997 109.654L52.9787 53.3785C52.7595 53.6382 52.519 53.7415 52.267 53.9612L44.5318 61.1358C43.0742 62.4888 41.5793 63.7925 40.2398 65.2673C32.5712 62.3585 25.2993 58.1925 20.5286 51.4012Z"/>
	<path fill="#011627" d="M191.131 99.6175C197.457 99.03 202.97 103.819 203.546 110.096C204.12 116.342 199.048 121.652 192.965 122.162C187.31 122.42 181.534 118.561 180.822 112.688C179.992 105.84 184.279 100.444 191.131 99.6175Z"/>
	<path fill="#011627" d="M235.471 76.5987C237.762 80.0805 239.378 83.944 240.267 88.021C240.492 89.051 240.567 90.104 240.78 91.128L240.813 91.2777C241 92.3568 240.943 93.5615 240.942 94.6562C240.937 100.529 239.111 106.426 236.142 111.473C235.628 112.347 233.214 116.327 232.157 116.44C230.599 116.608 230.968 114.853 231.175 114.019L231.63 111.975C233.197 103.556 231.392 94.57 226.088 87.747C224.416 85.5965 222.509 83.7765 220.464 81.9868L214.579 88.4267C219.651 91.7015 223.245 96.908 223.423 103.056C223.475 104.856 223.216 107.817 221.425 108.795L214.106 108.791C212.857 108.79 211.541 108.868 210.298 108.77C208.393 108.619 211.036 106.528 210.999 104.809C210.922 101.338 207.021 98.8975 204.189 97.7313C196.227 94.4532 181.173 94.228 175.038 100.912C173.765 102.299 172.702 104.586 173.691 106.415C174.073 107.121 175.6 108.587 173.828 108.738C172.989 108.81 172.13 108.782 171.288 108.783L164.288 108.788C163.206 108.787 162.448 108.997 161.723 108.04C160.789 106.807 160.631 105.391 160.595 103.896C160.421 96.697 164.374 92.431 169.673 88.4073L163.767 81.971C163.255 82.3125 162.787 82.7645 162.335 83.1805L160.385 85.0755C153.757 92.1645 150.664 102.275 152.316 111.835L152.736 113.97C152.956 114.972 153.356 115.944 152.23 116.502L152.168 116.531C151.183 116.744 150.317 115.125 149.849 114.467C145.166 107.878 142.677 100.619 143.202 92.4002C143.66 85.2625 146.643 77.9168 151.725 72.8165C155.431 69.0968 163 64.606 168.173 62.783C168.656 63.118 169.093 63.5738 169.531 63.966L178.31 72.068C178.658 72.3905 180.937 74.4325 181.038 74.6593L181.025 18.2507C181.029 14.9843 181.909 12.264 184.336 9.87725C190.723 3.596 201.558 7.473 202.915 16.0205C203.034 16.7708 202.999 17.5867 203 18.3455L203.021 74.6215C203.24 74.3618 203.481 74.2585 203.733 74.0387L211.468 66.8642C212.926 65.5112 214.421 64.2075 215.76 62.7327C223.429 65.6415 230.701 69.8075 235.471 76.5987Z"/>
	<path fill="#011627" d="M320.869 28.3825C314.543 28.97 309.03 24.1808 308.454 17.9039C307.88 11.6579 312.952 6.34842 319.035 5.83828C324.69 5.58005 330.466 9.43917 331.178 15.3125C332.009 22.1604 327.721 27.5562 320.869 28.3825Z"/>
	<path fill="#011627" d="M276.529 51.4012C274.238 47.9195 272.622 44.056 271.733 39.979C271.508 38.949 271.433 37.896 271.219 36.872L271.187 36.7223C271 35.6433 271.057 34.4385 271.058 33.3438C271.063 27.471 272.889 21.5737 275.858 16.5275C276.372 15.6533 278.786 11.6733 279.842 11.5596C281.401 11.3918 281.032 13.1469 280.825 13.9805L280.37 16.0247C278.803 24.4444 280.608 33.43 285.912 40.253C287.584 42.4035 289.491 44.2235 291.536 46.0132L297.421 39.5733C292.349 36.2985 288.755 31.092 288.577 24.9439C288.525 23.1441 288.784 20.1831 290.575 19.2048L297.894 19.209C299.143 19.2105 300.459 19.1317 301.702 19.2303C303.607 19.3813 300.964 21.4721 301.002 23.1911C301.078 26.6617 304.979 29.1025 307.811 30.2687C315.773 33.5468 330.827 33.772 336.962 27.088C338.235 25.7007 339.298 23.4136 338.308 21.5849C337.927 20.8793 336.4 19.4127 338.172 19.2617C339.011 19.1903 339.87 19.2185 340.712 19.2168L347.712 19.2124C348.794 19.2134 349.552 19.0028 350.277 19.9602C351.211 21.1935 351.369 22.6093 351.405 24.1035C351.579 31.303 347.626 35.569 342.327 39.5928L348.233 46.029C348.745 45.6875 349.212 45.2355 349.665 44.8195L351.615 42.9245C358.243 35.8355 361.336 25.7253 359.683 16.1651L359.264 14.0302C359.044 13.0281 358.644 12.056 359.77 11.4982L359.832 11.4688C360.817 11.2558 361.683 12.8749 362.151 13.5329C366.834 20.1223 369.323 27.3813 368.797 35.5998C368.341 42.7375 365.357 50.0832 360.275 55.1835C356.569 58.9032 349 63.394 343.827 65.217C343.344 64.882 342.908 64.4262 342.469 64.034L333.69 55.932C333.342 55.6095 331.063 53.5675 330.962 53.3407L330.975 109.749C330.971 113.016 330.091 115.736 327.664 118.123C321.277 124.404 310.442 120.527 309.085 111.98C308.966 111.229 309.001 110.413 309 109.654L308.979 53.3785C308.76 53.6382 308.519 53.7415 308.267 53.9612L300.532 61.1358C299.074 62.4888 297.579 63.7925 296.24 65.2673C288.571 62.3585 281.299 58.1925 276.529 51.4012Z"/>
	<path fill="#011627" d="M447.131 99.6175C453.457 99.03 458.97 103.819 459.546 110.096C460.12 116.342 455.048 121.652 448.965 122.162C443.31 122.42 437.534 118.561 436.822 112.688C435.991 105.84 440.279 100.444 447.131 99.6175Z"/>
	<path fill="#011627" d="M491.471 76.5987C493.762 80.0805 495.378 83.944 496.267 88.021C496.492 89.051 496.567 90.104 496.78 91.128L496.813 91.2777C497 92.3568 496.943 93.5615 496.942 94.6562C496.937 100.529 495.111 106.426 492.142 111.473C491.628 112.347 489.214 116.327 488.157 116.44C486.599 116.608 486.968 114.853 487.175 114.019L487.63 111.975C489.197 103.556 487.392 94.57 482.088 87.747C480.416 85.5965 478.509 83.7765 476.464 81.9868L470.579 88.4267C475.651 91.7015 479.245 96.908 479.423 103.056C479.475 104.856 479.216 107.817 477.425 108.795L470.106 108.791C468.857 108.79 467.541 108.868 466.298 108.77C464.393 108.619 467.036 106.528 466.999 104.809C466.922 101.338 463.021 98.8975 460.189 97.7313C452.227 94.4532 437.173 94.228 431.038 100.912C429.765 102.299 428.702 104.586 429.692 106.415C430.074 107.121 431.6 108.587 429.828 108.738C428.989 108.81 428.13 108.782 427.288 108.783L420.288 108.788C419.206 108.787 418.449 108.997 417.723 108.04C416.789 106.807 416.631 105.391 416.595 103.896C416.421 96.697 420.373 92.431 425.673 88.4073L419.767 81.971C419.255 82.3125 418.788 82.7645 418.335 83.1805L416.385 85.0755C409.757 92.1645 406.664 102.275 408.317 111.835L408.736 113.97C408.956 114.972 409.356 115.944 408.23 116.502L408.168 116.531C407.183 116.744 406.317 115.125 405.849 114.467C401.166 107.878 398.676 100.619 399.202 92.4002C399.659 85.2625 402.643 77.9168 407.725 72.8165C411.431 69.0968 419 64.606 424.173 62.783C424.656 63.118 425.092 63.5738 425.531 63.966L434.31 72.068C434.658 72.3905 436.937 74.4325 437.038 74.6593L437.025 18.2507C437.029 14.9843 437.909 12.264 440.336 9.87725C446.723 3.596 457.558 7.473 458.915 16.0205C459.034 16.7708 458.999 17.5867 459 18.3455L459.021 74.6215C459.24 74.3618 459.481 74.2585 459.733 74.0387L467.468 66.8642C468.926 65.5112 470.421 64.2075 471.76 62.7327C479.429 65.6415 486.701 69.8075 491.471 76.5987Z"/>
	<path fill="#011627" d="M-0.8688 227.618C5.4575 227.03 10.9698 231.819 11.5465 238.096C12.1205 244.342 7.0478 249.652 0.9648 250.162C-4.69 250.42 -10.4665 246.561 -11.1785 240.688C-12.0085 233.84 -7.721 228.444 -0.8688 227.618Z"/>
	<path fill="#011627" d="M43.471 204.599C45.762 208.081 47.378 211.944 48.267 216.021C48.492 217.051 48.567 218.104 48.78 219.128L48.813 219.278C49 220.357 48.943 221.561 48.942 222.656C48.937 228.529 47.111 234.426 44.142 239.473C43.628 240.347 41.214 244.327 40.157 244.44C38.599 244.608 38.968 242.853 39.175 242.019L39.63 239.975C41.197 231.556 39.392 222.57 34.0877 215.747C32.416 213.596 30.5093 211.776 28.4642 209.987L22.579 216.427C27.651 219.702 31.245 224.908 31.4228 231.056C31.4748 232.856 31.216 235.817 29.425 236.795L22.106 236.791C20.8568 236.79 19.541 236.868 18.2975 236.77C16.393 236.619 19.036 234.528 18.9985 232.809C18.9222 229.338 15.021 226.897 12.1887 225.731C4.2268 222.453 -10.8275 222.228 -16.9617 228.912C-18.2348 230.299 -19.2985 232.586 -18.3085 234.415C-17.9265 235.121 -16.4002 236.587 -18.1718 236.738C-19.0108 236.81 -19.8697 236.782 -20.7115 236.783L-27.7117 236.788C-28.7938 236.787 -29.5515 236.997 -30.2768 236.04C-31.2113 234.807 -31.369 233.391 -31.405 231.896C-31.5787 224.697 -27.6265 220.431 -22.327 216.407L-28.2325 209.971C-28.7445 210.312 -29.2125 210.764 -29.6653 211.18L-31.6153 213.076C-38.243 220.165 -41.336 230.275 -39.6835 239.835L-39.264 241.97C-39.0438 242.972 -38.6437 243.944 -39.7703 244.502L-39.8315 244.531C-40.8175 244.744 -41.6833 243.125 -42.151 242.467C-46.8342 235.878 -49.3235 228.619 -48.7975 220.4C-48.3405 213.262 -45.3568 205.917 -40.2752 200.817C-36.5692 197.097 -28.9995 192.606 -23.827 190.783C-23.3443 191.118 -22.9075 191.574 -22.4688 191.966L-13.6905 200.068C-13.3418 200.391 -11.0627 202.433 -10.9617 202.659L-10.9748 146.251C-10.971 142.984 -10.091 140.264 -7.664 137.877C-1.277 131.596 9.5577 135.473 10.9147 144.02C11.034 144.771 10.999 145.587 11.0002 146.346L11.0213 202.621C11.2405 202.362 11.481 202.258 11.733 202.039L19.4682 194.864C20.9257 193.511 22.4207 192.207 23.7602 190.733C31.4288 193.642 38.701 197.808 43.471 204.599Z"/>
	<path fill="#011627" d="M128.869 156.382C122.542 156.97 117.03 152.181 116.453 145.904C115.88 139.658 120.952 134.348 127.035 133.838C132.69 133.58 138.466 137.439 139.178 143.312C140.008 150.16 135.721 155.556 128.869 156.382Z"/>
	<path fill="#011627" d="M84.5286 179.401C82.2377 175.919 80.622 172.056 79.7326 167.979C79.5079 166.949 79.4327 165.896 79.2195 164.872L79.1872 164.722C78.9998 163.643 79.0566 162.439 79.0575 161.344C79.0626 155.471 80.8888 149.574 83.858 144.528C84.3723 143.653 86.7858 139.673 87.8425 139.56C89.401 139.392 89.032 141.147 88.8246 141.981L88.3701 144.025C86.8025 152.444 88.6085 161.43 93.9123 168.253C95.584 170.404 97.4907 172.224 99.5358 174.013L105.421 167.573C100.349 164.298 96.755 159.092 96.5772 152.944C96.5252 151.144 96.784 148.183 98.575 147.205L105.894 147.209C107.143 147.21 108.459 147.132 109.703 147.23C111.607 147.381 108.964 149.472 109.001 151.191C109.078 154.662 112.979 157.102 115.811 158.269C123.773 161.547 138.827 161.772 144.962 155.088C146.235 153.701 147.298 151.414 146.308 149.585C145.927 148.879 144.4 147.413 146.172 147.262C147.011 147.19 147.87 147.219 148.712 147.217L155.712 147.212C156.794 147.213 157.552 147.003 158.277 147.96C159.211 149.194 159.369 150.609 159.405 152.103C159.579 159.303 155.626 163.569 150.327 167.593L156.233 174.029C156.745 173.688 157.213 173.236 157.665 172.82L159.615 170.924C166.243 163.835 169.336 153.725 167.683 144.165L167.264 142.03C167.044 141.028 166.644 140.056 167.77 139.498L167.832 139.469C168.817 139.256 169.683 140.875 170.151 141.533C174.834 148.122 177.323 155.381 176.797 163.6C176.341 170.738 173.357 178.083 168.275 183.184C164.569 186.903 157 191.394 151.827 193.217C151.344 192.882 150.907 192.426 150.469 192.034L141.69 183.932C141.342 183.609 139.063 181.567 138.962 181.341L138.975 237.749C138.971 241.016 138.091 243.736 135.664 246.123C129.277 252.404 118.442 248.527 117.085 239.98C116.966 239.229 117.001 238.413 117 237.654L116.979 181.379C116.76 181.638 116.519 181.742 116.267 181.961L108.532 189.136C107.074 190.489 105.579 191.792 104.24 193.267C96.5712 190.358 89.2993 186.192 84.5286 179.401Z"/>
	<path fill="#011627" d="M255.131 227.618C261.457 227.03 266.97 231.819 267.546 238.096C268.12 244.342 263.048 249.652 256.965 250.162C251.31 250.42 245.534 246.561 244.822 240.688C243.992 233.84 248.279 228.444 255.131 227.618Z"/>
	<path fill="#011627" d="M299.471 204.599C301.762 208.081 303.378 211.944 304.267 216.021C304.492 217.051 304.567 218.104 304.78 219.128L304.813 219.278C305 220.357 304.943 221.561 304.942 222.656C304.937 228.529 303.111 234.426 300.142 239.473C299.628 240.347 297.214 244.327 296.157 244.44C294.599 244.608 294.968 242.853 295.175 242.019L295.63 239.975C297.197 231.556 295.392 222.57 290.088 215.747C288.416 213.596 286.509 211.776 284.464 209.987L278.579 216.427C283.651 219.702 287.245 224.908 287.423 231.056C287.475 232.856 287.216 235.817 285.425 236.795L278.106 236.791C276.857 236.79 275.541 236.868 274.298 236.77C272.393 236.619 275.036 234.528 274.999 232.809C274.922 229.338 271.021 226.897 268.189 225.731C260.227 222.453 245.173 222.228 239.038 228.912C237.765 230.299 236.702 232.586 237.691 234.415C238.073 235.121 239.6 236.587 237.828 236.738C236.989 236.81 236.13 236.782 235.288 236.783L228.288 236.788C227.206 236.787 226.448 236.997 225.723 236.04C224.789 234.807 224.631 233.391 224.595 231.896C224.421 224.697 228.374 220.431 233.673 216.407L227.767 209.971C227.255 210.312 226.787 210.764 226.335 211.18L224.385 213.076C217.757 220.165 214.664 230.275 216.316 239.835L216.736 241.97C216.956 242.972 217.356 243.944 216.23 244.502L216.168 244.531C215.183 244.744 214.317 243.125 213.849 242.467C209.166 235.878 206.677 228.619 207.202 220.4C207.66 213.262 210.643 205.917 215.725 200.817C219.431 197.097 227 192.606 232.173 190.783C232.656 191.118 233.093 191.574 233.531 191.966L242.31 200.068C242.658 200.391 244.937 202.433 245.038 202.659L245.025 146.251C245.029 142.984 245.909 140.264 248.336 137.877C254.723 131.596 265.558 135.473 266.915 144.02C267.034 144.771 266.999 145.587 267 146.346L267.021 202.621C267.24 202.362 267.481 202.258 267.733 202.039L275.468 194.864C276.926 193.511 278.421 192.207 279.76 190.733C287.429 193.642 294.701 197.808 299.471 204.599Z"/>
	<path fill="#011627" d="M384.869 156.382C378.543 156.97 373.03 152.181 372.454 145.904C371.88 139.658 376.952 134.348 383.035 133.838C388.69 133.58 394.466 137.439 395.178 143.312C396.009 150.16 391.721 155.556 384.869 156.382Z"/>
	<path fill="#011627" d="M340.529 179.401C338.238 175.919 336.622 172.056 335.733 167.979C335.508 166.949 335.433 165.896 335.219 164.872L335.187 164.722C335 163.643 335.057 162.439 335.058 161.344C335.063 155.471 336.889 149.574 339.858 144.528C340.372 143.653 342.786 139.673 343.842 139.56C345.401 139.392 345.032 141.147 344.825 141.981L344.37 144.025C342.803 152.444 344.608 161.43 349.912 168.253C351.584 170.404 353.491 172.224 355.536 174.013L361.421 167.573C356.349 164.298 352.755 159.092 352.577 152.944C352.525 151.144 352.784 148.183 354.575 147.205L361.894 147.209C363.143 147.21 364.459 147.132 365.702 147.23C367.607 147.381 364.964 149.472 365.002 151.191C365.078 154.662 368.979 157.102 371.811 158.269C379.773 161.547 394.827 161.772 400.962 155.088C402.235 153.701 403.298 151.414 402.308 149.585C401.927 148.879 400.4 147.413 402.172 147.262C403.011 147.19 403.87 147.219 404.712 147.217L411.712 147.212C412.794 147.213 413.552 147.003 414.277 147.96C415.211 149.194 415.369 150.609 415.405 152.103C415.579 159.303 411.626 163.569 406.327 167.593L412.233 174.029C412.745 173.688 413.212 173.236 413.665 172.82L415.615 170.924C422.243 163.835 425.336 153.725 423.683 144.165L423.264 142.03C423.044 141.028 422.644 140.056 423.77 139.498L423.832 139.469C424.817 139.256 425.683 140.875 426.151 141.533C430.834 148.122 433.323 155.381 432.797 163.6C432.341 170.738 429.357 178.083 424.275 183.184C420.569 186.903 413 191.394 407.827 193.217C407.344 192.882 406.908 192.426 406.469 192.034L397.69 183.932C397.342 183.609 395.063 181.567 394.962 181.341L394.975 237.749C394.971 241.016 394.091 243.736 391.664 246.123C385.277 252.404 374.442 248.527 373.085 239.98C372.966 239.229 373.001 238.413 373 237.654L372.979 181.379C372.76 181.638 372.519 181.742 372.267 181.961L364.532 189.136C363.074 190.489 361.579 191.792 360.24 193.267C352.571 190.358 345.299 186.192 340.529 179.401Z"/>
	<path fill="#011627" d="M511.131 227.618C517.457 227.03 522.97 231.819 523.547 238.096C524.12 244.342 519.048 249.652 512.965 250.162C507.31 250.42 501.534 246.561 500.822 240.688C499.991 233.84 504.279 228.444 511.131 227.618Z"/>
	<path fill="#011627" d="M555.471 204.599C557.762 208.081 559.378 211.944 560.267 216.021C560.492 217.051 560.567 218.104 560.78 219.128L560.813 219.278C561 220.357 560.943 221.561 560.942 222.656C560.937 228.529 559.111 234.426 556.142 239.473C555.628 240.347 553.214 244.327 552.157 244.44C550.599 244.608 550.968 242.853 551.175 242.019L551.63 239.975C553.197 231.556 551.392 222.57 546.088 215.747C544.416 213.596 542.509 211.776 540.464 209.987L534.579 216.427C539.651 219.702 543.245 224.908 543.423 231.056C543.475 232.856 543.216 235.817 541.425 236.795L534.106 236.791C532.857 236.79 531.541 236.868 530.298 236.77C528.393 236.619 531.036 234.528 530.999 232.809C530.922 229.338 527.021 226.897 524.189 225.731C516.227 222.453 501.173 222.228 495.038 228.912C493.765 230.299 492.702 232.586 493.692 234.415C494.074 235.121 495.6 236.587 493.828 236.738C492.989 236.81 492.13 236.782 491.288 236.783L484.288 236.788C483.206 236.787 482.449 236.997 481.723 236.04C480.789 234.807 480.631 233.391 480.595 231.896C480.421 224.697 484.373 220.431 489.673 216.407L483.767 209.971C483.255 210.312 482.788 210.764 482.335 211.18L480.385 213.076C473.757 220.165 470.664 230.275 472.317 239.835L472.736 241.97C472.956 242.972 473.356 243.944 472.23 244.502L472.168 244.531C471.183 244.744 470.317 243.125 469.849 242.467C465.166 235.878 462.676 228.619 463.202 220.4C463.659 213.262 466.643 205.917 471.725 200.817C475.431 197.097 483 192.606 488.173 190.783C488.656 191.118 489.092 191.574 489.531 191.966L498.31 200.068C498.658 200.391 500.937 202.433 501.038 202.659L501.025 146.251C501.029 142.984 501.909 140.264 504.336 137.877C510.723 131.596 521.558 135.473 522.915 144.02C523.034 144.771 522.999 145.587 523 146.346L523.021 202.621C523.24 202.362 523.481 202.258 523.733 202.039L531.468 194.864C532.926 193.511 534.421 192.207 535.76 190.733C543.429 193.642 550.701 197.808 555.471 204.599Z"/>
	<path fill="#011627" d="M64.8688 284.382C58.5425 284.97 53.0303 280.181 52.4535 273.904C51.8795 267.658 56.9522 262.348 63.0352 261.838C68.69 261.58 74.4665 265.439 75.1785 271.312C76.0085 278.16 71.721 283.556 64.8688 284.382Z"/>
	<path fill="#011627" d="M20.5286 307.401C18.2377 303.919 16.622 300.056 15.7326 295.979C15.5079 294.949 15.4327 293.896 15.2195 292.872L15.1872 292.722C14.9998 291.643 15.0566 290.438 15.0575 289.344C15.0626 283.471 16.8888 277.574 19.858 272.527C20.3723 271.653 22.7858 267.673 23.8425 267.56C25.401 267.392 25.032 269.147 24.8246 269.981L24.3701 272.025C22.8025 280.444 24.6085 289.43 29.9123 296.253C31.584 298.404 33.4907 300.224 35.5358 302.013L41.421 295.573C36.349 292.298 32.755 287.092 32.5772 280.944C32.5252 279.144 32.784 276.183 34.575 275.205L41.894 275.209C43.1433 275.211 44.459 275.132 45.7025 275.23C47.607 275.381 44.964 277.472 45.0015 279.191C45.0778 282.662 48.979 285.103 51.8113 286.269C59.7732 289.547 74.8275 289.772 80.9617 283.088C82.2348 281.701 83.2985 279.414 82.3085 277.585C81.9265 276.879 80.4002 275.413 82.1718 275.262C83.0108 275.19 83.8697 275.219 84.7115 275.217L91.7117 275.212C92.7938 275.213 93.5515 275.003 94.2768 275.96C95.2113 277.193 95.369 278.609 95.405 280.103C95.5787 287.303 91.6265 291.569 86.327 295.593L92.2325 302.029C92.7445 301.688 93.2125 301.236 93.6653 300.82L95.6153 298.925C102.243 291.836 105.336 281.725 103.683 272.165L103.264 270.03C103.044 269.028 102.644 268.056 103.77 267.498L103.832 267.469C104.817 267.256 105.683 268.875 106.151 269.533C110.834 276.122 113.323 283.381 112.797 291.6C112.341 298.738 109.357 306.083 104.275 311.183C100.569 314.903 92.9995 319.394 87.827 321.217C87.3443 320.882 86.9075 320.426 86.4688 320.034L77.6905 311.932C77.3418 311.61 75.0627 309.567 74.9617 309.341L74.9748 365.749C74.971 369.016 74.091 371.736 71.664 374.123C65.277 380.404 54.4423 376.527 53.0853 367.98C52.966 367.229 53.001 366.413 52.9997 365.654L52.9787 309.379C52.7595 309.638 52.519 309.741 52.267 309.961L44.5318 317.136C43.0742 318.489 41.5793 319.793 40.2398 321.267C32.5712 318.358 25.2993 314.192 20.5286 307.401Z"/>
	<path fill="#011627" d="M191.131 355.618C197.457 355.03 202.97 359.819 203.546 366.096C204.12 372.342 199.048 377.652 192.965 378.162C187.31 378.42 181.534 374.561 180.822 368.688C179.992 361.84 184.279 356.444 191.131 355.618Z"/>
	<path fill="#011627" d="M235.471 332.599C237.762 336.081 239.378 339.944 240.267 344.021C240.492 345.051 240.567 346.104 240.78 347.128L240.813 347.278C241 348.357 240.943 349.562 240.942 350.656C240.937 356.529 239.111 362.426 236.142 367.473C235.628 368.347 233.214 372.327 232.157 372.44C230.599 372.608 230.968 370.853 231.175 370.019L231.63 367.975C233.197 359.556 231.392 350.57 226.088 343.747C224.416 341.596 222.509 339.776 220.464 337.987L214.579 344.427C219.651 347.702 223.245 352.908 223.423 359.056C223.475 360.856 223.216 363.817 221.425 364.795L214.106 364.791C212.857 364.79 211.541 364.868 210.298 364.77C208.393 364.619 211.036 362.528 210.999 360.809C210.922 357.338 207.021 354.897 204.189 353.731C196.227 350.453 181.173 350.228 175.038 356.912C173.765 358.299 172.702 360.586 173.691 362.415C174.073 363.121 175.6 364.587 173.828 364.738C172.989 364.81 172.13 364.782 171.288 364.783L164.288 364.788C163.206 364.787 162.448 364.997 161.723 364.04C160.789 362.807 160.631 361.391 160.595 359.896C160.421 352.697 164.374 348.431 169.673 344.407L163.767 337.971C163.255 338.312 162.787 338.764 162.335 339.18L160.385 341.076C153.757 348.164 150.664 358.275 152.316 367.835L152.736 369.97C152.956 370.972 153.356 371.944 152.23 372.502L152.168 372.531C151.183 372.744 150.317 371.125 149.849 370.467C145.166 363.878 142.677 356.619 143.202 348.4C143.66 341.262 146.643 333.917 151.725 328.817C155.431 325.097 163 320.606 168.173 318.783C168.656 319.118 169.093 319.574 169.531 319.966L178.31 328.068C178.658 328.39 180.937 330.433 181.038 330.659L181.025 274.251C181.029 270.984 181.909 268.264 184.336 265.877C190.723 259.596 201.558 263.473 202.915 272.02C203.034 272.771 202.999 273.587 203 274.346L203.021 330.621C203.24 330.362 203.481 330.259 203.733 330.039L211.468 322.864C212.926 321.511 214.421 320.207 215.76 318.733C223.429 321.642 230.701 325.808 235.471 332.599Z"/>
	<path fill="#011627" d="M320.869 284.382C314.543 284.97 309.03 280.181 308.454 273.904C307.88 267.658 312.952 262.348 319.035 261.838C324.69 261.58 330.466 265.439 331.178 271.312C332.009 278.16 327.721 283.556 320.869 284.382Z"/>
	<path fill="#011627" d="M276.529 307.401C274.238 303.919 272.622 300.056 271.733 295.979C271.508 294.949 271.433 293.896 271.219 292.872L271.187 292.722C271 291.643 271.057 290.438 271.058 289.344C271.063 283.471 272.889 277.574 275.858 272.527C276.372 271.653 278.786 267.673 279.842 267.56C281.401 267.392 281.032 269.147 280.825 269.981L280.37 272.025C278.803 280.444 280.608 289.43 285.912 296.253C287.584 298.404 289.491 300.224 291.536 302.013L297.421 295.573C292.349 292.298 288.755 287.092 288.577 280.944C288.525 279.144 288.784 276.183 290.575 275.205L297.894 275.209C299.143 275.211 300.459 275.132 301.702 275.23C303.607 275.381 300.964 277.472 301.002 279.191C301.078 282.662 304.979 285.103 307.811 286.269C315.773 289.547 330.827 289.772 336.962 283.088C338.235 281.701 339.298 279.414 338.308 277.585C337.927 276.879 336.4 275.413 338.172 275.262C339.011 275.19 339.87 275.219 340.712 275.217L347.712 275.212C348.794 275.213 349.552 275.003 350.277 275.96C351.211 277.193 351.369 278.609 351.405 280.103C351.579 287.303 347.626 291.569 342.327 295.593L348.233 302.029C348.745 301.688 349.212 301.236 349.665 300.82L351.615 298.925C358.243 291.836 361.336 281.725 359.683 272.165L359.264 270.03C359.044 269.028 358.644 268.056 359.77 267.498L359.832 267.469C360.817 267.256 361.683 268.875 362.151 269.533C366.834 276.122 369.323 283.381 368.797 291.6C368.341 298.738 365.357 306.083 360.275 311.183C356.569 314.903 349 319.394 343.827 321.217C343.344 320.882 342.908 320.426 342.469 320.034L333.69 311.932C333.342 311.61 331.063 309.567 330.962 309.341L330.975 365.749C330.971 369.016 330.091 371.736 327.664 374.123C321.277 380.404 310.442 376.527 309.085 367.98C308.966 367.229 309.001 366.413 309 365.654L308.979 309.379C308.76 309.638 308.519 309.741 308.267 309.961L300.532 317.136C299.074 318.489 297.579 319.793 296.24 321.267C288.571 318.358 281.299 314.192 276.529 307.401Z"/>
	<path fill="#011627" d="M447.131 355.618C453.457 355.03 458.97 359.819 459.546 366.096C460.12 372.342 455.048 377.652 448.965 378.162C443.31 378.42 437.534 374.561 436.822 368.688C435.991 361.84 440.279 356.444 447.131 355.618Z"/>
	<path fill="#011627" d="M491.471 332.599C493.762 336.081 495.378 339.944 496.267 344.021C496.492 345.051 496.567 346.104 496.78 347.128L496.813 347.278C497 348.357 496.943 349.562 496.942 350.656C496.937 356.529 495.111 362.426 492.142 367.473C491.628 368.347 489.214 372.327 488.157 372.44C486.599 372.608 486.968 370.853 487.175 370.019L487.63 367.975C489.197 359.556 487.392 350.57 482.088 343.747C480.416 341.596 478.509 339.776 476.464 337.987L470.579 344.427C475.651 347.702 479.245 352.908 479.423 359.056C479.475 360.856 479.216 363.817 477.425 364.795L470.106 364.791C468.857 364.79 467.541 364.868 466.298 364.77C464.393 364.619 467.036 362.528 466.999 360.809C466.922 357.338 463.021 354.897 460.189 353.731C452.227 350.453 437.173 350.228 431.038 356.912C429.765 358.299 428.702 360.586 429.692 362.415C430.074 363.121 431.6 364.587 429.828 364.738C428.989 364.81 428.13 364.782 427.288 364.783L420.288 364.788C419.206 364.787 418.449 364.997 417.723 364.04C416.789 362.807 416.631 361.391 416.595 359.896C416.421 352.697 420.373 348.431 425.673 344.407L419.767 337.971C419.255 338.312 418.788 338.764 418.335 339.18L416.385 341.076C409.757 348.164 406.664 358.275 408.317 367.835L408.736 369.97C408.956 370.972 409.356 371.944 408.23 372.502L408.168 372.531C407.183 372.744 406.317 371.125 405.849 370.467C401.166 363.878 398.676 356.619 399.202 348.4C399.659 341.262 402.643 333.917 407.725 328.817C411.431 325.097 419 320.606 424.173 318.783C424.656 319.118 425.092 319.574 425.531 319.966L434.31 328.068C434.658 328.39 436.937 330.433 437.038 330.659L437.025 274.251C437.029 270.984 437.909 268.264 440.336 265.877C446.723 259.596 457.558 263.473 458.915 272.02C459.034 272.771 458.999 273.587 459 274.346L459.021 330.621C459.24 330.362 459.481 330.259 459.733 330.039L467.468 322.864C468.926 321.511 470.421 320.207 471.76 318.733C479.429 321.642 486.701 325.808 491.471 332.599Z"/>
	<path fill="#011627" d="M-0.8688 483.618C5.4575 483.03 10.9698 487.819 11.5465 494.096C12.1205 500.342 7.0478 505.652 0.9648 506.162C-4.69 506.42 -10.4665 502.561 -11.1785 496.688C-12.0085 489.84 -7.721 484.444 -0.8688 483.618Z"/>
	<path fill="#011627" d="M43.471 460.599C45.762 464.081 47.378 467.944 48.267 472.021C48.492 473.051 48.567 474.104 48.78 475.128L48.813 475.278C49 476.357 48.943 477.562 48.942 478.656C48.937 484.529 47.111 490.426 44.142 495.473C43.628 496.347 41.214 500.327 40.157 500.44C38.599 500.608 38.968 498.853 39.175 498.019L39.63 495.975C41.197 487.556 39.392 478.57 34.0877 471.747C32.416 469.596 30.5093 467.776 28.4642 465.987L22.579 472.427C27.651 475.702 31.245 480.908 31.4228 487.056C31.4748 488.856 31.216 491.817 29.425 492.795L22.106 492.791C20.8568 492.79 19.541 492.868 18.2975 492.77C16.393 492.619 19.036 490.528 18.9985 488.809C18.9222 485.338 15.021 482.897 12.1887 481.731C4.2268 478.453 -10.8275 478.228 -16.9617 484.912C-18.2348 486.299 -19.2985 488.586 -18.3085 490.415C-17.9265 491.121 -16.4002 492.587 -18.1718 492.738C-19.0108 492.81 -19.8697 492.782 -20.7115 492.783L-27.7117 492.788C-28.7938 492.787 -29.5515 492.997 -30.2768 492.04C-31.2113 490.807 -31.369 489.391 -31.405 487.896C-31.5787 480.697 -27.6265 476.431 -22.327 472.407L-28.2325 465.971C-28.7445 466.312 -29.2125 466.764 -29.6653 467.18L-31.6153 469.076C-38.243 476.164 -41.336 486.275 -39.6835 495.835L-39.264 497.97C-39.0438 498.972 -38.6437 499.944 -39.7703 500.502L-39.8315 500.531C-40.8175 500.744 -41.6833 499.125 -42.151 498.467C-46.8342 491.878 -49.3235 484.619 -48.7975 476.4C-48.3405 469.262 -45.3568 461.917 -40.2752 456.817C-36.5692 453.097 -28.9995 448.606 -23.827 446.783C-23.3443 447.118 -22.9075 447.574 -22.4688 447.966L-13.6905 456.068C-13.3418 456.39 -11.0627 458.433 -10.9617 458.659L-10.9748 402.251C-10.971 398.984 -10.091 396.264 -7.664 393.877C-1.277 387.596 9.5577 391.473 10.9147 400.02C11.034 400.771 10.999 401.587 11.0002 402.346L11.0213 458.621C11.2405 458.362 11.481 458.259 11.733 458.039L19.4682 450.864C20.9257 449.511 22.4207 448.207 23.7602 446.733C31.4288 449.642 38.701 453.808 43.471 460.599Z"/>
	<path fill="#011627" d="M128.869 412.382C122.542 412.97 117.03 408.181 116.453 401.904C115.88 395.658 120.952 390.348 127.035 389.838C132.69 389.58 138.466 393.439 139.178 399.312C140.008 406.16 135.721 411.556 128.869 412.382Z"/>
	<path fill="#011627" d="M84.5286 435.401C82.2377 431.919 80.622 428.056 79.7326 423.979C79.5079 422.949 79.4327 421.896 79.2195 420.872L79.1872 420.722C78.9998 419.643 79.0566 418.438 79.0575 417.344C79.0626 411.471 80.8888 405.574 83.858 400.527C84.3723 399.653 86.7858 395.673 87.8425 395.56C89.401 395.392 89.032 397.147 88.8246 397.981L88.3701 400.025C86.8025 408.444 88.6085 417.43 93.9123 424.253C95.584 426.404 97.4907 428.224 99.5358 430.013L105.421 423.573C100.349 420.298 96.755 415.092 96.5772 408.944C96.5252 407.144 96.784 404.183 98.575 403.205L105.894 403.209C107.143 403.211 108.459 403.132 109.703 403.23C111.607 403.381 108.964 405.472 109.001 407.191C109.078 410.662 112.979 413.103 115.811 414.269C123.773 417.547 138.827 417.772 144.962 411.088C146.235 409.701 147.298 407.414 146.308 405.585C145.927 404.879 144.4 403.413 146.172 403.262C147.011 403.19 147.87 403.219 148.712 403.217L155.712 403.212C156.794 403.213 157.552 403.003 158.277 403.96C159.211 405.193 159.369 406.609 159.405 408.103C159.579 415.303 155.626 419.569 150.327 423.593L156.233 430.029C156.745 429.688 157.213 429.236 157.665 428.82L159.615 426.925C166.243 419.836 169.336 409.725 167.683 400.165L167.264 398.03C167.044 397.028 166.644 396.056 167.77 395.498L167.832 395.469C168.817 395.256 169.683 396.875 170.151 397.533C174.834 404.122 177.323 411.381 176.797 419.6C176.341 426.738 173.357 434.083 168.275 439.183C164.569 442.903 157 447.394 151.827 449.217C151.344 448.882 150.907 448.426 150.469 448.034L141.69 439.932C141.342 439.61 139.063 437.567 138.962 437.341L138.975 493.749C138.971 497.016 138.091 499.736 135.664 502.123C129.277 508.404 118.442 504.527 117.085 495.98C116.966 495.229 117.001 494.413 117 493.654L116.979 437.379C116.76 437.638 116.519 437.741 116.267 437.961L108.532 445.136C107.074 446.489 105.579 447.793 104.24 449.267C96.5712 446.358 89.2993 442.192 84.5286 435.401Z"/>
	<path fill="#011627" d="M255.131 483.618C261.457 483.03 266.97 487.819 267.546 494.096C268.12 500.342 263.048 505.652 256.965 506.162C251.31 506.42 245.534 502.561 244.822 496.688C243.992 489.84 248.279 484.444 255.131 483.618Z"/>
	<path fill="#011627" d="M299.471 460.599C301.762 464.081 303.378 467.944 304.267 472.021C304.492 473.051 304.567 474.104 304.78 475.128L304.813 475.278C305 476.357 304.943 477.562 304.942 478.656C304.937 484.529 303.111 490.426 300.142 495.473C299.628 496.347 297.214 500.327 296.157 500.44C294.599 500.608 294.968 498.853 295.175 498.019L295.63 495.975C297.197 487.556 295.392 478.57 290.088 471.747C288.416 469.596 286.509 467.776 284.464 465.987L278.579 472.427C283.651 475.702 287.245 480.908 287.423 487.056C287.475 488.856 287.216 491.817 285.425 492.795L278.106 492.791C276.857 492.79 275.541 492.868 274.298 492.77C272.393 492.619 275.036 490.528 274.999 488.809C274.922 485.338 271.021 482.897 268.189 481.731C260.227 478.453 245.173 478.228 239.038 484.912C237.765 486.299 236.702 488.586 237.691 490.415C238.073 491.121 239.6 492.587 237.828 492.738C236.989 492.81 236.13 492.782 235.288 492.783L228.288 492.788C227.206 492.787 226.448 492.997 225.723 492.04C224.789 490.807 224.631 489.391 224.595 487.896C224.421 480.697 228.374 476.431 233.673 472.407L227.767 465.971C227.255 466.312 226.787 466.764 226.335 467.18L224.385 469.076C217.757 476.164 214.664 486.275 216.316 495.835L216.736 497.97C216.956 498.972 217.356 499.944 216.23 500.502L216.168 500.531C215.183 500.744 214.317 499.125 213.849 498.467C209.166 491.878 206.677 484.619 207.202 476.4C207.66 469.262 210.643 461.917 215.725 456.817C219.431 453.097 227 448.606 232.173 446.783C232.656 447.118 233.093 447.574 233.531 447.966L242.31 456.068C242.658 456.39 244.937 458.433 245.038 458.659L245.025 402.251C245.029 398.984 245.909 396.264 248.336 393.877C254.723 387.596 265.558 391.473 266.915 400.02C267.034 400.771 266.999 401.587 267 402.346L267.021 458.621C267.24 458.362 267.481 458.259 267.733 458.039L275.468 450.864C276.926 449.511 278.421 448.207 279.76 446.733C287.429 449.642 294.701 453.808 299.471 460.599Z"/>
	<path fill="#011627" d="M384.869 412.382C378.543 412.97 373.03 408.181 372.454 401.904C371.88 395.658 376.952 390.348 383.035 389.838C388.69 389.58 394.466 393.439 395.178 399.312C396.009 406.16 391.721 411.556 384.869 412.382Z"/>
	<path fill="#011627" d="M340.529 435.401C338.238 431.919 336.622 428.056 335.733 423.979C335.508 422.949 335.433 421.896 335.219 420.872L335.187 420.722C335 419.643 335.057 418.438 335.058 417.344C335.063 411.471 336.889 405.574 339.858 400.527C340.372 399.653 342.786 395.673 343.842 395.56C345.401 395.392 345.032 397.147 344.825 397.981L344.37 400.025C342.803 408.444 344.608 417.43 349.912 424.253C351.584 426.404 353.491 428.224 355.536 430.013L361.421 423.573C356.349 420.298 352.755 415.092 352.577 408.944C352.525 407.144 352.784 404.183 354.575 403.205L361.894 403.209C363.143 403.211 364.459 403.132 365.702 403.23C367.607 403.381 364.964 405.472 365.002 407.191C365.078 410.662 368.979 413.103 371.811 414.269C379.773 417.547 394.827 417.772 400.962 411.088C402.235 409.701 403.298 407.414 402.308 405.585C401.927 404.879 400.4 403.413 402.172 403.262C403.011 403.19 403.87 403.219 404.712 403.217L411.712 403.212C412.794 403.213 413.552 403.003 414.277 403.96C415.211 405.193 415.369 406.609 415.405 408.103C415.579 415.303 411.626 419.569 406.327 423.593L412.233 430.029C412.745 429.688 413.212 429.236 413.665 428.82L415.615 426.925C422.243 419.836 425.336 409.725 423.683 400.165L423.264 398.03C423.044 397.028 422.644 396.056 423.77 395.498L423.832 395.469C424.817 395.256 425.683 396.875 426.151 397.533C430.834 404.122 433.323 411.381 432.797 419.6C432.341 426.738 429.357 434.083 424.275 439.183C420.569 442.903 413 447.394 407.827 449.217C407.344 448.882 406.908 448.426 406.469 448.034L397.69 439.932C397.342 439.61 395.063 437.567 394.962 437.341L394.975 493.749C394.971 497.016 394.091 499.736 391.664 502.123C385.277 508.404 374.442 504.527 373.085 495.98C372.966 495.229 373.001 494.413 373 493.654L372.979 437.379C372.76 437.638 372.519 437.741 372.267 437.961L364.532 445.136C363.074 446.489 361.579 447.793 360.24 449.267C352.571 446.358 345.299 442.192 340.529 435.401Z"/>
	<path fill="#011627" d="M511.131 483.618C517.457 483.03 522.97 487.819 523.547 494.096C524.12 500.342 519.048 505.652 512.965 506.162C507.31 506.42 501.534 502.561 500.822 496.688C499.991 489.84 504.279 484.444 511.131 483.618Z"/>
	<path fill="#011627" d="M555.471 460.599C557.762 464.081 559.378 467.944 560.267 472.021C560.492 473.051 560.567 474.104 560.78 475.128L560.813 475.278C561 476.357 560.943 477.562 560.942 478.656C560.937 484.529 559.111 490.426 556.142 495.473C555.628 496.347 553.214 500.327 552.157 500.44C550.599 500.608 550.968 498.853 551.175 498.019L551.63 495.975C553.197 487.556 551.392 478.57 546.088 471.747C544.416 469.596 542.509 467.776 540.464 465.987L534.579 472.427C539.651 475.702 543.245 480.908 543.423 487.056C543.475 488.856 543.216 491.817 541.425 492.795L534.106 492.791C532.857 492.79 531.541 492.868 530.298 492.77C528.393 492.619 531.036 490.528 530.999 488.809C530.922 485.338 527.021 482.897 524.189 481.731C516.227 478.453 501.173 478.228 495.038 484.912C493.765 486.299 492.702 488.586 493.692 490.415C494.074 491.121 495.6 492.587 493.828 492.738C492.989 492.81 492.13 492.782 491.288 492.783L484.288 492.788C483.206 492.787 482.449 492.997 481.723 492.04C480.789 490.807 480.631 489.391 480.595 487.896C480.421 480.697 484.373 476.431 489.673 472.407L483.767 465.971C483.255 466.312 482.788 466.764 482.335 467.18L480.385 469.076C473.757 476.164 470.664 486.275 472.317 495.835L472.736 497.97C472.956 498.972 473.356 499.944 472.23 500.502L472.168 500.531C471.183 500.744 470.317 499.125 469.849 498.467C465.166 491.878 462.676 484.619 463.202 476.4C463.659 469.262 466.643 461.917 471.725 456.817C475.431 453.097 483 448.606 488.173 446.783C488.656 447.118 489.092 447.574 489.531 447.966L498.31 456.068C498.658 456.39 500.937 458.433 501.038 458.659L501.025 402.251C501.029 398.984 501.909 396.264 504.336 393.877C510.723 387.596 521.558 391.473 522.915 400.02C523.034 400.771 522.999 401.587 523 402.346L523.021 458.621C523.24 458.362 523.481 458.259 523.733 458.039L531.468 450.864C532.926 449.511 534.421 448.207 535.76 446.733C543.429 449.642 550.701 453.808 555.471 460.599Z"/>
</svg>
