<?xml version="1.0" encoding="utf-8" ?>
<svg xmlns="http://www.w3.org/2000/svg" xmlns:xlink="http://www.w3.org/1999/xlink" width="468" height="468">
	<path fill="#471069" transform="scale(0.915518 0.915518)" d="M0 0L0 512L512 512L512 0L0 0Z"/>
	<path fill="#30C5D2" transform="scale(0.915518 0.915518)" d="M274.463 359.753C258.339 371.795 246.826 368.045 232.289 355.006L132.879 266.596C126.624 261.08 118.644 254.738 117.044 246.081L116.982 245.726C116.637 243.83 116.748 241.872 116.76 239.952L116.826 147.368C116.832 145.008 116.625 142.385 117.166 140.078L118.221 136.194C120.093 130.728 124.563 126.114 129.718 123.62C137.502 119.852 144.403 122.244 152.088 124.869C153.869 123.263 155.334 121.145 156.8 119.256L190.251 75.8142C191.771 75.6003 193.426 75.7139 194.964 75.7104L231.097 75.7007L327.61 75.7578C329.11 77.9242 330.337 79.9906 331.988 82.2116L353.892 112.262C354.731 113.422 362.238 124.207 362.45 124.298C362.45 124.298 363.034 124.055 363.087 124.034C368.333 121.92 374.207 121.1 379.71 122.666C397.007 127.587 396.443 141.847 396.458 156.389L396.474 237.584C396.471 240.214 396.788 243.611 396.029 246.13C393.205 255.496 387.528 259.333 380.781 265.615L286.178 349.464C282.338 352.982 278.555 356.526 274.463 359.753ZM208.498 111.781L186.907 139.153L255.262 164.378C256.553 164.647 265.807 160.779 267.834 160.024L292.534 150.866L326.898 138.276C327.607 138.052 322.346 131.649 321.335 130.29L308.303 112.893C307.55 111.93 307.614 111.901 306.349 111.812L208.498 111.781ZM153.068 165.013L153.082 236.649C154.859 237.815 156.407 238.441 158.153 239.896L236.652 309.642L255.734 327.222L331.473 260.255L354.442 240.192C361.186 234.404 359.815 237.598 359.836 227.832L359.638 165.127C358.482 165.983 355.809 166.461 354.385 166.996L286.139 192.31L261.899 201.319C259.678 202.066 257.459 203.018 255.204 203.622L153.068 165.013Z"/>
	<path fill="#30C5D2" transform="scale(0.915518 0.915518)" d="M276.833 254.605L274.29 255.145C275.667 253.276 276.32 250.923 277.316 248.828L285.862 230.69C290.199 221.387 295.412 212.238 299.024 202.635L341.813 202.058L344.797 201.765C344.785 203.039 341.808 207.484 340.988 208.88L317.625 247.775C317.498 247.975 304.737 249.46 302.663 249.766L276.833 254.605Z"/>
	<path fill="#30C5D2" transform="scale(0.915518 0.915518)" d="M237.047 254.069L194.321 247.972L168.489 201.94L196.99 202.069C202.393 202.08 208.096 201.722 213.456 202.448L237.047 254.069Z"/>
	<path fill="#30C5D2" transform="scale(0.915518 0.915518)" d="M435.318 273.92L435.346 284.068C435.357 287.42 435.932 286.45 433.429 288.402C432.034 289.489 430.692 290.701 429.394 291.901L334.218 375.699L291.386 413.924C285.803 418.849 280.68 424.368 274.561 428.66C263.994 436.074 249.42 436.115 238.632 429.063C236.049 427.375 233.7 425.298 231.368 423.284L76.7186 286.031L76.7595 235.389L256.154 396.913L435.293 236.078L435.318 273.92Z"/>
</svg>
