<?xml version="1.0" encoding="utf-8" ?>
<svg xmlns="http://www.w3.org/2000/svg" xmlns:xlink="http://www.w3.org/1999/xlink" width="512" height="512">
	<path fill="#E1BB80" d="M0 0L0 512L512 512L512 0L0 0Z"/>
	<path fill="#352208" d="M65.828 121.483L58.92 121.393C59.1925 120.359 59.0535 119.015 59.0553 117.948L59.0812 111.38L54.147 111.351L54.1067 120.802C51.6153 120.354 49.1638 119.834 46.732 119.122L43.7735 118.135L43.798 109.415C43.2223 109.322 42.5312 109.388 41.9425 109.387L38.3158 109.396L38.3402 116.906C38.0558 116.741 37.7313 116.718 37.4258 116.603L30.4695 113.297C29.4887 112.812 28.428 112.402 27.4868 111.851L27.5207 94.1552C27.5205 93.5012 27.632 89.2232 27.507 88.964C27.4125 88.768 27.1223 88.5755 26.971 88.409L23.1634 83.3137C11.8174 66.1985 12.3585 43.1487 24.2399 26.4765C32.637 14.6936 46.951 6.41577 61.4855 5.89108L65.4305 5.87203C68.8743 5.88632 72.4068 6.43775 75.741 7.2848C85.231 9.6957 93.5282 14.9171 100.131 22.0612C116.127 39.3683 117.344 66.6197 103.373 85.455L101.953 87.3642C101.621 87.8088 101.287 88.287 100.875 88.6612L100.7 88.8247C100.21 89.34 100.509 90.9928 100.51 91.673L100.539 112.02C100.308 112.293 100 112.321 99.682 112.453L92.5125 115.732L89.6903 116.731L89.7532 109.425L84.1218 109.38L84.1287 118.325C83.6483 118.65 77.8337 120.038 77.1115 120.186C76.1167 120.391 75.0803 120.466 74.0978 120.694L74.0853 112.58C74.0863 112.203 74.1178 111.795 74.0692 111.423L69.1445 111.415C69.03 112.475 69.122 113.645 69.1215 114.717L69.12 121.394C68.0768 121.557 66.8932 121.465 65.828 121.483ZM61.6277 17.0666C40.1957 18.6333 24.5675 37.7353 26.1845 58.8165L26.7677 63.078C27.993 70.2765 31.6135 76.99 36.4345 82.4137C36.815 82.842 38.586 84.5757 38.596 85.002L38.4667 97.911L43.881 97.9195L43.9363 95.8692C43.9393 95.5405 43.8873 95.1222 43.9805 94.811L54.0012 94.8203L53.9095 100.263L57.9805 100.271C58.3732 100.269 59.0478 100.353 59.393 100.226L59.4348 94.795L66.3438 94.8187L68.7075 94.8672C68.8123 96.3418 68.5457 99.0225 68.786 100.258L74.07 100.29L74.1115 94.7905L84.1328 94.7908L84.1285 97.9735L87.8438 97.9265C88.3738 97.9245 88.9702 97.978 89.4878 97.8893L89.555 85.789C89.5812 84.6172 89.8053 84.4875 90.5877 83.602L92.0725 81.8765C98.5447 73.974 101.895 65.745 101.888 55.58C101.878 40.6435 93.249 26.7005 79.544 20.4926C75.5263 18.6727 71.2253 17.3751 66.8033 17.108L61.6277 17.0666Z"/>
	<path fill="#352208" d="M65.0938 85.6165L54.0703 85.6107C51.3235 85.588 48.4865 84.0165 48.0977 81.0943C47.6208 77.5095 49.3245 76.6268 45.1223 75.2793C42.8978 74.566 40.6803 73.8762 38.937 72.232C33.9228 67.502 31.8775 58.1052 32.3302 51.2812C32.8075 44.091 36.1015 36.666 41.1557 31.4688C46.5742 25.897 55.2845 22.021 63.159 21.9199L65.9892 21.9402C82.9018 22.9154 96.3425 37.535 95.758 54.4622C95.6617 57.245 95.171 59.7478 94.3798 62.4168C92.5695 68.5242 89.915 73.1827 83.6188 75.1042C82.7555 75.3678 80.203 75.9073 80.0408 77.0657L80.0305 77.1562C79.8203 78.7518 80.0533 80.496 79.412 82.0023C78.4403 84.2845 76.2292 85.5842 73.8178 85.6115L65.0938 85.6165ZM49.8548 44.5285C47.7692 44.631 45.9933 45.4663 44.577 47.0123C40.1095 51.8897 44.2745 60.4768 50.7942 60.1315C52.947 59.8735 54.7567 58.8032 56.0985 57.0945C60.1497 51.9353 56.4892 44.5307 49.8548 44.5285ZM77.6923 44.528C75.55 44.6568 73.7837 45.4507 72.351 47.0757C67.868 52.1598 71.3328 59.9285 77.9745 60.0832C84.6603 59.8805 87.8035 51.0487 82.8375 46.5183C81.4227 45.2275 79.6238 44.4477 77.6923 44.528ZM63.1307 66.704C57.2142 68.0055 57.2443 76.1795 62.9688 76.2465L64.8905 76.248C65.9685 76.321 66.8607 75.9728 67.6723 75.2695C71.1355 72.268 68.2332 66.8053 64.0895 66.6697L63.1307 66.704Z"/>
	<path fill="#352208" d="M190.172 6.5175L197.08 6.60675C196.808 7.6415 196.947 8.98475 196.945 10.0523L196.919 16.6197L201.853 16.6492L201.893 7.1975C204.385 7.64625 206.836 8.16575 209.268 8.878L212.226 9.86475L212.202 18.5845C212.778 18.6778 213.469 18.6115 214.058 18.613L217.684 18.6042L217.66 11.0945C217.944 11.259 218.269 11.2818 218.574 11.3965L225.531 14.7032C226.511 15.1882 227.572 15.5978 228.513 16.149L228.479 33.8448C228.48 34.4988 228.368 38.7768 228.493 39.036C228.588 39.232 228.878 39.4245 229.029 39.591L232.837 44.6863C244.183 61.8015 243.642 84.8512 231.76 101.523C223.363 113.306 209.049 121.584 194.514 122.109L190.57 122.128C187.126 122.114 183.593 121.562 180.259 120.715C170.769 118.304 162.472 113.083 155.869 105.939C139.873 88.6317 138.656 61.3803 152.627 42.545L154.047 40.6358C154.38 40.1912 154.714 39.713 155.125 39.3388L155.3 39.1753C155.791 38.66 155.491 37.0072 155.49 36.327L155.461 15.9802C155.692 15.7067 156 15.6787 156.318 15.547L163.488 12.2682L166.31 11.2687L166.247 18.5747L171.878 18.6197L171.871 9.675C172.352 9.35025 178.166 7.96225 178.888 7.81375C179.883 7.609 180.92 7.5335 181.902 7.30575L181.915 15.4202C181.914 15.797 181.882 16.205 181.931 16.5773L186.856 16.585C186.97 15.5245 186.878 14.3545 186.879 13.2827L186.88 6.60625C187.923 6.44275 189.107 6.53525 190.172 6.5175ZM194.372 110.933C215.804 109.367 231.432 90.2647 229.816 69.1835L229.232 64.922C228.007 57.7235 224.387 51.01 219.565 45.5863C219.185 45.158 217.414 43.4243 217.404 42.998L217.533 30.089L212.119 30.0805L212.064 32.1308C212.061 32.4595 212.113 32.8778 212.019 33.189L201.999 33.1797L202.091 27.7375L198.019 27.7292C197.627 27.731 196.952 27.647 196.607 27.7742L196.565 33.205L189.656 33.1813L187.292 33.1328C187.188 31.6582 187.454 28.9775 187.214 27.7415L181.93 27.7105L181.888 33.2095L171.867 33.2092L171.871 30.0265L168.156 30.0735C167.626 30.0755 167.03 30.022 166.512 30.1107L166.445 42.211C166.419 43.3828 166.195 43.5125 165.412 44.398L163.928 46.1235C157.455 54.026 154.105 62.255 154.112 72.42C154.122 87.3565 162.751 101.299 176.456 107.507C180.474 109.327 184.775 110.625 189.197 110.892L194.372 110.933Z"/>
	<path fill="#352208" d="M190.906 42.3835L201.93 42.3893C204.677 42.412 207.513 43.9835 207.902 46.9057C208.379 50.4905 206.675 51.3732 210.878 52.7207C213.102 53.434 215.32 54.1238 217.063 55.768C222.077 60.498 224.123 69.8948 223.67 76.7188C223.192 83.909 219.899 91.334 214.844 96.5312C209.426 102.103 200.716 105.979 192.841 106.08L190.011 106.06C173.098 105.085 159.657 90.465 160.242 73.5378C160.338 70.755 160.829 68.2523 161.62 65.5832C163.43 59.4758 166.085 54.8173 172.381 52.8958C173.245 52.6322 175.797 52.0927 175.959 50.9343L175.969 50.8438C176.18 49.2482 175.947 47.504 176.588 45.9977C177.56 43.7155 179.771 42.4158 182.182 42.3885L190.906 42.3835ZM206.145 83.4715C208.231 83.369 210.007 82.5337 211.423 80.9878C215.891 76.1103 211.726 67.5232 205.206 67.8685C203.053 68.1265 201.243 69.1968 199.901 70.9055C195.85 76.0648 199.511 83.4693 206.145 83.4715ZM178.308 83.472C180.45 83.3432 182.216 82.5493 183.649 80.9243C188.132 75.8402 184.667 68.0715 178.025 67.9168C171.34 68.1195 168.197 76.9513 173.162 81.4818C174.577 82.7725 176.376 83.5523 178.308 83.472ZM192.869 61.296C198.786 59.9945 198.756 51.8205 193.031 51.7535L191.109 51.752C190.031 51.679 189.139 52.0272 188.328 52.7305C184.864 55.732 187.767 61.1947 191.911 61.3303L192.869 61.296Z"/>
	<path fill="#352208" d="M321.828 121.483L314.92 121.393C315.192 120.359 315.053 119.015 315.055 117.948L315.081 111.38L310.147 111.351L310.107 120.802C307.615 120.354 305.164 119.834 302.732 119.122L299.774 118.135L299.798 109.415C299.222 109.322 298.531 109.388 297.942 109.387L294.316 109.396L294.34 116.906C294.056 116.741 293.731 116.718 293.426 116.603L286.469 113.297C285.489 112.812 284.428 112.402 283.487 111.851L283.521 94.1552C283.52 93.5012 283.632 89.2232 283.507 88.964C283.413 88.768 283.122 88.5755 282.971 88.409L279.163 83.3137C267.817 66.1985 268.358 43.1487 280.24 26.4765C288.637 14.6936 302.951 6.41577 317.486 5.89108L321.43 5.87203C324.874 5.88632 328.407 6.43775 331.741 7.2848C341.231 9.6957 349.528 14.9171 356.131 22.0612C372.127 39.3683 373.344 66.6197 359.373 85.455L357.953 87.3642C357.621 87.8088 357.287 88.287 356.875 88.6612L356.7 88.8247C356.21 89.34 356.509 90.9928 356.51 91.673L356.539 112.02C356.308 112.293 356 112.321 355.682 112.453L348.512 115.732L345.69 116.731L345.753 109.425L340.122 109.38L340.129 118.325C339.648 118.65 333.834 120.038 333.111 120.186C332.117 120.391 331.08 120.466 330.098 120.694L330.085 112.58C330.086 112.203 330.118 111.795 330.069 111.423L325.144 111.415C325.03 112.475 325.122 113.645 325.121 114.717L325.12 121.394C324.077 121.557 322.893 121.465 321.828 121.483ZM317.628 17.0666C296.196 18.6333 280.567 37.7353 282.185 58.8165L282.768 63.078C283.993 70.2765 287.613 76.99 292.435 82.4137C292.815 82.842 294.586 84.5757 294.596 85.002L294.467 97.911L299.881 97.9195L299.936 95.8692C299.939 95.5405 299.887 95.1222 299.981 94.811L310.001 94.8203L309.909 100.263L313.981 100.271C314.373 100.269 315.048 100.353 315.393 100.226L315.435 94.795L322.344 94.8187L324.707 94.8672C324.812 96.3418 324.546 99.0225 324.786 100.258L330.07 100.29L330.111 94.7905L340.133 94.7908L340.129 97.9735L343.844 97.9265C344.374 97.9245 344.97 97.978 345.488 97.8893L345.555 85.789C345.581 84.6172 345.805 84.4875 346.588 83.602L348.072 81.8765C354.545 73.974 357.895 65.745 357.888 55.58C357.878 40.6435 349.249 26.7005 335.544 20.4926C331.526 18.6727 327.225 17.3751 322.803 17.108L317.628 17.0666Z"/>
	<path fill="#352208" d="M321.094 85.6165L310.07 85.6107C307.324 85.588 304.486 84.0165 304.098 81.0943C303.621 77.5095 305.325 76.6268 301.122 75.2793C298.898 74.566 296.68 73.8762 294.937 72.232C289.923 67.502 287.877 58.1052 288.33 51.2812C288.808 44.091 292.101 36.666 297.156 31.4688C302.574 25.897 311.284 22.021 319.159 21.9199L321.989 21.9402C338.902 22.9154 352.342 37.535 351.758 54.4622C351.662 57.245 351.171 59.7478 350.38 62.4168C348.57 68.5242 345.915 73.1827 339.619 75.1042C338.755 75.3678 336.203 75.9073 336.041 77.0657L336.031 77.1562C335.82 78.7518 336.053 80.496 335.412 82.0023C334.44 84.2845 332.229 85.5842 329.818 85.6115L321.094 85.6165ZM305.855 44.5285C303.769 44.631 301.993 45.4663 300.577 47.0123C296.11 51.8897 300.274 60.4768 306.794 60.1315C308.947 59.8735 310.757 58.8032 312.099 57.0945C316.15 51.9353 312.489 44.5307 305.855 44.5285ZM333.692 44.528C331.55 44.6568 329.784 45.4507 328.351 47.0757C323.868 52.1598 327.333 59.9285 333.975 60.0832C340.66 59.8805 343.803 51.0487 338.837 46.5183C337.423 45.2275 335.624 44.4477 333.692 44.528ZM319.131 66.704C313.214 68.0055 313.244 76.1795 318.969 76.2465L320.89 76.248C321.969 76.321 322.861 75.9728 323.672 75.2695C327.135 72.268 324.233 66.8053 320.089 66.6697L319.131 66.704Z"/>
	<path fill="#352208" d="M446.172 6.5175L453.08 6.60675C452.808 7.6415 452.947 8.98475 452.945 10.0523L452.919 16.6197L457.853 16.6492L457.893 7.1975C460.385 7.64625 462.836 8.16575 465.268 8.878L468.226 9.86475L468.202 18.5845C468.778 18.6778 469.469 18.6115 470.058 18.613L473.684 18.6042L473.66 11.0945C473.944 11.259 474.269 11.2818 474.574 11.3965L481.531 14.7032C482.511 15.1882 483.572 15.5978 484.513 16.149L484.479 33.8448C484.48 34.4988 484.368 38.7768 484.493 39.036C484.588 39.232 484.878 39.4245 485.029 39.591L488.837 44.6863C500.183 61.8015 499.642 84.8512 487.76 101.523C479.363 113.306 465.049 121.584 450.514 122.109L446.57 122.128C443.126 122.114 439.593 121.562 436.259 120.715C426.769 118.304 418.472 113.083 411.869 105.939C395.873 88.6317 394.656 61.3803 408.627 42.545L410.047 40.6358C410.38 40.1912 410.714 39.713 411.125 39.3388L411.3 39.1753C411.791 38.66 411.491 37.0072 411.49 36.327L411.461 15.9802C411.692 15.7067 412 15.6787 412.318 15.547L419.488 12.2682L422.31 11.2687L422.247 18.5747L427.878 18.6197L427.871 9.675C428.352 9.35025 434.166 7.96225 434.889 7.81375C435.883 7.609 436.92 7.5335 437.902 7.30575L437.915 15.4202C437.914 15.797 437.882 16.205 437.931 16.5773L442.856 16.585C442.97 15.5245 442.878 14.3545 442.879 13.2827L442.88 6.60625C443.923 6.44275 445.107 6.53525 446.172 6.5175ZM450.372 110.933C471.804 109.367 487.432 90.2647 485.816 69.1835L485.232 64.922C484.007 57.7235 480.387 51.01 475.565 45.5863C475.185 45.158 473.414 43.4243 473.404 42.998L473.533 30.089L468.119 30.0805L468.064 32.1308C468.061 32.4595 468.113 32.8778 468.019 33.189L457.999 33.1797L458.091 27.7375L454.019 27.7292C453.627 27.731 452.952 27.647 452.607 27.7742L452.565 33.205L445.656 33.1813L443.293 33.1328C443.188 31.6582 443.454 28.9775 443.214 27.7415L437.93 27.7105L437.889 33.2095L427.867 33.2092L427.871 30.0265L424.156 30.0735C423.626 30.0755 423.03 30.022 422.512 30.1107L422.445 42.211C422.419 43.3828 422.195 43.5125 421.412 44.398L419.928 46.1235C413.455 54.026 410.105 62.255 410.112 72.42C410.122 87.3565 418.751 101.299 432.456 107.507C436.474 109.327 440.775 110.625 445.197 110.892L450.372 110.933Z"/>
	<path fill="#352208" d="M446.906 42.3835L457.93 42.3893C460.677 42.412 463.514 43.9835 463.902 46.9057C464.379 50.4905 462.675 51.3732 466.878 52.7207C469.102 53.434 471.32 54.1238 473.063 55.768C478.077 60.498 480.123 69.8948 479.67 76.7188C479.192 83.909 475.899 91.334 470.844 96.5312C465.426 102.103 456.716 105.979 448.841 106.08L446.011 106.06C429.098 105.085 415.658 90.465 416.242 73.5378C416.338 70.755 416.829 68.2523 417.62 65.5832C419.43 59.4758 422.085 54.8173 428.381 52.8958C429.245 52.6322 431.797 52.0927 431.959 50.9343L431.969 50.8438C432.18 49.2482 431.947 47.504 432.588 45.9977C433.56 43.7155 435.771 42.4158 438.182 42.3885L446.906 42.3835ZM462.145 83.4715C464.231 83.369 466.007 82.5337 467.423 80.9878C471.89 76.1103 467.726 67.5232 461.206 67.8685C459.053 68.1265 457.243 69.1968 455.901 70.9055C451.85 76.0648 455.511 83.4693 462.145 83.4715ZM434.308 83.472C436.45 83.3432 438.216 82.5493 439.649 80.9243C444.132 75.8402 440.667 68.0715 434.026 67.9168C427.34 68.1195 424.197 76.9513 429.163 81.4818C430.577 82.7725 432.376 83.5523 434.308 83.472ZM448.869 61.296C454.786 59.9945 454.756 51.8205 449.031 51.7535L447.11 51.752C446.031 51.679 445.139 52.0272 444.328 52.7305C440.865 55.732 443.767 61.1947 447.911 61.3303L448.869 61.296Z"/>
	<path fill="#352208" d="M-1.828 134.518L5.08 134.607C4.8075 135.642 4.9465 136.985 4.9447 138.052L4.9188 144.62L9.853 144.649L9.8932 135.197C12.3847 135.646 14.8363 136.166 17.268 136.878L20.2265 137.865L20.202 146.584C20.7777 146.678 21.4688 146.612 22.0575 146.613L25.6842 146.604L25.6598 139.095C25.9442 139.259 26.2687 139.282 26.5743 139.397L33.5305 142.703C34.5113 143.188 35.572 143.598 36.513 144.149L36.479 161.845C36.48 162.499 36.368 166.777 36.493 167.036C36.588 167.232 36.878 167.424 37.029 167.591L40.837 172.686C52.183 189.802 51.642 212.851 39.76 229.523C31.363 241.306 17.049 249.584 2.5145 250.109L-1.4305 250.128C-4.8743 250.114 -8.4068 249.562 -11.741 248.715C-21.231 246.304 -29.5282 241.083 -36.131 233.939C-52.1268 216.632 -53.3438 189.38 -39.3732 170.545L-37.953 168.636C-37.6205 168.191 -37.2865 167.713 -36.8752 167.339L-36.7 167.175C-36.2095 166.66 -36.509 165.007 -36.51 164.327L-36.539 143.98C-36.3077 143.707 -36 143.679 -35.682 143.547L-28.5125 140.268L-25.6903 139.269L-25.7532 146.575L-20.1218 146.62L-20.1287 137.675C-19.6483 137.35 -13.8337 135.962 -13.1115 135.814C-12.1167 135.609 -11.0803 135.534 -10.0978 135.306L-10.0853 143.42C-10.0863 143.797 -10.1178 144.205 -10.0692 144.577L-5.1445 144.585C-5.03 143.524 -5.122 142.355 -5.1215 141.283L-5.12 134.606C-4.0768 134.443 -2.8932 134.535 -1.828 134.518ZM2.3723 238.933C23.8042 237.367 39.432 218.265 37.816 197.183L37.232 192.922C36.007 185.724 32.3865 179.01 27.5655 173.586C27.185 173.158 25.414 171.424 25.404 170.998L25.5333 158.089L20.119 158.081L20.0637 160.131C20.0607 160.459 20.1128 160.878 20.0195 161.189L9.9988 161.18L10.0905 155.738L6.0195 155.729C5.6268 155.731 4.9522 155.647 4.607 155.774L4.5652 161.205L-2.3438 161.181L-4.7075 161.133C-4.8123 159.658 -4.5457 156.977 -4.786 155.742L-10.07 155.71L-10.1115 161.209L-20.1328 161.209L-20.1285 158.026L-23.8438 158.073C-24.3738 158.076 -24.9702 158.022 -25.4878 158.111L-25.555 170.211C-25.5812 171.383 -25.8053 171.512 -26.5877 172.398L-28.0725 174.124C-34.5447 182.026 -37.8948 190.255 -37.888 200.42C-37.878 215.356 -29.249 229.299 -15.544 235.507C-11.5263 237.327 -7.2253 238.625 -2.8033 238.892L2.3723 238.933Z"/>
	<path fill="#352208" d="M-1.0938 170.383L9.9297 170.389C12.6765 170.412 15.5135 171.983 15.9023 174.906C16.3792 178.49 14.6755 179.373 18.8777 180.721C21.1022 181.434 23.3197 182.124 25.063 183.768C30.0772 188.498 32.1225 197.895 31.6697 204.719C31.1925 211.909 27.8985 219.334 22.8443 224.531C17.4257 230.103 8.7155 233.979 0.841 234.08L-1.9892 234.06C-18.9018 233.085 -32.3425 218.465 -31.758 201.538C-31.6617 198.755 -31.171 196.252 -30.3798 193.583C-28.5695 187.476 -25.915 182.817 -19.6188 180.896C-18.7555 180.632 -16.203 180.093 -16.0408 178.934L-16.0305 178.844C-15.8203 177.248 -16.0533 175.504 -15.412 173.998C-14.4403 171.715 -12.2292 170.416 -9.8178 170.388L-1.0938 170.383ZM14.1453 211.471C16.2308 211.369 18.0067 210.534 19.423 208.988C23.8905 204.11 19.7255 195.523 13.2057 195.868C11.053 196.126 9.2433 197.197 7.9015 198.906C3.8503 204.065 7.5108 211.469 14.1453 211.471ZM-13.6923 211.472C-11.55 211.343 -9.7837 210.549 -8.351 208.924C-3.868 203.84 -7.3328 196.072 -13.9745 195.917C-20.6603 196.12 -23.8035 204.951 -18.8375 209.482C-17.4227 210.772 -15.6238 211.552 -13.6923 211.472ZM0.8692 189.296C6.7858 187.995 6.7558 179.821 1.0312 179.754L-0.8905 179.752C-1.9685 179.679 -2.8607 180.027 -3.6723 180.731C-7.1355 183.732 -4.2332 189.195 -0.0895 189.33L0.8692 189.296Z"/>
	<path fill="#352208" d="M129.828 249.483L122.92 249.393C123.192 248.359 123.053 247.015 123.055 245.948L123.081 239.38L118.147 239.351L118.107 248.802C115.615 248.354 113.164 247.834 110.732 247.122L107.773 246.135L107.798 237.415C107.222 237.322 106.531 237.388 105.942 237.387L102.316 237.396L102.34 244.906C102.056 244.741 101.731 244.718 101.426 244.603L94.4695 241.297C93.4887 240.812 92.428 240.402 91.4868 239.851L91.5207 222.155C91.5205 221.501 91.632 217.223 91.507 216.964C91.4125 216.768 91.1223 216.576 90.971 216.409L87.1634 211.314C75.8174 194.198 76.3585 171.149 88.2399 154.476C96.637 142.694 110.951 134.416 125.486 133.891L129.43 133.872C132.874 133.886 136.407 134.438 139.741 135.285C149.231 137.696 157.528 142.917 164.131 150.061C180.127 167.368 181.344 194.62 167.373 213.455L165.953 215.364C165.621 215.809 165.287 216.287 164.875 216.661L164.7 216.825C164.21 217.34 164.509 218.993 164.51 219.673L164.539 240.02C164.308 240.293 164 240.321 163.682 240.453L156.512 243.732L153.69 244.731L153.753 237.425L148.122 237.38L148.129 246.325C147.648 246.65 141.834 248.038 141.112 248.186C140.117 248.391 139.08 248.466 138.098 248.694L138.085 240.58C138.086 240.203 138.118 239.795 138.069 239.423L133.144 239.415C133.03 240.475 133.122 241.645 133.121 242.717L133.12 249.394C132.077 249.557 130.893 249.465 129.828 249.483ZM125.628 145.067C104.196 146.633 88.5675 165.735 90.1845 186.816L90.7677 191.078C91.993 198.276 95.6135 204.99 100.434 210.414C100.815 210.842 102.586 212.576 102.596 213.002L102.467 225.911L107.881 225.919L107.936 223.869C107.939 223.541 107.887 223.122 107.981 222.811L118.001 222.82L117.91 228.263L121.981 228.271C122.373 228.269 123.048 228.353 123.393 228.226L123.435 222.795L130.344 222.819L132.707 222.867C132.812 224.342 132.546 227.022 132.786 228.258L138.07 228.29L138.112 222.791L148.133 222.791L148.129 225.974L151.844 225.927C152.374 225.924 152.97 225.978 153.488 225.889L153.555 213.789C153.581 212.617 153.805 212.488 154.588 211.602L156.072 209.876C162.545 201.974 165.895 193.745 165.888 183.58C165.878 168.644 157.249 154.701 143.544 148.493C139.526 146.673 135.225 145.375 130.803 145.108L125.628 145.067Z"/>
	<path fill="#352208" d="M129.094 213.617L118.07 213.611C115.323 213.588 112.487 212.017 112.098 209.094C111.621 205.51 113.325 204.627 109.122 203.279C106.898 202.566 104.68 201.876 102.937 200.232C97.9228 195.502 95.8775 186.105 96.3302 179.281C96.8075 172.091 100.102 164.666 105.156 159.469C110.574 153.897 119.285 150.021 127.159 149.92L129.989 149.94C146.902 150.915 160.343 165.535 159.758 182.462C159.662 185.245 159.171 187.748 158.38 190.417C156.57 196.524 153.915 201.183 147.619 203.104C146.755 203.368 144.203 203.907 144.041 205.066L144.031 205.156C143.82 206.752 144.053 208.496 143.412 210.002C142.44 212.284 140.229 213.584 137.818 213.612L129.094 213.617ZM113.855 172.529C111.769 172.631 109.993 173.466 108.577 175.012C104.109 179.89 108.275 188.477 114.794 188.132C116.947 187.874 118.757 186.803 120.099 185.094C124.15 179.935 120.489 172.531 113.855 172.529ZM141.692 172.528C139.55 172.657 137.784 173.451 136.351 175.076C131.868 180.16 135.333 187.928 141.975 188.083C148.66 187.88 151.803 179.049 146.838 174.518C145.423 173.227 143.624 172.448 141.692 172.528ZM127.131 194.704C121.214 196.005 121.244 204.18 126.969 204.246L128.891 204.248C129.969 204.321 130.861 203.973 131.672 203.269C135.135 200.268 132.233 194.805 128.089 194.67L127.131 194.704Z"/>
	<path fill="#352208" d="M254.172 134.518L261.08 134.607C260.808 135.642 260.947 136.985 260.945 138.052L260.919 144.62L265.853 144.649L265.893 135.197C268.385 135.646 270.836 136.166 273.268 136.878L276.226 137.865L276.202 146.584C276.778 146.678 277.469 146.612 278.058 146.613L281.684 146.604L281.66 139.095C281.944 139.259 282.269 139.282 282.574 139.397L289.531 142.703C290.511 143.188 291.572 143.598 292.513 144.149L292.479 161.845C292.48 162.499 292.368 166.777 292.493 167.036C292.588 167.232 292.878 167.424 293.029 167.591L296.837 172.686C308.183 189.802 307.642 212.851 295.76 229.523C287.363 241.306 273.049 249.584 258.514 250.109L254.57 250.128C251.126 250.114 247.593 249.562 244.259 248.715C234.769 246.304 226.472 241.083 219.869 233.939C203.873 216.632 202.656 189.38 216.627 170.545L218.047 168.636C218.38 168.191 218.714 167.713 219.125 167.339L219.3 167.175C219.791 166.66 219.491 165.007 219.49 164.327L219.461 143.98C219.692 143.707 220 143.679 220.318 143.547L227.488 140.268L230.31 139.269L230.247 146.575L235.878 146.62L235.871 137.675C236.352 137.35 242.166 135.962 242.888 135.814C243.883 135.609 244.92 135.534 245.902 135.306L245.915 143.42C245.914 143.797 245.882 144.205 245.931 144.577L250.856 144.585C250.97 143.524 250.878 142.355 250.879 141.283L250.88 134.606C251.923 134.443 253.107 134.535 254.172 134.518ZM258.372 238.933C279.804 237.367 295.432 218.265 293.816 197.183L293.232 192.922C292.007 185.724 288.387 179.01 283.565 173.586C283.185 173.158 281.414 171.424 281.404 170.998L281.533 158.089L276.119 158.081L276.064 160.131C276.061 160.459 276.113 160.878 276.019 161.189L265.999 161.18L266.091 155.738L262.019 155.729C261.627 155.731 260.952 155.647 260.607 155.774L260.565 161.205L253.656 161.181L251.292 161.133C251.188 159.658 251.454 156.977 251.214 155.742L245.93 155.71L245.888 161.209L235.867 161.209L235.871 158.026L232.156 158.073C231.626 158.076 231.03 158.022 230.512 158.111L230.445 170.211C230.419 171.383 230.195 171.512 229.412 172.398L227.928 174.124C221.455 182.026 218.105 190.255 218.112 200.42C218.122 215.356 226.751 229.299 240.456 235.507C244.474 237.327 248.775 238.625 253.197 238.892L258.372 238.933Z"/>
	<path fill="#352208" d="M254.906 170.383L265.93 170.389C268.677 170.412 271.514 171.983 271.902 174.906C272.379 178.49 270.675 179.373 274.878 180.721C277.102 181.434 279.32 182.124 281.063 183.768C286.077 188.498 288.123 197.895 287.67 204.719C287.192 211.909 283.899 219.334 278.844 224.531C273.426 230.103 264.716 233.979 256.841 234.08L254.011 234.06C237.098 233.085 223.657 218.465 224.242 201.538C224.338 198.755 224.829 196.252 225.62 193.583C227.43 187.476 230.085 182.817 236.381 180.896C237.245 180.632 239.797 180.093 239.959 178.934L239.969 178.844C240.18 177.248 239.947 175.504 240.588 173.998C241.56 171.715 243.771 170.416 246.182 170.388L254.906 170.383ZM270.145 211.471C272.231 211.369 274.007 210.534 275.423 208.988C279.89 204.11 275.726 195.523 269.206 195.868C267.053 196.126 265.243 197.197 263.901 198.906C259.85 204.065 263.511 211.469 270.145 211.471ZM242.308 211.472C244.45 211.343 246.216 210.549 247.649 208.924C252.132 203.84 248.667 196.072 242.025 195.917C235.34 196.12 232.197 204.951 237.162 209.482C238.577 210.772 240.376 211.552 242.308 211.472ZM256.869 189.296C262.786 187.995 262.756 179.821 257.031 179.754L255.109 179.752C254.031 179.679 253.139 180.027 252.328 180.731C248.864 183.732 251.767 189.195 255.911 189.33L256.869 189.296Z"/>
	<path fill="#352208" d="M385.828 249.483L378.92 249.393C379.192 248.359 379.053 247.015 379.055 245.948L379.081 239.38L374.147 239.351L374.107 248.802C371.615 248.354 369.164 247.834 366.732 247.122L363.774 246.135L363.798 237.415C363.222 237.322 362.531 237.388 361.942 237.387L358.316 237.396L358.34 244.906C358.056 244.741 357.731 244.718 357.426 244.603L350.469 241.297C349.489 240.812 348.428 240.402 347.487 239.851L347.521 222.155C347.52 221.501 347.632 217.223 347.507 216.964C347.413 216.768 347.122 216.576 346.971 216.409L343.163 211.314C331.817 194.198 332.358 171.149 344.24 154.476C352.637 142.694 366.951 134.416 381.486 133.891L385.43 133.872C388.874 133.886 392.407 134.438 395.741 135.285C405.231 137.696 413.528 142.917 420.131 150.061C436.127 167.368 437.344 194.62 423.373 213.455L421.953 215.364C421.621 215.809 421.287 216.287 420.875 216.661L420.7 216.825C420.21 217.34 420.509 218.993 420.51 219.673L420.539 240.02C420.308 240.293 420 240.321 419.682 240.453L412.512 243.732L409.69 244.731L409.753 237.425L404.122 237.38L404.129 246.325C403.648 246.65 397.834 248.038 397.111 248.186C396.117 248.391 395.08 248.466 394.098 248.694L394.085 240.58C394.086 240.203 394.118 239.795 394.069 239.423L389.144 239.415C389.03 240.475 389.122 241.645 389.121 242.717L389.12 249.394C388.077 249.557 386.893 249.465 385.828 249.483ZM381.628 145.067C360.196 146.633 344.567 165.735 346.185 186.816L346.768 191.078C347.993 198.276 351.613 204.99 356.435 210.414C356.815 210.842 358.586 212.576 358.596 213.002L358.467 225.911L363.881 225.919L363.936 223.869C363.939 223.541 363.887 223.122 363.981 222.811L374.001 222.82L373.909 228.263L377.981 228.271C378.373 228.269 379.048 228.353 379.393 228.226L379.435 222.795L386.344 222.819L388.707 222.867C388.812 224.342 388.546 227.022 388.786 228.258L394.07 228.29L394.111 222.791L404.133 222.791L404.129 225.974L407.844 225.927C408.374 225.924 408.97 225.978 409.488 225.889L409.555 213.789C409.581 212.617 409.805 212.488 410.588 211.602L412.072 209.876C418.545 201.974 421.895 193.745 421.888 183.58C421.878 168.644 413.249 154.701 399.544 148.493C395.526 146.673 391.225 145.375 386.803 145.108L381.628 145.067Z"/>
	<path fill="#352208" d="M385.094 213.617L374.07 213.611C371.324 213.588 368.486 212.017 368.098 209.094C367.621 205.51 369.325 204.627 365.122 203.279C362.898 202.566 360.68 201.876 358.937 200.232C353.923 195.502 351.877 186.105 352.33 179.281C352.808 172.091 356.101 164.666 361.156 159.469C366.574 153.897 375.284 150.021 383.159 149.92L385.989 149.94C402.902 150.915 416.342 165.535 415.758 182.462C415.662 185.245 415.171 187.748 414.38 190.417C412.57 196.524 409.915 201.183 403.619 203.104C402.755 203.368 400.203 203.907 400.041 205.066L400.031 205.156C399.82 206.752 400.053 208.496 399.412 210.002C398.44 212.284 396.229 213.584 393.818 213.612L385.094 213.617ZM369.855 172.529C367.769 172.631 365.993 173.466 364.577 175.012C360.11 179.89 364.274 188.477 370.794 188.132C372.947 187.874 374.757 186.803 376.099 185.094C380.15 179.935 376.489 172.531 369.855 172.529ZM397.692 172.528C395.55 172.657 393.784 173.451 392.351 175.076C387.868 180.16 391.333 187.928 397.975 188.083C404.66 187.88 407.803 179.049 402.837 174.518C401.423 173.227 399.624 172.448 397.692 172.528ZM383.131 194.704C377.214 196.005 377.244 204.18 382.969 204.246L384.89 204.248C385.969 204.321 386.861 203.973 387.672 203.269C391.135 200.268 388.233 194.805 384.089 194.67L383.131 194.704Z"/>
	<path fill="#352208" d="M510.172 134.518L517.08 134.607C516.808 135.642 516.947 136.985 516.945 138.052L516.919 144.62L521.853 144.649L521.893 135.197C524.385 135.646 526.836 136.166 529.268 136.878L532.226 137.865L532.202 146.584C532.778 146.678 533.469 146.612 534.058 146.613L537.684 146.604L537.66 139.095C537.944 139.259 538.269 139.282 538.574 139.397L545.53 142.703C546.511 143.188 547.572 143.598 548.513 144.149L548.479 161.845C548.48 162.499 548.368 166.777 548.493 167.036C548.588 167.232 548.878 167.424 549.029 167.591L552.837 172.686C564.183 189.802 563.642 212.851 551.76 229.523C543.363 241.306 529.049 249.584 514.514 250.109L510.57 250.128C507.126 250.114 503.593 249.562 500.259 248.715C490.769 246.304 482.472 241.083 475.869 233.939C459.873 216.632 458.656 189.38 472.627 170.545L474.047 168.636C474.38 168.191 474.714 167.713 475.125 167.339L475.3 167.175C475.791 166.66 475.491 165.007 475.49 164.327L475.461 143.98C475.692 143.707 476 143.679 476.318 143.547L483.488 140.268L486.31 139.269L486.247 146.575L491.878 146.62L491.871 137.675C492.352 137.35 498.166 135.962 498.889 135.814C499.883 135.609 500.92 135.534 501.902 135.306L501.915 143.42C501.914 143.797 501.882 144.205 501.931 144.577L506.856 144.585C506.97 143.524 506.878 142.355 506.879 141.283L506.88 134.606C507.923 134.443 509.107 134.535 510.172 134.518ZM514.372 238.933C535.804 237.367 551.432 218.265 549.816 197.183L549.232 192.922C548.007 185.724 544.386 179.01 539.566 173.586C539.185 173.158 537.414 171.424 537.404 170.998L537.533 158.089L532.119 158.081L532.064 160.131C532.061 160.459 532.113 160.878 532.019 161.189L521.999 161.18L522.091 155.738L518.019 155.729C517.627 155.731 516.952 155.647 516.607 155.774L516.565 161.205L509.656 161.181L507.293 161.133C507.188 159.658 507.454 156.977 507.214 155.742L501.93 155.71L501.889 161.209L491.867 161.209L491.871 158.026L488.156 158.073C487.626 158.076 487.03 158.022 486.512 158.111L486.445 170.211C486.419 171.383 486.195 171.512 485.412 172.398L483.928 174.124C477.455 182.026 474.105 190.255 474.112 200.42C474.122 215.356 482.751 229.299 496.456 235.507C500.474 237.327 504.775 238.625 509.197 238.892L514.372 238.933Z"/>
	<path fill="#352208" d="M510.906 170.383L521.93 170.389C524.677 170.412 527.514 171.983 527.902 174.906C528.379 178.49 526.676 179.373 530.878 180.721C533.102 181.434 535.32 182.124 537.063 183.768C542.077 188.498 544.122 197.895 543.67 204.719C543.192 211.909 539.899 219.334 534.844 224.531C529.426 230.103 520.716 233.979 512.841 234.08L510.011 234.06C493.098 233.085 479.658 218.465 480.242 201.538C480.338 198.755 480.829 196.252 481.62 193.583C483.43 187.476 486.085 182.817 492.381 180.896C493.245 180.632 495.797 180.093 495.959 178.934L495.969 178.844C496.18 177.248 495.947 175.504 496.588 173.998C497.56 171.715 499.771 170.416 502.182 170.388L510.906 170.383ZM526.145 211.471C528.231 211.369 530.007 210.534 531.423 208.988C535.89 204.11 531.726 195.523 525.206 195.868C523.053 196.126 521.243 197.197 519.901 198.906C515.85 204.065 519.511 211.469 526.145 211.471ZM498.308 211.472C500.45 211.343 502.216 210.549 503.649 208.924C508.132 203.84 504.667 196.072 498.026 195.917C491.34 196.12 488.197 204.951 493.163 209.482C494.577 210.772 496.376 211.552 498.308 211.472ZM512.869 189.296C518.786 187.995 518.756 179.821 513.031 179.754L511.11 179.752C510.031 179.679 509.139 180.027 508.328 180.731C504.865 183.732 507.767 189.195 511.911 189.33L512.869 189.296Z"/>
	<path fill="#352208" d="M65.828 377.483L58.92 377.393C59.1925 376.359 59.0535 375.015 59.0553 373.948L59.0812 367.38L54.147 367.351L54.1067 376.802C51.6153 376.354 49.1638 375.834 46.732 375.122L43.7735 374.135L43.798 365.415C43.2223 365.322 42.5312 365.388 41.9425 365.387L38.3158 365.396L38.3402 372.906C38.0558 372.741 37.7313 372.718 37.4258 372.603L30.4695 369.297C29.4887 368.812 28.428 368.402 27.4868 367.851L27.5207 350.155C27.5205 349.501 27.632 345.223 27.507 344.964C27.4125 344.768 27.1223 344.576 26.971 344.409L23.1634 339.314C11.8174 322.198 12.3585 299.149 24.2399 282.476C32.637 270.694 46.951 262.416 61.4855 261.891L65.4305 261.872C68.8743 261.886 72.4068 262.438 75.741 263.285C85.231 265.696 93.5282 270.917 100.131 278.061C116.127 295.368 117.344 322.62 103.373 341.455L101.953 343.364C101.621 343.809 101.287 344.287 100.875 344.661L100.7 344.825C100.21 345.34 100.509 346.993 100.51 347.673L100.539 368.02C100.308 368.293 100 368.321 99.682 368.453L92.5125 371.732L89.6903 372.731L89.7532 365.425L84.1218 365.38L84.1287 374.325C83.6483 374.65 77.8337 376.038 77.1115 376.186C76.1167 376.391 75.0803 376.466 74.0978 376.694L74.0853 368.58C74.0863 368.203 74.1178 367.795 74.0692 367.423L69.1445 367.415C69.03 368.475 69.122 369.645 69.1215 370.717L69.12 377.394C68.0768 377.557 66.8932 377.465 65.828 377.483ZM61.6277 273.067C40.1957 274.633 24.5675 293.735 26.1845 314.817L26.7677 319.078C27.993 326.276 31.6135 332.99 36.4345 338.414C36.815 338.842 38.586 340.576 38.596 341.002L38.4667 353.911L43.881 353.919L43.9363 351.869C43.9393 351.541 43.8873 351.122 43.9805 350.811L54.0012 350.82L53.9095 356.263L57.9805 356.271C58.3732 356.269 59.0478 356.353 59.393 356.226L59.4348 350.795L66.3438 350.819L68.7075 350.867C68.8123 352.342 68.5457 355.022 68.786 356.258L74.07 356.29L74.1115 350.791L84.1328 350.791L84.1285 353.974L87.8438 353.927C88.3738 353.924 88.9702 353.978 89.4878 353.889L89.555 341.789C89.5812 340.617 89.8053 340.488 90.5877 339.602L92.0725 337.876C98.5447 329.974 101.895 321.745 101.888 311.58C101.878 296.644 93.249 282.7 79.544 276.493C75.5263 274.673 71.2253 273.375 66.8033 273.108L61.6277 273.067Z"/>
	<path fill="#352208" d="M65.0938 341.616L54.0703 341.611C51.3235 341.588 48.4865 340.017 48.0977 337.094C47.6208 333.51 49.3245 332.627 45.1223 331.279C42.8978 330.566 40.6803 329.876 38.937 328.232C33.9228 323.502 31.8775 314.105 32.3302 307.281C32.8075 300.091 36.1015 292.666 41.1557 287.469C46.5742 281.897 55.2845 278.021 63.159 277.92L65.9892 277.94C82.9018 278.915 96.3425 293.535 95.758 310.462C95.6617 313.245 95.171 315.748 94.3798 318.417C92.5695 324.524 89.915 329.183 83.6188 331.104C82.7555 331.368 80.203 331.907 80.0408 333.066L80.0305 333.156C79.8203 334.752 80.0533 336.496 79.412 338.002C78.4403 340.284 76.2292 341.584 73.8178 341.611L65.0938 341.616ZM49.8548 300.529C47.7692 300.631 45.9933 301.466 44.577 303.012C40.1095 307.89 44.2745 316.477 50.7942 316.132C52.947 315.873 54.7567 314.803 56.0985 313.094C60.1497 307.935 56.4892 300.531 49.8548 300.529ZM77.6923 300.528C75.55 300.657 73.7837 301.451 72.351 303.076C67.868 308.16 71.3328 315.928 77.9745 316.083C84.6603 315.88 87.8035 307.049 82.8375 302.518C81.4227 301.228 79.6238 300.448 77.6923 300.528ZM63.1307 322.704C57.2142 324.005 57.2443 332.18 62.9688 332.246L64.8905 332.248C65.9685 332.321 66.8607 331.973 67.6723 331.269C71.1355 328.268 68.2332 322.805 64.0895 322.67L63.1307 322.704Z"/>
	<path fill="#352208" d="M190.172 262.517L197.08 262.607C196.808 263.642 196.947 264.985 196.945 266.052L196.919 272.62L201.853 272.649L201.893 263.197C204.385 263.646 206.836 264.166 209.268 264.878L212.226 265.865L212.202 274.584C212.778 274.678 213.469 274.611 214.058 274.613L217.684 274.604L217.66 267.094C217.944 267.259 218.269 267.282 218.574 267.397L225.531 270.703C226.511 271.188 227.572 271.598 228.513 272.149L228.479 289.845C228.48 290.499 228.368 294.777 228.493 295.036C228.588 295.232 228.878 295.425 229.029 295.591L232.837 300.686C244.183 317.801 243.642 340.851 231.76 357.523C223.363 369.306 209.049 377.584 194.514 378.109L190.57 378.128C187.126 378.114 183.593 377.562 180.259 376.715C170.769 374.304 162.472 369.083 155.869 361.939C139.873 344.632 138.656 317.38 152.627 298.545L154.047 296.636C154.38 296.191 154.714 295.713 155.125 295.339L155.3 295.175C155.791 294.66 155.491 293.007 155.49 292.327L155.461 271.98C155.692 271.707 156 271.679 156.318 271.547L163.488 268.268L166.31 267.269L166.247 274.575L171.878 274.62L171.871 265.675C172.352 265.35 178.166 263.962 178.888 263.814C179.883 263.609 180.92 263.534 181.902 263.306L181.915 271.42C181.914 271.797 181.882 272.205 181.931 272.577L186.856 272.585C186.97 271.524 186.878 270.354 186.879 269.283L186.88 262.606C187.923 262.443 189.107 262.535 190.172 262.517ZM194.372 366.933C215.804 365.367 231.432 346.265 229.816 325.183L229.232 320.922C228.007 313.724 224.387 307.01 219.565 301.586C219.185 301.158 217.414 299.424 217.404 298.998L217.533 286.089L212.119 286.081L212.064 288.131C212.061 288.459 212.113 288.878 212.019 289.189L201.999 289.18L202.091 283.738L198.019 283.729C197.627 283.731 196.952 283.647 196.607 283.774L196.565 289.205L189.656 289.181L187.292 289.133C187.188 287.658 187.454 284.978 187.214 283.741L181.93 283.711L181.888 289.209L171.867 289.209L171.871 286.026L168.156 286.074C167.626 286.075 167.03 286.022 166.512 286.111L166.445 298.211C166.419 299.383 166.195 299.512 165.412 300.398L163.928 302.123C157.455 310.026 154.105 318.255 154.112 328.42C154.122 343.356 162.751 357.299 176.456 363.507C180.474 365.327 184.775 366.625 189.197 366.892L194.372 366.933Z"/>
	<path fill="#352208" d="M190.906 298.384L201.93 298.389C204.677 298.412 207.513 299.983 207.902 302.906C208.379 306.49 206.675 307.373 210.878 308.721C213.102 309.434 215.32 310.124 217.063 311.768C222.077 316.498 224.123 325.895 223.67 332.719C223.192 339.909 219.899 347.334 214.844 352.531C209.426 358.103 200.716 361.979 192.841 362.08L190.011 362.06C173.098 361.085 159.657 346.465 160.242 329.538C160.338 326.755 160.829 324.252 161.62 321.583C163.43 315.476 166.085 310.817 172.381 308.896C173.245 308.632 175.797 308.093 175.959 306.934L175.969 306.844C176.18 305.248 175.947 303.504 176.588 301.998C177.56 299.716 179.771 298.416 182.182 298.389L190.906 298.384ZM206.145 339.471C208.231 339.369 210.007 338.534 211.423 336.988C215.891 332.11 211.726 323.523 205.206 323.868C203.053 324.126 201.243 325.197 199.901 326.906C195.85 332.065 199.511 339.469 206.145 339.471ZM178.308 339.472C180.45 339.343 182.216 338.549 183.649 336.924C188.132 331.84 184.667 324.072 178.025 323.917C171.34 324.12 168.197 332.951 173.162 337.482C174.577 338.772 176.376 339.552 178.308 339.472ZM192.869 317.296C198.786 315.995 198.756 307.82 193.031 307.754L191.109 307.752C190.031 307.679 189.139 308.027 188.328 308.731C184.864 311.732 187.767 317.195 191.911 317.33L192.869 317.296Z"/>
	<path fill="#352208" d="M321.828 377.483L314.92 377.393C315.192 376.359 315.053 375.015 315.055 373.948L315.081 367.38L310.147 367.351L310.107 376.802C307.615 376.354 305.164 375.834 302.732 375.122L299.774 374.135L299.798 365.415C299.222 365.322 298.531 365.388 297.942 365.387L294.316 365.396L294.34 372.906C294.056 372.741 293.731 372.718 293.426 372.603L286.469 369.297C285.489 368.812 284.428 368.402 283.487 367.851L283.521 350.155C283.52 349.501 283.632 345.223 283.507 344.964C283.413 344.768 283.122 344.576 282.971 344.409L279.163 339.314C267.817 322.198 268.358 299.149 280.24 282.476C288.637 270.694 302.951 262.416 317.486 261.891L321.43 261.872C324.874 261.886 328.407 262.438 331.741 263.285C341.231 265.696 349.528 270.917 356.131 278.061C372.127 295.368 373.344 322.62 359.373 341.455L357.953 343.364C357.621 343.809 357.287 344.287 356.875 344.661L356.7 344.825C356.21 345.34 356.509 346.993 356.51 347.673L356.539 368.02C356.308 368.293 356 368.321 355.682 368.453L348.512 371.732L345.69 372.731L345.753 365.425L340.122 365.38L340.129 374.325C339.648 374.65 333.834 376.038 333.111 376.186C332.117 376.391 331.08 376.466 330.098 376.694L330.085 368.58C330.086 368.203 330.118 367.795 330.069 367.423L325.144 367.415C325.03 368.475 325.122 369.645 325.121 370.717L325.12 377.394C324.077 377.557 322.893 377.465 321.828 377.483ZM317.628 273.067C296.196 274.633 280.567 293.735 282.185 314.817L282.768 319.078C283.993 326.276 287.613 332.99 292.435 338.414C292.815 338.842 294.586 340.576 294.596 341.002L294.467 353.911L299.881 353.919L299.936 351.869C299.939 351.541 299.887 351.122 299.981 350.811L310.001 350.82L309.909 356.263L313.981 356.271C314.373 356.269 315.048 356.353 315.393 356.226L315.435 350.795L322.344 350.819L324.707 350.867C324.812 352.342 324.546 355.022 324.786 356.258L330.07 356.29L330.111 350.791L340.133 350.791L340.129 353.974L343.844 353.927C344.374 353.924 344.97 353.978 345.488 353.889L345.555 341.789C345.581 340.617 345.805 340.488 346.588 339.602L348.072 337.876C354.545 329.974 357.895 321.745 357.888 311.58C357.878 296.644 349.249 282.7 335.544 276.493C331.526 274.673 327.225 273.375 322.803 273.108L317.628 273.067Z"/>
	<path fill="#352208" d="M321.094 341.616L310.07 341.611C307.324 341.588 304.486 340.017 304.098 337.094C303.621 333.51 305.325 332.627 301.122 331.279C298.898 330.566 296.68 329.876 294.937 328.232C289.923 323.502 287.877 314.105 288.33 307.281C288.808 300.091 292.101 292.666 297.156 287.469C302.574 281.897 311.284 278.021 319.159 277.92L321.989 277.94C338.902 278.915 352.342 293.535 351.758 310.462C351.662 313.245 351.171 315.748 350.38 318.417C348.57 324.524 345.915 329.183 339.619 331.104C338.755 331.368 336.203 331.907 336.041 333.066L336.031 333.156C335.82 334.752 336.053 336.496 335.412 338.002C334.44 340.284 332.229 341.584 329.818 341.611L321.094 341.616ZM305.855 300.529C303.769 300.631 301.993 301.466 300.577 303.012C296.11 307.89 300.274 316.477 306.794 316.132C308.947 315.873 310.757 314.803 312.099 313.094C316.15 307.935 312.489 300.531 305.855 300.529ZM333.692 300.528C331.55 300.657 329.784 301.451 328.351 303.076C323.868 308.16 327.333 315.928 333.975 316.083C340.66 315.88 343.803 307.049 338.837 302.518C337.423 301.228 335.624 300.448 333.692 300.528ZM319.131 322.704C313.214 324.005 313.244 332.18 318.969 332.246L320.89 332.248C321.969 332.321 322.861 331.973 323.672 331.269C327.135 328.268 324.233 322.805 320.089 322.67L319.131 322.704Z"/>
	<path fill="#352208" d="M446.172 262.517L453.08 262.607C452.808 263.642 452.947 264.985 452.945 266.052L452.919 272.62L457.853 272.649L457.893 263.197C460.385 263.646 462.836 264.166 465.268 264.878L468.226 265.865L468.202 274.584C468.778 274.678 469.469 274.611 470.058 274.613L473.684 274.604L473.66 267.094C473.944 267.259 474.269 267.282 474.574 267.397L481.531 270.703C482.511 271.188 483.572 271.598 484.513 272.149L484.479 289.845C484.48 290.499 484.368 294.777 484.493 295.036C484.588 295.232 484.878 295.425 485.029 295.591L488.837 300.686C500.183 317.801 499.642 340.851 487.76 357.523C479.363 369.306 465.049 377.584 450.514 378.109L446.57 378.128C443.126 378.114 439.593 377.562 436.259 376.715C426.769 374.304 418.472 369.083 411.869 361.939C395.873 344.632 394.656 317.38 408.627 298.545L410.047 296.636C410.38 296.191 410.714 295.713 411.125 295.339L411.3 295.175C411.791 294.66 411.491 293.007 411.49 292.327L411.461 271.98C411.692 271.707 412 271.679 412.318 271.547L419.488 268.268L422.31 267.269L422.247 274.575L427.878 274.62L427.871 265.675C428.352 265.35 434.166 263.962 434.889 263.814C435.883 263.609 436.92 263.534 437.902 263.306L437.915 271.42C437.914 271.797 437.882 272.205 437.931 272.577L442.856 272.585C442.97 271.524 442.878 270.354 442.879 269.283L442.88 262.606C443.923 262.443 445.107 262.535 446.172 262.517ZM450.372 366.933C471.804 365.367 487.432 346.265 485.816 325.183L485.232 320.922C484.007 313.724 480.387 307.01 475.565 301.586C475.185 301.158 473.414 299.424 473.404 298.998L473.533 286.089L468.119 286.081L468.064 288.131C468.061 288.459 468.113 288.878 468.019 289.189L457.999 289.18L458.091 283.738L454.019 283.729C453.627 283.731 452.952 283.647 452.607 283.774L452.565 289.205L445.656 289.181L443.293 289.133C443.188 287.658 443.454 284.978 443.214 283.741L437.93 283.711L437.889 289.209L427.867 289.209L427.871 286.026L424.156 286.074C423.626 286.075 423.03 286.022 422.512 286.111L422.445 298.211C422.419 299.383 422.195 299.512 421.412 300.398L419.928 302.123C413.455 310.026 410.105 318.255 410.112 328.42C410.122 343.356 418.751 357.299 432.456 363.507C436.474 365.327 440.775 366.625 445.197 366.892L450.372 366.933Z"/>
	<path fill="#352208" d="M446.906 298.384L457.93 298.389C460.677 298.412 463.514 299.983 463.902 302.906C464.379 306.49 462.675 307.373 466.878 308.721C469.102 309.434 471.32 310.124 473.063 311.768C478.077 316.498 480.123 325.895 479.67 332.719C479.192 339.909 475.899 347.334 470.844 352.531C465.426 358.103 456.716 361.979 448.841 362.08L446.011 362.06C429.098 361.085 415.658 346.465 416.242 329.538C416.338 326.755 416.829 324.252 417.62 321.583C419.43 315.476 422.085 310.817 428.381 308.896C429.245 308.632 431.797 308.093 431.959 306.934L431.969 306.844C432.18 305.248 431.947 303.504 432.588 301.998C433.56 299.716 435.771 298.416 438.182 298.389L446.906 298.384ZM462.145 339.471C464.231 339.369 466.007 338.534 467.423 336.988C471.89 332.11 467.726 323.523 461.206 323.868C459.053 324.126 457.243 325.197 455.901 326.906C451.85 332.065 455.511 339.469 462.145 339.471ZM434.308 339.472C436.45 339.343 438.216 338.549 439.649 336.924C444.132 331.84 440.667 324.072 434.026 323.917C427.34 324.12 424.197 332.951 429.163 337.482C430.577 338.772 432.376 339.552 434.308 339.472ZM448.869 317.296C454.786 315.995 454.756 307.82 449.031 307.754L447.11 307.752C446.031 307.679 445.139 308.027 444.328 308.731C440.865 311.732 443.767 317.195 447.911 317.33L448.869 317.296Z"/>
	<path fill="#352208" d="M-1.828 390.517L5.08 390.607C4.8075 391.642 4.9465 392.985 4.9447 394.052L4.9188 400.62L9.853 400.649L9.8932 391.197C12.3847 391.646 14.8363 392.166 17.268 392.878L20.2265 393.865L20.202 402.584C20.7777 402.678 21.4688 402.611 22.0575 402.613L25.6842 402.604L25.6598 395.094C25.9442 395.259 26.2687 395.282 26.5743 395.397L33.5305 398.703C34.5113 399.188 35.572 399.598 36.513 400.149L36.479 417.845C36.48 418.499 36.368 422.777 36.493 423.036C36.588 423.232 36.878 423.425 37.029 423.591L40.837 428.686C52.183 445.801 51.642 468.851 39.76 485.523C31.363 497.306 17.049 505.584 2.5145 506.109L-1.4305 506.128C-4.8743 506.114 -8.4068 505.562 -11.741 504.715C-21.231 502.304 -29.5282 497.083 -36.131 489.939C-52.1268 472.632 -53.3438 445.38 -39.3732 426.545L-37.953 424.636C-37.6205 424.191 -37.2865 423.713 -36.8752 423.339L-36.7 423.175C-36.2095 422.66 -36.509 421.007 -36.51 420.327L-36.539 399.98C-36.3077 399.707 -36 399.679 -35.682 399.547L-28.5125 396.268L-25.6903 395.269L-25.7532 402.575L-20.1218 402.62L-20.1287 393.675C-19.6483 393.35 -13.8337 391.962 -13.1115 391.814C-12.1167 391.609 -11.0803 391.534 -10.0978 391.306L-10.0853 399.42C-10.0863 399.797 -10.1178 400.205 -10.0692 400.577L-5.1445 400.585C-5.03 399.524 -5.122 398.354 -5.1215 397.283L-5.12 390.606C-4.0768 390.443 -2.8932 390.535 -1.828 390.517ZM2.3723 494.933C23.8042 493.367 39.432 474.265 37.816 453.183L37.232 448.922C36.007 441.724 32.3865 435.01 27.5655 429.586C27.185 429.158 25.414 427.424 25.404 426.998L25.5333 414.089L20.119 414.081L20.0637 416.131C20.0607 416.459 20.1128 416.878 20.0195 417.189L9.9988 417.18L10.0905 411.738L6.0195 411.729C5.6268 411.731 4.9522 411.647 4.607 411.774L4.5652 417.205L-2.3438 417.181L-4.7075 417.133C-4.8123 415.658 -4.5457 412.978 -4.786 411.741L-10.07 411.711L-10.1115 417.209L-20.1328 417.209L-20.1285 414.026L-23.8438 414.074C-24.3738 414.075 -24.9702 414.022 -25.4878 414.111L-25.555 426.211C-25.5812 427.383 -25.8053 427.512 -26.5877 428.398L-28.0725 430.123C-34.5447 438.026 -37.8948 446.255 -37.888 456.42C-37.878 471.356 -29.249 485.299 -15.544 491.507C-11.5263 493.327 -7.2253 494.625 -2.8033 494.892L2.3723 494.933Z"/>
	<path fill="#352208" d="M-1.0938 426.384L9.9297 426.389C12.6765 426.412 15.5135 427.983 15.9023 430.906C16.3792 434.49 14.6755 435.373 18.8777 436.721C21.1022 437.434 23.3197 438.124 25.063 439.768C30.0772 444.498 32.1225 453.895 31.6697 460.719C31.1925 467.909 27.8985 475.334 22.8443 480.531C17.4257 486.103 8.7155 489.979 0.841 490.08L-1.9892 490.06C-18.9018 489.085 -32.3425 474.465 -31.758 457.538C-31.6617 454.755 -31.171 452.252 -30.3798 449.583C-28.5695 443.476 -25.915 438.817 -19.6188 436.896C-18.7555 436.632 -16.203 436.093 -16.0408 434.934L-16.0305 434.844C-15.8203 433.248 -16.0533 431.504 -15.412 429.998C-14.4403 427.716 -12.2292 426.416 -9.8178 426.389L-1.0938 426.384ZM14.1453 467.471C16.2308 467.369 18.0067 466.534 19.423 464.988C23.8905 460.11 19.7255 451.523 13.2057 451.868C11.053 452.126 9.2433 453.197 7.9015 454.906C3.8503 460.065 7.5108 467.469 14.1453 467.471ZM-13.6923 467.472C-11.55 467.343 -9.7837 466.549 -8.351 464.924C-3.868 459.84 -7.3328 452.072 -13.9745 451.917C-20.6603 452.12 -23.8035 460.951 -18.8375 465.482C-17.4227 466.772 -15.6238 467.552 -13.6923 467.472ZM0.8692 445.296C6.7858 443.995 6.7558 435.82 1.0312 435.754L-0.8905 435.752C-1.9685 435.679 -2.8607 436.027 -3.6723 436.731C-7.1355 439.732 -4.2332 445.195 -0.0895 445.33L0.8692 445.296Z"/>
	<path fill="#352208" d="M129.828 505.483L122.92 505.393C123.192 504.359 123.053 503.015 123.055 501.948L123.081 495.38L118.147 495.351L118.107 504.802C115.615 504.354 113.164 503.834 110.732 503.122L107.773 502.135L107.798 493.415C107.222 493.322 106.531 493.388 105.942 493.387L102.316 493.396L102.34 500.906C102.056 500.741 101.731 500.718 101.426 500.603L94.4695 497.297C93.4887 496.812 92.428 496.402 91.4868 495.851L91.5207 478.155C91.5205 477.501 91.632 473.223 91.507 472.964C91.4125 472.768 91.1223 472.576 90.971 472.409L87.1634 467.314C75.8174 450.198 76.3585 427.149 88.2399 410.476C96.637 398.694 110.951 390.416 125.486 389.891L129.43 389.872C132.874 389.886 136.407 390.438 139.741 391.285C149.231 393.696 157.528 398.917 164.131 406.061C180.127 423.368 181.344 450.62 167.373 469.455L165.953 471.364C165.621 471.809 165.287 472.287 164.875 472.661L164.7 472.825C164.21 473.34 164.509 474.993 164.51 475.673L164.539 496.02C164.308 496.293 164 496.321 163.682 496.453L156.512 499.732L153.69 500.731L153.753 493.425L148.122 493.38L148.129 502.325C147.648 502.65 141.834 504.038 141.112 504.186C140.117 504.391 139.08 504.466 138.098 504.694L138.085 496.58C138.086 496.203 138.118 495.795 138.069 495.423L133.144 495.415C133.03 496.475 133.122 497.645 133.121 498.717L133.12 505.394C132.077 505.557 130.893 505.465 129.828 505.483ZM125.628 401.067C104.196 402.633 88.5675 421.735 90.1845 442.817L90.7677 447.078C91.993 454.276 95.6135 460.99 100.434 466.414C100.815 466.842 102.586 468.576 102.596 469.002L102.467 481.911L107.881 481.919L107.936 479.869C107.939 479.541 107.887 479.122 107.981 478.811L118.001 478.82L117.91 484.263L121.981 484.271C122.373 484.269 123.048 484.353 123.393 484.226L123.435 478.795L130.344 478.819L132.707 478.867C132.812 480.342 132.546 483.022 132.786 484.258L138.07 484.29L138.112 478.791L148.133 478.791L148.129 481.974L151.844 481.927C152.374 481.924 152.97 481.978 153.488 481.889L153.555 469.789C153.581 468.617 153.805 468.488 154.588 467.602L156.072 465.876C162.545 457.974 165.895 449.745 165.888 439.58C165.878 424.644 157.249 410.7 143.544 404.493C139.526 402.673 135.225 401.375 130.803 401.108L125.628 401.067Z"/>
	<path fill="#352208" d="M129.094 469.616L118.07 469.611C115.323 469.588 112.487 468.017 112.098 465.094C111.621 461.51 113.325 460.627 109.122 459.279C106.898 458.566 104.68 457.876 102.937 456.232C97.9228 451.502 95.8775 442.105 96.3302 435.281C96.8075 428.091 100.102 420.666 105.156 415.469C110.574 409.897 119.285 406.021 127.159 405.92L129.989 405.94C146.902 406.915 160.343 421.535 159.758 438.462C159.662 441.245 159.171 443.748 158.38 446.417C156.57 452.524 153.915 457.183 147.619 459.104C146.755 459.368 144.203 459.907 144.041 461.066L144.031 461.156C143.82 462.752 144.053 464.496 143.412 466.002C142.44 468.284 140.229 469.584 137.818 469.611L129.094 469.616ZM113.855 428.529C111.769 428.631 109.993 429.466 108.577 431.012C104.109 435.89 108.275 444.477 114.794 444.132C116.947 443.873 118.757 442.803 120.099 441.094C124.15 435.935 120.489 428.531 113.855 428.529ZM141.692 428.528C139.55 428.657 137.784 429.451 136.351 431.076C131.868 436.16 135.333 443.928 141.975 444.083C148.66 443.88 151.803 435.049 146.838 430.518C145.423 429.228 143.624 428.448 141.692 428.528ZM127.131 450.704C121.214 452.005 121.244 460.18 126.969 460.246L128.891 460.248C129.969 460.321 130.861 459.973 131.672 459.269C135.135 456.268 132.233 450.805 128.089 450.67L127.131 450.704Z"/>
	<path fill="#352208" d="M254.172 390.517L261.08 390.607C260.808 391.642 260.947 392.985 260.945 394.052L260.919 400.62L265.853 400.649L265.893 391.197C268.385 391.646 270.836 392.166 273.268 392.878L276.226 393.865L276.202 402.584C276.778 402.678 277.469 402.611 278.058 402.613L281.684 402.604L281.66 395.094C281.944 395.259 282.269 395.282 282.574 395.397L289.531 398.703C290.511 399.188 291.572 399.598 292.513 400.149L292.479 417.845C292.48 418.499 292.368 422.777 292.493 423.036C292.588 423.232 292.878 423.425 293.029 423.591L296.837 428.686C308.183 445.801 307.642 468.851 295.76 485.523C287.363 497.306 273.049 505.584 258.514 506.109L254.57 506.128C251.126 506.114 247.593 505.562 244.259 504.715C234.769 502.304 226.472 497.083 219.869 489.939C203.873 472.632 202.656 445.38 216.627 426.545L218.047 424.636C218.38 424.191 218.714 423.713 219.125 423.339L219.3 423.175C219.791 422.66 219.491 421.007 219.49 420.327L219.461 399.98C219.692 399.707 220 399.679 220.318 399.547L227.488 396.268L230.31 395.269L230.247 402.575L235.878 402.62L235.871 393.675C236.352 393.35 242.166 391.962 242.888 391.814C243.883 391.609 244.92 391.534 245.902 391.306L245.915 399.42C245.914 399.797 245.882 400.205 245.931 400.577L250.856 400.585C250.97 399.524 250.878 398.354 250.879 397.283L250.88 390.606C251.923 390.443 253.107 390.535 254.172 390.517ZM258.372 494.933C279.804 493.367 295.432 474.265 293.816 453.183L293.232 448.922C292.007 441.724 288.387 435.01 283.565 429.586C283.185 429.158 281.414 427.424 281.404 426.998L281.533 414.089L276.119 414.081L276.064 416.131C276.061 416.459 276.113 416.878 276.019 417.189L265.999 417.18L266.091 411.738L262.019 411.729C261.627 411.731 260.952 411.647 260.607 411.774L260.565 417.205L253.656 417.181L251.292 417.133C251.188 415.658 251.454 412.978 251.214 411.741L245.93 411.711L245.888 417.209L235.867 417.209L235.871 414.026L232.156 414.074C231.626 414.075 231.03 414.022 230.512 414.111L230.445 426.211C230.419 427.383 230.195 427.512 229.412 428.398L227.928 430.123C221.455 438.026 218.105 446.255 218.112 456.42C218.122 471.356 226.751 485.299 240.456 491.507C244.474 493.327 248.775 494.625 253.197 494.892L258.372 494.933Z"/>
	<path fill="#352208" d="M254.906 426.384L265.93 426.389C268.677 426.412 271.514 427.983 271.902 430.906C272.379 434.49 270.675 435.373 274.878 436.721C277.102 437.434 279.32 438.124 281.063 439.768C286.077 444.498 288.123 453.895 287.67 460.719C287.192 467.909 283.899 475.334 278.844 480.531C273.426 486.103 264.716 489.979 256.841 490.08L254.011 490.06C237.098 489.085 223.657 474.465 224.242 457.538C224.338 454.755 224.829 452.252 225.62 449.583C227.43 443.476 230.085 438.817 236.381 436.896C237.245 436.632 239.797 436.093 239.959 434.934L239.969 434.844C240.18 433.248 239.947 431.504 240.588 429.998C241.56 427.716 243.771 426.416 246.182 426.389L254.906 426.384ZM270.145 467.471C272.231 467.369 274.007 466.534 275.423 464.988C279.89 460.11 275.726 451.523 269.206 451.868C267.053 452.126 265.243 453.197 263.901 454.906C259.85 460.065 263.511 467.469 270.145 467.471ZM242.308 467.472C244.45 467.343 246.216 466.549 247.649 464.924C252.132 459.84 248.667 452.072 242.025 451.917C235.34 452.12 232.197 460.951 237.162 465.482C238.577 466.772 240.376 467.552 242.308 467.472ZM256.869 445.296C262.786 443.995 262.756 435.82 257.031 435.754L255.109 435.752C254.031 435.679 253.139 436.027 252.328 436.731C248.864 439.732 251.767 445.195 255.911 445.33L256.869 445.296Z"/>
	<path fill="#352208" d="M385.828 505.483L378.92 505.393C379.192 504.359 379.053 503.015 379.055 501.948L379.081 495.38L374.147 495.351L374.107 504.802C371.615 504.354 369.164 503.834 366.732 503.122L363.774 502.135L363.798 493.415C363.222 493.322 362.531 493.388 361.942 493.387L358.316 493.396L358.34 500.906C358.056 500.741 357.731 500.718 357.426 500.603L350.469 497.297C349.489 496.812 348.428 496.402 347.487 495.851L347.521 478.155C347.52 477.501 347.632 473.223 347.507 472.964C347.413 472.768 347.122 472.576 346.971 472.409L343.163 467.314C331.817 450.198 332.358 427.149 344.24 410.476C352.637 398.694 366.951 390.416 381.486 389.891L385.43 389.872C388.874 389.886 392.407 390.438 395.741 391.285C405.231 393.696 413.528 398.917 420.131 406.061C436.127 423.368 437.344 450.62 423.373 469.455L421.953 471.364C421.621 471.809 421.287 472.287 420.875 472.661L420.7 472.825C420.21 473.34 420.509 474.993 420.51 475.673L420.539 496.02C420.308 496.293 420 496.321 419.682 496.453L412.512 499.732L409.69 500.731L409.753 493.425L404.122 493.38L404.129 502.325C403.648 502.65 397.834 504.038 397.111 504.186C396.117 504.391 395.08 504.466 394.098 504.694L394.085 496.58C394.086 496.203 394.118 495.795 394.069 495.423L389.144 495.415C389.03 496.475 389.122 497.645 389.121 498.717L389.12 505.394C388.077 505.557 386.893 505.465 385.828 505.483ZM381.628 401.067C360.196 402.633 344.567 421.735 346.185 442.817L346.768 447.078C347.993 454.276 351.613 460.99 356.435 466.414C356.815 466.842 358.586 468.576 358.596 469.002L358.467 481.911L363.881 481.919L363.936 479.869C363.939 479.541 363.887 479.122 363.981 478.811L374.001 478.82L373.909 484.263L377.981 484.271C378.373 484.269 379.048 484.353 379.393 484.226L379.435 478.795L386.344 478.819L388.707 478.867C388.812 480.342 388.546 483.022 388.786 484.258L394.07 484.29L394.111 478.791L404.133 478.791L404.129 481.974L407.844 481.927C408.374 481.924 408.97 481.978 409.488 481.889L409.555 469.789C409.581 468.617 409.805 468.488 410.588 467.602L412.072 465.876C418.545 457.974 421.895 449.745 421.888 439.58C421.878 424.644 413.249 410.7 399.544 404.493C395.526 402.673 391.225 401.375 386.803 401.108L381.628 401.067Z"/>
	<path fill="#352208" d="M385.094 469.616L374.07 469.611C371.324 469.588 368.486 468.017 368.098 465.094C367.621 461.51 369.325 460.627 365.122 459.279C362.898 458.566 360.68 457.876 358.937 456.232C353.923 451.502 351.877 442.105 352.33 435.281C352.808 428.091 356.101 420.666 361.156 415.469C366.574 409.897 375.284 406.021 383.159 405.92L385.989 405.94C402.902 406.915 416.342 421.535 415.758 438.462C415.662 441.245 415.171 443.748 414.38 446.417C412.57 452.524 409.915 457.183 403.619 459.104C402.755 459.368 400.203 459.907 400.041 461.066L400.031 461.156C399.82 462.752 400.053 464.496 399.412 466.002C398.44 468.284 396.229 469.584 393.818 469.611L385.094 469.616ZM369.855 428.529C367.769 428.631 365.993 429.466 364.577 431.012C360.11 435.89 364.274 444.477 370.794 444.132C372.947 443.873 374.757 442.803 376.099 441.094C380.15 435.935 376.489 428.531 369.855 428.529ZM397.692 428.528C395.55 428.657 393.784 429.451 392.351 431.076C387.868 436.16 391.333 443.928 397.975 444.083C404.66 443.88 407.803 435.049 402.837 430.518C401.423 429.228 399.624 428.448 397.692 428.528ZM383.131 450.704C377.214 452.005 377.244 460.18 382.969 460.246L384.89 460.248C385.969 460.321 386.861 459.973 387.672 459.269C391.135 456.268 388.233 450.805 384.089 450.67L383.131 450.704Z"/>
	<path fill="#352208" d="M510.172 390.517L517.08 390.607C516.808 391.642 516.947 392.985 516.945 394.052L516.919 400.62L521.853 400.649L521.893 391.197C524.385 391.646 526.836 392.166 529.268 392.878L532.226 393.865L532.202 402.584C532.778 402.678 533.469 402.611 534.058 402.613L537.684 402.604L537.66 395.094C537.944 395.259 538.269 395.282 538.574 395.397L545.53 398.703C546.511 399.188 547.572 399.598 548.513 400.149L548.479 417.845C548.48 418.499 548.368 422.777 548.493 423.036C548.588 423.232 548.878 423.425 549.029 423.591L552.837 428.686C564.183 445.801 563.642 468.851 551.76 485.523C543.363 497.306 529.049 505.584 514.514 506.109L510.57 506.128C507.126 506.114 503.593 505.562 500.259 504.715C490.769 502.304 482.472 497.083 475.869 489.939C459.873 472.632 458.656 445.38 472.627 426.545L474.047 424.636C474.38 424.191 474.714 423.713 475.125 423.339L475.3 423.175C475.791 422.66 475.491 421.007 475.49 420.327L475.461 399.98C475.692 399.707 476 399.679 476.318 399.547L483.488 396.268L486.31 395.269L486.247 402.575L491.878 402.62L491.871 393.675C492.352 393.35 498.166 391.962 498.889 391.814C499.883 391.609 500.92 391.534 501.902 391.306L501.915 399.42C501.914 399.797 501.882 400.205 501.931 400.577L506.856 400.585C506.97 399.524 506.878 398.354 506.879 397.283L506.88 390.606C507.923 390.443 509.107 390.535 510.172 390.517ZM514.372 494.933C535.804 493.367 551.432 474.265 549.816 453.183L549.232 448.922C548.007 441.724 544.386 435.01 539.566 429.586C539.185 429.158 537.414 427.424 537.404 426.998L537.533 414.089L532.119 414.081L532.064 416.131C532.061 416.459 532.113 416.878 532.019 417.189L521.999 417.18L522.091 411.738L518.019 411.729C517.627 411.731 516.952 411.647 516.607 411.774L516.565 417.205L509.656 417.181L507.293 417.133C507.188 415.658 507.454 412.978 507.214 411.741L501.93 411.711L501.889 417.209L491.867 417.209L491.871 414.026L488.156 414.074C487.626 414.075 487.03 414.022 486.512 414.111L486.445 426.211C486.419 427.383 486.195 427.512 485.412 428.398L483.928 430.123C477.455 438.026 474.105 446.255 474.112 456.42C474.122 471.356 482.751 485.299 496.456 491.507C500.474 493.327 504.775 494.625 509.197 494.892L514.372 494.933Z"/>
	<path fill="#352208" d="M510.906 426.384L521.93 426.389C524.677 426.412 527.514 427.983 527.902 430.906C528.379 434.49 526.676 435.373 530.878 436.721C533.102 437.434 535.32 438.124 537.063 439.768C542.077 444.498 544.122 453.895 543.67 460.719C543.192 467.909 539.899 475.334 534.844 480.531C529.426 486.103 520.716 489.979 512.841 490.08L510.011 490.06C493.098 489.085 479.658 474.465 480.242 457.538C480.338 454.755 480.829 452.252 481.62 449.583C483.43 443.476 486.085 438.817 492.381 436.896C493.245 436.632 495.797 436.093 495.959 434.934L495.969 434.844C496.18 433.248 495.947 431.504 496.588 429.998C497.56 427.716 499.771 426.416 502.182 426.389L510.906 426.384ZM526.145 467.471C528.231 467.369 530.007 466.534 531.423 464.988C535.89 460.11 531.726 451.523 525.206 451.868C523.053 452.126 521.243 453.197 519.901 454.906C515.85 460.065 519.511 467.469 526.145 467.471ZM498.308 467.472C500.45 467.343 502.216 466.549 503.649 464.924C508.132 459.84 504.667 452.072 498.026 451.917C491.34 452.12 488.197 460.951 493.163 465.482C494.577 466.772 496.376 467.552 498.308 467.472ZM512.869 445.296C518.786 443.995 518.756 435.82 513.031 435.754L511.11 435.752C510.031 435.679 509.139 436.027 508.328 436.731C504.865 439.732 507.767 445.195 511.911 445.33L512.869 445.296Z"/>
</svg>
