<?xml version="1.0" encoding="utf-8" ?>
<svg xmlns="http://www.w3.org/2000/svg" xmlns:xlink="http://www.w3.org/1999/xlink" width="512" height="512">
	<path fill="#011627" d="M0 0L0 512L512 512L512 0L0 0Z"/>
	<path fill="#F02" d="M132.91 230.956C128.462 231.37 124.586 228.002 124.18 223.589C123.777 219.197 127.344 215.464 131.621 215.105C135.597 214.923 139.658 217.637 140.159 221.767C140.742 226.582 137.728 230.375 132.91 230.956Z"/>
	<path fill="#F02" d="M101.733 247.142C100.122 244.693 98.9864 241.977 98.361 239.11C98.203 238.386 98.1502 237.646 98.0003 236.926L97.9776 236.82C97.8457 236.062 97.8857 235.215 97.8863 234.445C97.8899 230.316 99.174 226.169 101.262 222.621C101.623 222.006 103.32 219.208 104.063 219.128C105.159 219.01 104.9 220.244 104.754 220.83L104.434 222.267C103.332 228.187 104.602 234.505 108.331 239.303C109.507 240.815 110.847 242.095 112.285 243.353L116.423 238.825C112.857 236.522 110.33 232.862 110.205 228.539C110.168 227.273 110.35 225.191 111.61 224.503L116.756 224.506C117.634 224.507 118.559 224.452 119.434 224.521C120.773 224.627 118.914 226.098 118.941 227.306C118.994 229.747 121.737 231.463 123.729 232.283C129.327 234.588 139.912 234.746 144.225 230.046C145.12 229.071 145.868 227.463 145.172 226.177C144.904 225.681 143.83 224.65 145.076 224.543C145.666 224.493 146.27 224.513 146.862 224.512L151.784 224.509C152.545 224.509 153.077 224.361 153.587 225.035C154.244 225.902 154.355 226.897 154.381 227.948C154.503 233.01 151.724 236.009 147.998 238.839L152.15 243.364C152.51 243.124 152.839 242.806 153.157 242.514L154.528 241.181C159.189 236.197 161.363 229.088 160.201 222.366L159.907 220.865C159.752 220.16 159.47 219.477 160.262 219.085L160.306 219.064C160.999 218.914 161.608 220.053 161.936 220.515C165.229 225.148 166.98 230.252 166.61 236.031C166.288 241.05 164.19 246.215 160.618 249.801C158.012 252.416 152.689 255.574 149.052 256.856C148.713 256.62 148.406 256.3 148.097 256.024L141.925 250.327C141.68 250.1 140.078 248.665 140.007 248.505L140.016 288.167C140.013 290.464 139.394 292.377 137.688 294.055C133.197 298.472 125.579 295.746 124.625 289.736C124.541 289.208 124.565 288.634 124.564 288.101L124.55 248.532C124.396 248.714 124.226 248.787 124.049 248.942L118.61 253.986C117.586 254.937 116.534 255.854 115.593 256.891C110.201 254.846 105.088 251.917 101.733 247.142Z"/>
	<path fill="#F02" d="M191.597 277.521L191.597 238.847L184.299 238.847L184.299 234.373L204.701 234.373L204.701 238.847L197.616 238.847L197.616 277.521L191.597 277.521ZM208.749 277.521L208.749 246.731L214.449 246.731L214.449 277.521L208.749 277.521ZM208.749 242.15L208.749 236.184L214.449 236.184L214.449 242.15L208.749 242.15ZM231.602 277.947C230.501 277.947 229.515 277.671 228.645 277.121C227.775 276.571 227.021 275.958 226.381 275.283L226.381 277.521L220.682 277.521L220.682 234.373L226.381 234.373L226.381 249.182C227.056 248.4 227.864 247.726 228.805 247.157C229.746 246.589 230.874 246.305 232.188 246.305C233.786 246.305 235.055 246.722 235.996 247.557C236.937 248.391 237.639 249.439 238.1 250.7C238.562 251.96 238.864 253.239 239.006 254.535C239.148 255.831 239.219 256.941 239.219 257.864L239.219 265.322C239.219 267.488 239.006 269.539 238.58 271.475C238.154 273.41 237.39 274.973 236.289 276.162C235.188 277.352 233.626 277.947 231.602 277.947ZM230.43 273.472C231.424 273.472 232.134 273.108 232.561 272.38C232.987 271.652 233.253 270.667 233.36 269.424C233.466 268.181 233.519 266.814 233.519 265.322L233.519 257.864C233.519 256.586 233.448 255.405 233.306 254.322C233.164 253.239 232.862 252.378 232.401 251.738C231.939 251.099 231.211 250.78 230.217 250.78C229.471 250.78 228.77 250.939 228.113 251.259C227.456 251.579 226.879 251.934 226.381 252.324L226.381 272.087C226.879 272.478 227.473 272.806 228.166 273.073C228.858 273.339 229.613 273.472 230.43 273.472ZM244.759 277.521L244.759 246.731L250.459 246.731L250.459 277.521L244.759 277.521ZM244.759 242.15L244.759 236.184L250.459 236.184L250.459 242.15L244.759 242.15ZM261.219 277.947C260.012 277.947 258.946 277.6 258.023 276.908C257.1 276.215 256.372 275.328 255.839 274.245C255.306 273.161 255.04 272.016 255.04 270.809C255.04 268.891 255.36 267.275 255.999 265.961C256.638 264.647 257.517 263.538 258.636 262.632C259.754 261.726 261.05 260.936 262.524 260.262C263.998 259.587 265.551 258.93 267.185 258.291L267.185 256.107C267.185 254.864 267.114 253.834 266.972 253.017C266.83 252.2 266.537 251.588 266.093 251.179C265.649 250.771 264.984 250.567 264.096 250.567C263.314 250.567 262.684 250.744 262.205 251.099C261.725 251.454 261.379 251.96 261.166 252.617C260.953 253.274 260.846 254.047 260.846 254.935L260.846 256.479L255.2 256.266C255.271 252.857 256.052 250.345 257.544 248.729C259.035 247.113 261.343 246.305 264.469 246.305C267.522 246.305 269.689 247.14 270.967 248.809C272.246 250.478 272.885 252.893 272.885 256.053L272.885 270.116C272.885 271.075 272.912 271.998 272.965 272.886C273.018 273.774 273.089 274.6 273.178 275.363C273.267 276.127 273.347 276.846 273.418 277.521L268.197 277.521C268.091 276.952 267.958 276.233 267.798 275.363C267.638 274.493 267.522 273.703 267.452 272.993C267.096 274.2 266.413 275.328 265.401 276.375C264.389 277.423 262.995 277.947 261.219 277.947ZM263.456 273.046C264.025 273.046 264.557 272.886 265.054 272.567C265.551 272.247 265.996 271.883 266.386 271.475C266.777 271.066 267.043 270.738 267.185 270.489L267.185 261.753C266.297 262.25 265.463 262.747 264.682 263.245C263.9 263.742 263.217 264.266 262.631 264.816C262.045 265.366 261.583 265.988 261.246 266.68C260.909 267.373 260.74 268.163 260.74 269.051C260.74 270.294 260.97 271.27 261.432 271.981C261.894 272.691 262.568 273.046 263.456 273.046ZM301.224 278C298.738 278 296.669 277.467 295.018 276.402C293.367 275.337 292.115 273.863 291.263 271.981C290.41 270.098 289.913 267.914 289.771 265.429L295.098 263.99C295.205 265.517 295.444 266.991 295.817 268.412C296.19 269.832 296.803 270.995 297.655 271.901C298.507 272.806 299.697 273.259 301.224 273.259C302.786 273.259 303.967 272.824 304.766 271.954C305.565 271.084 305.965 269.832 305.965 268.199C305.965 266.245 305.521 264.674 304.633 263.484C303.745 262.295 302.627 261.096 301.277 259.889L294.033 253.496C292.612 252.253 291.565 250.895 290.89 249.421C290.215 247.948 289.878 246.128 289.878 243.961C289.878 240.801 290.783 238.35 292.594 236.61C294.406 234.87 296.874 234 299.999 234C301.703 234 303.204 234.222 304.5 234.666C305.796 235.11 306.88 235.793 307.749 236.717C308.619 237.64 309.312 238.803 309.827 240.206C310.342 241.609 310.688 243.251 310.866 245.133L305.752 246.518C305.645 245.098 305.432 243.793 305.113 242.603C304.793 241.413 304.234 240.454 303.435 239.726C302.636 238.998 301.49 238.634 299.999 238.634C298.507 238.634 297.344 239.034 296.51 239.833C295.675 240.632 295.258 241.813 295.258 243.375C295.258 244.689 295.48 245.772 295.924 246.625C296.367 247.477 297.087 248.347 298.081 249.235L305.379 255.627C307.013 257.048 308.451 258.743 309.694 260.714C310.936 262.685 311.558 265.02 311.558 267.719C311.558 269.85 311.114 271.688 310.226 273.232C309.338 274.777 308.122 275.958 306.577 276.775C305.033 277.592 303.248 278 301.224 278ZM323.97 277.947C322.372 277.947 321.084 277.645 320.108 277.041C319.131 276.437 318.421 275.585 317.977 274.484C317.533 273.383 317.311 272.087 317.311 270.596L317.311 250.513L314.062 250.513L314.062 246.731L317.311 246.731L317.311 237.729L323.011 237.729L323.011 246.731L327.965 246.731L327.965 250.513L323.011 250.513L323.011 270.223C323.011 271.43 323.206 272.291 323.597 272.806C323.987 273.321 324.733 273.579 325.834 273.579C326.118 273.579 326.447 273.561 326.82 273.525C327.192 273.49 327.556 273.454 327.912 273.419L327.912 277.627C327.202 277.734 326.544 277.814 325.941 277.867C325.337 277.92 324.68 277.947 323.97 277.947ZM336.807 277.947C335.6 277.947 334.535 277.6 333.611 276.908C332.688 276.215 331.96 275.328 331.427 274.245C330.895 273.161 330.628 272.016 330.628 270.809C330.628 268.891 330.948 267.275 331.587 265.961C332.226 264.647 333.105 263.538 334.224 262.632C335.343 261.726 336.639 260.936 338.113 260.262C339.587 259.587 341.14 258.93 342.774 258.291L342.774 256.107C342.774 254.864 342.703 253.834 342.561 253.017C342.418 252.2 342.125 251.588 341.682 251.179C341.238 250.771 340.572 250.567 339.684 250.567C338.903 250.567 338.272 250.744 337.793 251.099C337.314 251.454 336.967 251.96 336.754 252.617C336.541 253.274 336.435 254.047 336.435 254.935L336.435 256.479L330.788 256.266C330.859 252.857 331.64 250.345 333.132 248.729C334.623 247.113 336.932 246.305 340.057 246.305C343.111 246.305 345.277 247.14 346.556 248.809C347.834 250.478 348.473 252.893 348.473 256.053L348.473 270.116C348.473 271.075 348.5 271.998 348.553 272.886C348.607 273.774 348.677 274.6 348.766 275.363C348.855 276.127 348.935 276.846 349.006 277.521L343.786 277.521C343.679 276.952 343.546 276.233 343.386 275.363C343.226 274.493 343.111 273.703 343.04 272.993C342.685 274.2 342.001 275.328 340.989 276.375C339.977 277.423 338.583 277.947 336.807 277.947ZM339.045 273.046C339.613 273.046 340.146 272.886 340.643 272.567C341.14 272.247 341.584 271.883 341.975 271.475C342.365 271.066 342.631 270.738 342.774 270.489L342.774 261.753C341.886 262.25 341.051 262.747 340.27 263.245C339.489 263.742 338.805 264.266 338.219 264.816C337.633 265.366 337.171 265.988 336.834 266.68C336.497 267.373 336.328 268.163 336.328 269.051C336.328 270.294 336.559 271.27 337.021 271.981C337.482 272.691 338.157 273.046 339.045 273.046ZM354.493 277.521L354.493 234.373L360.192 234.373L360.192 277.521L354.493 277.521ZM366.265 277.467L366.265 234.32L371.965 234.32L371.965 260.048L380.275 246.731L386.241 246.731L378.996 258.77L386.028 277.521L380.328 277.521L374.575 261.753L371.965 265.695L371.965 277.467L366.265 277.467ZM397.214 277.947C394.8 277.947 392.935 277.476 391.621 276.535C390.307 275.594 389.393 274.209 388.878 272.38C388.363 270.551 388.105 268.305 388.105 265.642L388.105 258.61C388.105 255.876 388.372 253.603 388.904 251.792C389.437 249.981 390.369 248.613 391.701 247.69C393.033 246.767 394.87 246.305 397.214 246.305C399.807 246.305 401.715 246.838 402.941 247.903C404.166 248.969 404.974 250.504 405.364 252.511C405.755 254.517 405.95 256.923 405.95 259.729L405.95 262.232L393.805 262.232L393.805 268.412C393.805 269.655 393.921 270.667 394.151 271.448C394.382 272.229 394.755 272.806 395.27 273.179C395.785 273.552 396.451 273.738 397.268 273.738C398.12 273.738 398.768 273.534 399.212 273.126C399.656 272.717 399.958 272.132 400.117 271.368C400.277 270.605 400.357 269.708 400.357 268.678L400.357 266.814L405.897 266.814L405.897 267.985C405.897 271.075 405.24 273.508 403.926 275.283C402.612 277.059 400.375 277.947 397.214 277.947ZM393.805 259.143L400.357 259.143L400.357 256.373C400.357 255.094 400.286 254.02 400.144 253.15C400.002 252.28 399.709 251.623 399.265 251.179C398.821 250.735 398.12 250.513 397.161 250.513C396.238 250.513 395.536 250.726 395.057 251.153C394.577 251.579 394.249 252.298 394.071 253.31C393.894 254.322 393.805 255.716 393.805 257.492L393.805 259.143ZM411.277 277.521L411.277 246.731L416.977 246.731L416.977 251.099C418.113 249.217 419.25 247.956 420.386 247.317C421.522 246.678 422.659 246.358 423.795 246.358C423.938 246.358 424.071 246.358 424.195 246.358C424.319 246.358 424.488 246.376 424.701 246.412L424.701 252.697C424.275 252.52 423.786 252.369 423.236 252.245C422.686 252.12 422.126 252.058 421.558 252.058C420.67 252.058 419.863 252.262 419.134 252.671C418.406 253.079 417.687 253.869 416.977 255.041L416.977 277.521L411.277 277.521Z"/>
</svg>
