<?xml version="1.0" encoding="utf-8" ?>
<svg xmlns="http://www.w3.org/2000/svg" xmlns:xlink="http://www.w3.org/1999/xlink" width="468" height="468">
	<path fill="#471069" transform="scale(0.915518 0.915518)" d="M0 0L0 512L512 512L512 0L0 0Z"/>
	<path fill="#30C5D2" transform="scale(0.915518 0.915518)" d="M69.9527 97.452C64.754 101.335 61.042 100.126 56.3552 95.9213L24.3035 67.4165C22.2868 65.6377 19.7138 63.5932 19.1982 60.802L19.1779 60.6875C19.0668 60.0763 19.1026 59.4447 19.1064 58.8257L19.1277 28.975C19.1296 28.2142 19.0628 27.3685 19.2373 26.6247L19.5777 25.3725C20.1813 23.6102 21.6223 22.1226 23.2843 21.3182C25.7943 20.1034 28.019 20.8745 30.497 21.7211C31.071 21.2032 31.5435 20.5204 32.0162 19.9112L42.8013 5.90483C43.2915 5.83585 43.825 5.8725 44.321 5.87138L55.9708 5.86825L87.0885 5.88665C87.572 6.58512 87.9677 7.25138 88.5 7.96748L95.5623 17.6562C95.8328 18.0303 98.253 21.5076 98.3213 21.537C98.3213 21.537 98.5097 21.4585 98.5268 21.4516C100.218 20.7702 102.112 20.5057 103.886 21.0107C109.463 22.5975 109.281 27.195 109.286 31.8835L109.291 58.0625C109.29 58.9102 109.393 60.0055 109.148 60.8177C108.237 63.8375 106.407 65.0745 104.231 67.1L73.73 94.1345C72.492 95.2687 71.2722 96.4112 69.9527 97.452ZM48.6845 17.5012L41.7233 26.3265L63.762 34.4592C64.1783 34.5463 67.162 33.299 67.8155 33.0555L75.7793 30.103L86.8588 26.0438C87.0872 25.9715 85.391 23.9068 85.0653 23.4688L80.8635 17.8597C80.6205 17.5494 80.6412 17.5399 80.2335 17.511L48.6845 17.5012ZM30.813 34.6643L30.8173 57.761C31.3903 58.1367 31.8895 58.3387 32.4525 58.8077L57.762 81.2952L63.9143 86.9633L88.334 65.372L95.7395 58.9032C97.914 57.037 97.472 58.0667 97.4788 54.918L97.4147 34.7007C97.042 34.977 96.1803 35.131 95.721 35.3035L73.7173 43.4652L65.902 46.37C65.1857 46.6108 64.4702 46.9175 63.7433 47.1123L30.813 34.6643Z"/>
	<path fill="#30C5D2" transform="scale(0.915518 0.915518)" d="M70.717 63.5502L69.897 63.7242C70.341 63.1217 70.5515 62.363 70.8727 61.6875L73.628 55.8398C75.0265 52.8402 76.7073 49.8903 77.8718 46.794L91.6677 46.608L92.6298 46.5135C92.626 46.9245 91.666 48.3575 91.4018 48.8075L83.869 61.3483C83.828 61.4128 79.7138 61.8912 79.045 61.99L70.717 63.5502Z"/>
	<path fill="#30C5D2" transform="scale(0.915518 0.915518)" d="M57.8892 63.3775L44.1135 61.4117L35.7848 46.57L44.974 46.6118C46.716 46.6153 48.555 46.4997 50.283 46.7338L57.8892 63.3775Z"/>
	<path fill="#30C5D2" transform="scale(0.915518 0.915518)" d="M121.816 69.7777L121.825 73.0498C121.828 74.1303 122.013 73.8178 121.206 74.447C120.757 74.7975 120.324 75.1882 119.905 75.575L89.2188 102.593L75.409 114.918C73.609 116.505 71.9573 118.285 69.9843 119.669C66.5773 122.059 61.8785 122.072 58.4002 119.799C57.5675 119.254 56.81 118.585 56.0583 117.936L6.19642 73.6825L6.20963 57.3545L64.0498 109.433L121.807 57.5767L121.816 69.7777Z"/>
	<path fill="#30C5D2" transform="scale(0.915518 0.915518)" d="M186.047 30.548C191.246 26.6655 194.958 27.8745 199.645 32.0787L231.696 60.5835C233.713 62.3623 236.286 64.4068 236.802 67.198L236.822 67.3125C236.933 67.9237 236.897 68.5553 236.894 69.1743L236.872 99.025C236.87 99.7858 236.937 100.632 236.763 101.375L236.422 102.627C235.819 104.39 234.378 105.877 232.716 106.682C230.206 107.897 227.981 107.125 225.503 106.279C224.929 106.797 224.457 107.48 223.984 108.089L213.199 122.095C212.709 122.164 212.175 122.127 211.679 122.129L200.029 122.132L168.911 122.113C168.428 121.415 168.032 120.749 167.5 120.033L160.438 110.344C160.167 109.97 157.747 106.492 157.679 106.463C157.679 106.463 157.49 106.541 157.473 106.548C155.782 107.23 153.888 107.494 152.113 106.989C146.537 105.403 146.719 100.805 146.714 96.1165L146.709 69.9375C146.71 69.0898 146.607 67.9945 146.852 67.1823C147.762 64.1625 149.593 62.9255 151.768 60.9L182.27 33.8655C183.508 32.7313 184.728 31.5888 186.047 30.548ZM207.315 110.499L214.277 101.674L192.238 93.5408C191.822 93.4537 188.838 94.701 188.185 94.9445L180.221 97.897L169.141 101.956C168.913 102.029 170.609 104.093 170.935 104.531L175.137 110.14C175.38 110.451 175.359 110.46 175.767 110.489L207.315 110.499ZM225.187 93.3357L225.183 70.239C224.61 69.8632 224.111 69.6612 223.548 69.1923L198.238 46.7048L192.086 41.0367L167.666 62.628L160.261 69.0968C158.086 70.963 158.528 69.9333 158.521 73.082L158.585 93.2993C158.958 93.023 159.82 92.869 160.279 92.6965L182.283 84.5348L190.098 81.63C190.814 81.3893 191.53 81.0825 192.257 80.8877L225.187 93.3357Z"/>
	<path fill="#30C5D2" transform="scale(0.915518 0.915518)" d="M185.283 64.4497L186.103 64.2758C185.659 64.8783 185.448 65.637 185.127 66.3125L182.372 72.1602C180.974 75.1598 179.293 78.1097 178.128 81.206L164.332 81.392L163.37 81.4865C163.374 81.0755 164.334 79.6425 164.598 79.1925L172.131 66.6517C172.172 66.5872 176.286 66.1088 176.955 66.01L185.283 64.4497Z"/>
	<path fill="#30C5D2" transform="scale(0.915518 0.915518)" d="M198.111 64.6225L211.887 66.5883L220.215 81.43L211.026 81.3882C209.284 81.3847 207.445 81.5002 205.717 81.2662L198.111 64.6225Z"/>
	<path fill="#30C5D2" transform="scale(0.915518 0.915518)" d="M134.185 58.2223L134.175 54.9502C134.172 53.8697 133.987 54.1822 134.794 53.553C135.244 53.2025 135.676 52.8118 136.095 52.425L166.781 25.407L180.591 13.0825C182.391 11.4945 184.043 9.71525 186.016 8.33125C189.423 5.941 194.121 5.92775 197.6 8.20125C198.433 8.74575 199.19 9.41525 199.942 10.0645L249.804 54.3175L249.79 70.6455L191.95 18.567L134.193 70.4232L134.185 58.2223Z"/>
	<path fill="#30C5D2" transform="scale(0.915518 0.915518)" d="M325.953 97.452C320.754 101.335 317.042 100.126 312.355 95.9213L280.303 67.4165C278.287 65.6377 275.714 63.5932 275.198 60.802L275.178 60.6875C275.067 60.0763 275.103 59.4447 275.106 58.8257L275.128 28.975C275.13 28.2142 275.063 27.3685 275.237 26.6247L275.578 25.3725C276.181 23.6102 277.622 22.1226 279.284 21.3182C281.794 20.1034 284.019 20.8745 286.497 21.7211C287.071 21.2032 287.543 20.5204 288.016 19.9112L298.801 5.90483C299.291 5.83585 299.825 5.8725 300.321 5.87138L311.971 5.86825L343.089 5.88665C343.572 6.58512 343.968 7.25138 344.5 7.96748L351.562 17.6562C351.833 18.0303 354.253 21.5076 354.321 21.537C354.321 21.537 354.51 21.4585 354.527 21.4516C356.218 20.7702 358.112 20.5057 359.886 21.0107C365.463 22.5975 365.281 27.195 365.286 31.8835L365.291 58.0625C365.29 58.9102 365.393 60.0055 365.148 60.8177C364.237 63.8375 362.407 65.0745 360.231 67.1L329.73 94.1345C328.492 95.2687 327.272 96.4112 325.953 97.452ZM304.685 17.5012L297.723 26.3265L319.762 34.4592C320.178 34.5463 323.162 33.299 323.815 33.0555L331.779 30.103L342.859 26.0438C343.087 25.9715 341.391 23.9068 341.065 23.4688L336.863 17.8597C336.62 17.5494 336.641 17.5399 336.233 17.511L304.685 17.5012ZM286.813 34.6643L286.817 57.761C287.39 58.1367 287.889 58.3387 288.452 58.8077L313.762 81.2952L319.914 86.9633L344.334 65.372L351.74 58.9032C353.914 57.037 353.472 58.0667 353.479 54.918L353.415 34.7007C353.042 34.977 352.18 35.131 351.721 35.3035L329.717 43.4652L321.902 46.37C321.186 46.6108 320.47 46.9175 319.743 47.1123L286.813 34.6643Z"/>
	<path fill="#30C5D2" transform="scale(0.915518 0.915518)" d="M326.717 63.5502L325.897 63.7242C326.341 63.1217 326.552 62.363 326.873 61.6875L329.628 55.8398C331.026 52.8402 332.707 49.8903 333.872 46.794L347.668 46.608L348.63 46.5135C348.626 46.9245 347.666 48.3575 347.402 48.8075L339.869 61.3483C339.828 61.4128 335.714 61.8912 335.045 61.99L326.717 63.5502Z"/>
	<path fill="#30C5D2" transform="scale(0.915518 0.915518)" d="M313.889 63.3775L300.113 61.4117L291.785 46.57L300.974 46.6118C302.716 46.6153 304.555 46.4997 306.283 46.7338L313.889 63.3775Z"/>
	<path fill="#30C5D2" transform="scale(0.915518 0.915518)" d="M377.816 69.7777L377.825 73.0498C377.828 74.1303 378.013 73.8178 377.206 74.447C376.757 74.7975 376.324 75.1882 375.905 75.575L345.219 102.593L331.409 114.918C329.609 116.505 327.957 118.285 325.984 119.669C322.577 122.059 317.879 122.072 314.4 119.799C313.567 119.254 312.81 118.585 312.058 117.936L262.196 73.6825L262.21 57.3545L320.05 109.433L377.807 57.5767L377.816 69.7777Z"/>
	<path fill="#30C5D2" transform="scale(0.915518 0.915518)" d="M442.047 30.548C447.246 26.6655 450.958 27.8745 455.645 32.0787L487.696 60.5835C489.713 62.3623 492.286 64.4068 492.802 67.198L492.822 67.3125C492.933 67.9237 492.897 68.5553 492.894 69.1743L492.872 99.025C492.87 99.7858 492.937 100.632 492.763 101.375L492.422 102.627C491.819 104.39 490.378 105.877 488.716 106.682C486.206 107.897 483.981 107.125 481.503 106.279C480.929 106.797 480.457 107.48 479.984 108.089L469.199 122.095C468.709 122.164 468.175 122.127 467.679 122.129L456.029 122.132L424.911 122.113C424.428 121.415 424.032 120.749 423.5 120.033L416.438 110.344C416.167 109.97 413.747 106.492 413.679 106.463C413.679 106.463 413.49 106.541 413.473 106.548C411.782 107.23 409.888 107.494 408.113 106.989C402.537 105.403 402.719 100.805 402.714 96.1165L402.709 69.9375C402.71 69.0898 402.607 67.9945 402.852 67.1823C403.762 64.1625 405.593 62.9255 407.769 60.9L438.27 33.8655C439.508 32.7313 440.728 31.5888 442.047 30.548ZM463.315 110.499L470.277 101.674L448.238 93.5408C447.822 93.4537 444.838 94.701 444.185 94.9445L436.221 97.897L425.141 101.956C424.913 102.029 426.609 104.093 426.935 104.531L431.137 110.14C431.38 110.451 431.359 110.46 431.767 110.489L463.315 110.499ZM481.187 93.3357L481.183 70.239C480.61 69.8632 480.111 69.6612 479.548 69.1923L454.238 46.7048L448.086 41.0367L423.666 62.628L416.26 69.0968C414.086 70.963 414.528 69.9333 414.521 73.082L414.585 93.2993C414.958 93.023 415.82 92.869 416.279 92.6965L438.283 84.5348L446.098 81.63C446.814 81.3893 447.53 81.0825 448.257 80.8877L481.187 93.3357Z"/>
	<path fill="#30C5D2" transform="scale(0.915518 0.915518)" d="M441.283 64.4497L442.103 64.2758C441.659 64.8783 441.449 65.637 441.127 66.3125L438.372 72.1602C436.974 75.1598 435.293 78.1097 434.128 81.206L420.332 81.392L419.37 81.4865C419.374 81.0755 420.334 79.6425 420.598 79.1925L428.131 66.6517C428.172 66.5872 432.286 66.1088 432.955 66.01L441.283 64.4497Z"/>
	<path fill="#30C5D2" transform="scale(0.915518 0.915518)" d="M454.111 64.6225L467.887 66.5883L476.215 81.43L467.026 81.3882C465.284 81.3847 463.445 81.5002 461.717 81.2662L454.111 64.6225Z"/>
	<path fill="#30C5D2" transform="scale(0.915518 0.915518)" d="M390.185 58.2223L390.175 54.9502C390.172 53.8697 389.986 54.1822 390.794 53.553C391.243 53.2025 391.676 52.8118 392.095 52.425L422.781 25.407L436.591 13.0825C438.391 11.4945 440.043 9.71525 442.016 8.33125C445.423 5.941 450.121 5.92775 453.6 8.20125C454.433 8.74575 455.19 9.41525 455.942 10.0645L505.804 54.3175L505.79 70.6455L447.95 18.567L390.193 70.4232L390.185 58.2223Z"/>
	<path fill="#30C5D2" transform="scale(0.915518 0.915518)" d="M-5.9527 158.548C-0.754 154.666 2.958 155.875 7.6448 160.079L39.696 188.584C41.713 190.362 44.286 192.407 44.802 195.198L44.822 195.312C44.933 195.924 44.897 196.555 44.894 197.174L44.872 227.025C44.87 227.786 44.937 228.632 44.763 229.375L44.422 230.627C43.819 232.39 42.378 233.877 40.716 234.682C38.206 235.897 35.981 235.125 33.503 234.279C32.929 234.797 32.4565 235.48 31.9838 236.089L21.1987 250.095C20.7085 250.164 20.175 250.127 19.679 250.129L8.0292 250.132L-23.0885 250.113C-23.572 249.415 -23.9677 248.749 -24.5 248.033L-31.5623 238.344C-31.8328 237.97 -34.253 234.492 -34.3213 234.463C-34.3213 234.463 -34.5097 234.541 -34.5268 234.548C-36.2182 235.23 -38.112 235.494 -39.8865 234.989C-45.4633 233.403 -45.2812 228.805 -45.2862 224.117L-45.2913 197.938C-45.2903 197.09 -45.3928 195.995 -45.1478 195.182C-44.2375 192.162 -42.407 190.925 -40.2315 188.9L-9.73 161.865C-8.492 160.731 -7.2722 159.589 -5.9527 158.548ZM15.3155 238.499L22.2767 229.674L0.238 221.541C-0.1783 221.454 -3.162 222.701 -3.8155 222.945L-11.7793 225.897L-22.8588 229.956C-23.0872 230.029 -21.391 232.093 -21.0653 232.531L-16.8635 238.14C-16.6205 238.451 -16.6412 238.46 -16.2335 238.489L15.3155 238.499ZM33.187 221.336L33.1827 198.239C32.6097 197.863 32.1105 197.661 31.5475 197.192L6.238 174.705L0.0857 169.037L-24.334 190.628L-31.7395 197.097C-33.914 198.963 -33.472 197.933 -33.4788 201.082L-33.4147 221.299C-33.042 221.023 -32.1803 220.869 -31.721 220.697L-9.7173 212.535L-1.902 209.63C-1.1857 209.389 -0.4702 209.082 0.2567 208.888L33.187 221.336Z"/>
	<path fill="#30C5D2" transform="scale(0.915518 0.915518)" d="M6.1107 192.623L19.8865 194.588L28.2152 209.43L19.026 209.388C17.284 209.385 15.445 209.5 13.717 209.266L6.1107 192.623Z"/>
	<path fill="#30C5D2" transform="scale(0.915518 0.915518)" d="M-57.8155 186.222L-57.8245 182.95C-57.828 181.87 -58.0135 182.182 -57.2062 181.553C-56.7565 181.202 -56.324 180.812 -55.9053 180.425L-25.2188 153.407L-11.409 141.083C-9.609 139.494 -7.9573 137.715 -5.9843 136.331C-2.5773 133.941 2.1215 133.928 5.5998 136.201C6.4325 136.746 7.19 137.415 7.9417 138.065L57.804 182.317L57.79 198.645L-0.0498 146.567L-57.8072 198.423L-57.8155 186.222Z"/>
	<path fill="#30C5D2" transform="scale(0.915518 0.915518)" d="M133.953 225.452C128.754 229.335 125.042 228.126 120.355 223.921L88.3035 195.416C86.2868 193.638 83.7138 191.593 83.1982 188.802L83.1779 188.688C83.0668 188.076 83.1026 187.445 83.1064 186.826L83.1277 156.975C83.1296 156.214 83.0628 155.369 83.2373 154.625L83.5777 153.373C84.1813 151.61 85.6223 150.123 87.2843 149.318C89.7943 148.103 92.019 148.875 94.497 149.721C95.071 149.203 95.5435 148.52 96.0162 147.911L106.801 133.905C107.291 133.836 107.825 133.873 108.321 133.871L119.971 133.868L151.089 133.887C151.572 134.585 151.968 135.251 152.5 135.967L159.562 145.656C159.833 146.03 162.253 149.508 162.321 149.537C162.321 149.537 162.51 149.459 162.527 149.452C164.218 148.77 166.112 148.506 167.886 149.011C173.463 150.597 173.281 155.195 173.286 159.883L173.291 186.062C173.29 186.91 173.393 188.005 173.148 188.818C172.237 191.838 170.407 193.075 168.231 195.1L137.73 222.135C136.492 223.269 135.272 224.411 133.953 225.452ZM112.684 145.501L105.723 154.327L127.762 162.459C128.178 162.546 131.162 161.299 131.815 161.055L139.779 158.103L150.859 154.044C151.087 153.971 149.391 151.907 149.065 151.469L144.863 145.86C144.62 145.549 144.641 145.54 144.233 145.511L112.684 145.501ZM94.813 162.664L94.8173 185.761C95.3903 186.137 95.8895 186.339 96.4525 186.808L121.762 209.295L127.914 214.963L152.334 193.372L159.74 186.903C161.914 185.037 161.472 186.067 161.479 182.918L161.415 162.701C161.042 162.977 160.18 163.131 159.721 163.303L137.717 171.465L129.902 174.37C129.186 174.611 128.47 174.917 127.743 175.112L94.813 162.664Z"/>
	<path fill="#30C5D2" transform="scale(0.915518 0.915518)" d="M134.717 191.55L133.897 191.724C134.341 191.122 134.552 190.363 134.873 189.688L137.628 183.84C139.026 180.84 140.707 177.89 141.872 174.794L155.668 174.608L156.63 174.513C156.626 174.924 155.666 176.358 155.402 176.808L147.869 189.348C147.828 189.413 143.714 189.891 143.045 189.99L134.717 191.55Z"/>
	<path fill="#30C5D2" transform="scale(0.915518 0.915518)" d="M121.889 191.377L108.114 189.412L99.7848 174.57L108.974 174.612C110.716 174.615 112.555 174.5 114.283 174.734L121.889 191.377Z"/>
	<path fill="#30C5D2" transform="scale(0.915518 0.915518)" d="M185.816 197.778L185.825 201.05C185.828 202.13 186.013 201.818 185.206 202.447C184.757 202.798 184.324 203.188 183.905 203.575L153.219 230.593L139.409 242.918C137.609 244.505 135.957 246.285 133.984 247.669C130.577 250.059 125.879 250.072 122.4 247.799C121.567 247.254 120.81 246.585 120.058 245.936L70.1964 201.683L70.2096 185.355L128.05 237.433L185.807 185.577L185.816 197.778Z"/>
	<path fill="#30C5D2" transform="scale(0.915518 0.915518)" d="M250.047 158.548C255.246 154.666 258.958 155.875 263.645 160.079L295.696 188.584C297.713 190.362 300.286 192.407 300.802 195.198L300.822 195.312C300.933 195.924 300.897 196.555 300.894 197.174L300.872 227.025C300.87 227.786 300.937 228.632 300.763 229.375L300.422 230.627C299.819 232.39 298.378 233.877 296.716 234.682C294.206 235.897 291.981 235.125 289.503 234.279C288.929 234.797 288.457 235.48 287.984 236.089L277.199 250.095C276.709 250.164 276.175 250.127 275.679 250.129L264.029 250.132L232.911 250.113C232.428 249.415 232.032 248.749 231.5 248.033L224.438 238.344C224.167 237.97 221.747 234.492 221.679 234.463C221.679 234.463 221.49 234.541 221.473 234.548C219.782 235.23 217.888 235.494 216.113 234.989C210.537 233.403 210.719 228.805 210.714 224.117L210.709 197.938C210.71 197.09 210.607 195.995 210.852 195.182C211.762 192.162 213.593 190.925 215.768 188.9L246.27 161.865C247.508 160.731 248.728 159.589 250.047 158.548ZM271.315 238.499L278.277 229.674L256.238 221.541C255.822 221.454 252.838 222.701 252.185 222.945L244.221 225.897L233.141 229.956C232.913 230.029 234.609 232.093 234.935 232.531L239.137 238.14C239.38 238.451 239.359 238.46 239.767 238.489L271.315 238.499ZM289.187 221.336L289.183 198.239C288.61 197.863 288.111 197.661 287.548 197.192L262.238 174.705L256.086 169.037L231.666 190.628L224.261 197.097C222.086 198.963 222.528 197.933 222.521 201.082L222.585 221.299C222.958 221.023 223.82 220.869 224.279 220.697L246.283 212.535L254.098 209.63C254.814 209.389 255.53 209.082 256.257 208.888L289.187 221.336Z"/>
	<path fill="#30C5D2" transform="scale(0.915518 0.915518)" d="M249.283 192.45L250.103 192.276C249.659 192.878 249.448 193.637 249.127 194.312L246.372 200.16C244.974 203.16 243.293 206.11 242.128 209.206L228.332 209.392L227.37 209.487C227.374 209.076 228.334 207.642 228.598 207.192L236.131 194.652C236.172 194.587 240.286 194.109 240.955 194.01L249.283 192.45Z"/>
	<path fill="#30C5D2" transform="scale(0.915518 0.915518)" d="M262.111 192.623L275.887 194.588L284.215 209.43L275.026 209.388C273.284 209.385 271.445 209.5 269.717 209.266L262.111 192.623Z"/>
	<path fill="#30C5D2" transform="scale(0.915518 0.915518)" d="M198.185 186.222L198.175 182.95C198.172 181.87 197.987 182.182 198.794 181.553C199.244 181.202 199.676 180.812 200.095 180.425L230.781 153.407L244.591 141.083C246.391 139.494 248.043 137.715 250.016 136.331C253.423 133.941 258.121 133.928 261.6 136.201C262.433 136.746 263.19 137.415 263.942 138.065L313.804 182.317L313.79 198.645L255.95 146.567L198.193 198.423L198.185 186.222Z"/>
	<path fill="#30C5D2" transform="scale(0.915518 0.915518)" d="M389.953 225.452C384.754 229.335 381.042 228.126 376.355 223.921L344.303 195.416C342.287 193.638 339.714 191.593 339.198 188.802L339.178 188.688C339.067 188.076 339.103 187.445 339.106 186.826L339.128 156.975C339.13 156.214 339.063 155.369 339.237 154.625L339.578 153.373C340.181 151.61 341.622 150.123 343.284 149.318C345.794 148.103 348.019 148.875 350.497 149.721C351.071 149.203 351.543 148.52 352.016 147.911L362.801 133.905C363.291 133.836 363.825 133.873 364.321 133.871L375.971 133.868L407.089 133.887C407.572 134.585 407.968 135.251 408.5 135.967L415.562 145.656C415.833 146.03 418.253 149.508 418.321 149.537C418.321 149.537 418.51 149.459 418.527 149.452C420.218 148.77 422.112 148.506 423.886 149.011C429.463 150.597 429.281 155.195 429.286 159.883L429.291 186.062C429.29 186.91 429.393 188.005 429.148 188.818C428.237 191.838 426.407 193.075 424.231 195.1L393.73 222.135C392.492 223.269 391.272 224.411 389.953 225.452ZM368.685 145.501L361.723 154.327L383.762 162.459C384.178 162.546 387.162 161.299 387.815 161.055L395.779 158.103L406.859 154.044C407.087 153.971 405.391 151.907 405.065 151.469L400.863 145.86C400.62 145.549 400.641 145.54 400.233 145.511L368.685 145.501ZM350.813 162.664L350.817 185.761C351.39 186.137 351.889 186.339 352.452 186.808L377.762 209.295L383.914 214.963L408.334 193.372L415.74 186.903C417.914 185.037 417.472 186.067 417.479 182.918L417.415 162.701C417.042 162.977 416.18 163.131 415.721 163.303L393.717 171.465L385.902 174.37C385.186 174.611 384.47 174.917 383.743 175.112L350.813 162.664Z"/>
	<path fill="#30C5D2" transform="scale(0.915518 0.915518)" d="M390.717 191.55L389.897 191.724C390.341 191.122 390.552 190.363 390.873 189.688L393.628 183.84C395.026 180.84 396.707 177.89 397.872 174.794L411.668 174.608L412.63 174.513C412.626 174.924 411.666 176.358 411.402 176.808L403.869 189.348C403.828 189.413 399.714 189.891 399.045 189.99L390.717 191.55Z"/>
	<path fill="#30C5D2" transform="scale(0.915518 0.915518)" d="M377.889 191.377L364.113 189.412L355.785 174.57L364.974 174.612C366.716 174.615 368.555 174.5 370.283 174.734L377.889 191.377Z"/>
	<path fill="#30C5D2" transform="scale(0.915518 0.915518)" d="M441.816 197.778L441.825 201.05C441.828 202.13 442.013 201.818 441.206 202.447C440.757 202.798 440.324 203.188 439.905 203.575L409.219 230.593L395.409 242.918C393.609 244.505 391.957 246.285 389.984 247.669C386.577 250.059 381.879 250.072 378.4 247.799C377.567 247.254 376.81 246.585 376.058 245.936L326.196 201.683L326.21 185.355L384.05 237.433L441.807 185.577L441.816 197.778Z"/>
	<path fill="#30C5D2" transform="scale(0.915518 0.915518)" d="M506.047 158.548C511.246 154.666 514.958 155.875 519.645 160.079L551.696 188.584C553.713 190.362 556.286 192.407 556.802 195.198L556.822 195.312C556.933 195.924 556.897 196.555 556.894 197.174L556.872 227.025C556.87 227.786 556.937 228.632 556.763 229.375L556.422 230.627C555.819 232.39 554.378 233.877 552.716 234.682C550.206 235.897 547.981 235.125 545.503 234.279C544.929 234.797 544.457 235.48 543.984 236.089L533.199 250.095C532.708 250.164 532.175 250.127 531.679 250.129L520.029 250.132L488.911 250.113C488.428 249.415 488.032 248.749 487.5 248.033L480.438 238.344C480.167 237.97 477.747 234.492 477.679 234.463C477.679 234.463 477.49 234.541 477.473 234.548C475.782 235.23 473.888 235.494 472.113 234.989C466.537 233.403 466.719 228.805 466.714 224.117L466.709 197.938C466.71 197.09 466.607 195.995 466.852 195.182C467.762 192.162 469.593 190.925 471.769 188.9L502.27 161.865C503.508 160.731 504.728 159.589 506.047 158.548ZM527.316 238.499L534.277 229.674L512.238 221.541C511.822 221.454 508.838 222.701 508.185 222.945L500.221 225.897L489.141 229.956C488.913 230.029 490.609 232.093 490.935 232.531L495.137 238.14C495.38 238.451 495.359 238.46 495.767 238.489L527.316 238.499ZM545.187 221.336L545.183 198.239C544.61 197.863 544.111 197.661 543.548 197.192L518.238 174.705L512.086 169.037L487.666 190.628L480.26 197.097C478.086 198.963 478.528 197.933 478.521 201.082L478.585 221.299C478.958 221.023 479.82 220.869 480.279 220.697L502.283 212.535L510.098 209.63C510.814 209.389 511.53 209.082 512.257 208.888L545.187 221.336Z"/>
	<path fill="#30C5D2" transform="scale(0.915518 0.915518)" d="M505.283 192.45L506.103 192.276C505.659 192.878 505.449 193.637 505.127 194.312L502.372 200.16C500.974 203.16 499.293 206.11 498.128 209.206L484.332 209.392L483.37 209.487C483.374 209.076 484.334 207.642 484.598 207.192L492.131 194.652C492.172 194.587 496.286 194.109 496.955 194.01L505.283 192.45Z"/>
	<path fill="#30C5D2" transform="scale(0.915518 0.915518)" d="M454.185 186.222L454.175 182.95C454.172 181.87 453.986 182.182 454.794 181.553C455.243 181.202 455.676 180.812 456.095 180.425L486.781 153.407L500.591 141.083C502.391 139.494 504.043 137.715 506.016 136.331C509.423 133.941 514.121 133.928 517.6 136.201C518.433 136.746 519.19 137.415 519.942 138.065L569.804 182.317L569.79 198.645L511.95 146.567L454.193 198.423L454.185 186.222Z"/>
	<path fill="#30C5D2" transform="scale(0.915518 0.915518)" d="M69.9527 353.452C64.754 357.335 61.042 356.126 56.3552 351.921L24.3035 323.416C22.2868 321.638 19.7138 319.593 19.1982 316.802L19.1779 316.688C19.0668 316.076 19.1026 315.445 19.1064 314.826L19.1277 284.975C19.1296 284.214 19.0628 283.368 19.2373 282.625L19.5777 281.373C20.1813 279.61 21.6223 278.123 23.2843 277.318C25.7943 276.103 28.019 276.875 30.497 277.721C31.071 277.203 31.5435 276.52 32.0162 275.911L42.8013 261.905C43.2915 261.836 43.825 261.873 44.321 261.871L55.9708 261.868L87.0885 261.887C87.572 262.585 87.9677 263.251 88.5 263.967L95.5623 273.656C95.8328 274.03 98.253 277.508 98.3213 277.537C98.3213 277.537 98.5097 277.459 98.5268 277.452C100.218 276.77 102.112 276.506 103.886 277.011C109.463 278.598 109.281 283.195 109.286 287.884L109.291 314.062C109.29 314.91 109.393 316.005 109.148 316.818C108.237 319.837 106.407 321.075 104.231 323.1L73.73 350.135C72.492 351.269 71.2722 352.411 69.9527 353.452ZM48.6845 273.501L41.7233 282.327L63.762 290.459C64.1783 290.546 67.162 289.299 67.8155 289.055L75.7793 286.103L86.8588 282.044C87.0872 281.971 85.391 279.907 85.0653 279.469L80.8635 273.86C80.6205 273.549 80.6412 273.54 80.2335 273.511L48.6845 273.501ZM30.813 290.664L30.8173 313.761C31.3903 314.137 31.8895 314.339 32.4525 314.808L57.762 337.295L63.9143 342.963L88.334 321.372L95.7395 314.903C97.914 313.037 97.472 314.067 97.4788 310.918L97.4147 290.701C97.042 290.977 96.1803 291.131 95.721 291.303L73.7173 299.465L65.902 302.37C65.1857 302.611 64.4702 302.918 63.7433 303.112L30.813 290.664Z"/>
	<path fill="#30C5D2" transform="scale(0.915518 0.915518)" d="M70.717 319.55L69.897 319.724C70.341 319.122 70.5515 318.363 70.8727 317.688L73.628 311.84C75.0265 308.84 76.7073 305.89 77.8718 302.794L91.6677 302.608L92.6298 302.514C92.626 302.925 91.666 304.358 91.4018 304.808L83.869 317.348C83.828 317.413 79.7138 317.891 79.045 317.99L70.717 319.55Z"/>
	<path fill="#30C5D2" transform="scale(0.915518 0.915518)" d="M57.8892 319.377L44.1135 317.412L35.7848 302.57L44.974 302.612C46.716 302.615 48.555 302.5 50.283 302.734L57.8892 319.377Z"/>
	<path fill="#30C5D2" transform="scale(0.915518 0.915518)" d="M121.816 325.778L121.825 329.05C121.828 330.13 122.013 329.818 121.206 330.447C120.757 330.798 120.324 331.188 119.905 331.575L89.2188 358.593L75.409 370.918C73.609 372.505 71.9573 374.285 69.9843 375.669C66.5773 378.059 61.8785 378.072 58.4002 375.799C57.5675 375.254 56.81 374.585 56.0583 373.936L6.19642 329.683L6.20963 313.355L64.0498 365.433L121.807 313.577L121.816 325.778Z"/>
	<path fill="#30C5D2" transform="scale(0.915518 0.915518)" d="M186.047 286.548C191.246 282.666 194.958 283.875 199.645 288.079L231.696 316.584C233.713 318.362 236.286 320.407 236.802 323.198L236.822 323.312C236.933 323.924 236.897 324.555 236.894 325.174L236.872 355.025C236.87 355.786 236.937 356.632 236.763 357.375L236.422 358.627C235.819 360.39 234.378 361.877 232.716 362.682C230.206 363.897 227.981 363.125 225.503 362.279C224.929 362.797 224.457 363.48 223.984 364.089L213.199 378.095C212.709 378.164 212.175 378.127 211.679 378.129L200.029 378.132L168.911 378.113C168.428 377.415 168.032 376.749 167.5 376.033L160.438 366.344C160.167 365.97 157.747 362.492 157.679 362.463C157.679 362.463 157.49 362.541 157.473 362.548C155.782 363.23 153.888 363.494 152.113 362.989C146.537 361.403 146.719 356.805 146.714 352.116L146.709 325.938C146.71 325.09 146.607 323.995 146.852 323.182C147.762 320.163 149.593 318.925 151.768 316.9L182.27 289.865C183.508 288.731 184.728 287.589 186.047 286.548ZM207.315 366.499L214.277 357.674L192.238 349.541C191.822 349.454 188.838 350.701 188.185 350.945L180.221 353.897L169.141 357.956C168.913 358.029 170.609 360.093 170.935 360.531L175.137 366.14C175.38 366.451 175.359 366.46 175.767 366.489L207.315 366.499ZM225.187 349.336L225.183 326.239C224.61 325.863 224.111 325.661 223.548 325.192L198.238 302.705L192.086 297.037L167.666 318.628L160.261 325.097C158.086 326.963 158.528 325.933 158.521 329.082L158.585 349.299C158.958 349.023 159.82 348.869 160.279 348.697L182.283 340.535L190.098 337.63C190.814 337.389 191.53 337.082 192.257 336.888L225.187 349.336Z"/>
	<path fill="#30C5D2" transform="scale(0.915518 0.915518)" d="M185.283 320.45L186.103 320.276C185.659 320.878 185.448 321.637 185.127 322.312L182.372 328.16C180.974 331.16 179.293 334.11 178.128 337.206L164.332 337.392L163.37 337.486C163.374 337.076 164.334 335.642 164.598 335.192L172.131 322.652C172.172 322.587 176.286 322.109 176.955 322.01L185.283 320.45Z"/>
	<path fill="#30C5D2" transform="scale(0.915518 0.915518)" d="M198.111 320.623L211.887 322.588L220.215 337.43L211.026 337.388C209.284 337.385 207.445 337.5 205.717 337.266L198.111 320.623Z"/>
	<path fill="#30C5D2" transform="scale(0.915518 0.915518)" d="M134.185 314.222L134.175 310.95C134.172 309.87 133.987 310.182 134.794 309.553C135.244 309.202 135.676 308.812 136.095 308.425L166.781 281.407L180.591 269.082C182.391 267.495 184.043 265.715 186.016 264.331C189.423 261.941 194.121 261.928 197.6 264.201C198.433 264.746 199.19 265.415 199.942 266.065L249.804 310.317L249.79 326.645L191.95 274.567L134.193 326.423L134.185 314.222Z"/>
	<path fill="#30C5D2" transform="scale(0.915518 0.915518)" d="M325.953 353.452C320.754 357.335 317.042 356.126 312.355 351.921L280.303 323.416C278.287 321.638 275.714 319.593 275.198 316.802L275.178 316.688C275.067 316.076 275.103 315.445 275.106 314.826L275.128 284.975C275.13 284.214 275.063 283.368 275.237 282.625L275.578 281.373C276.181 279.61 277.622 278.123 279.284 277.318C281.794 276.103 284.019 276.875 286.497 277.721C287.071 277.203 287.543 276.52 288.016 275.911L298.801 261.905C299.291 261.836 299.825 261.873 300.321 261.871L311.971 261.868L343.089 261.887C343.572 262.585 343.968 263.251 344.5 263.967L351.562 273.656C351.833 274.03 354.253 277.508 354.321 277.537C354.321 277.537 354.51 277.459 354.527 277.452C356.218 276.77 358.112 276.506 359.886 277.011C365.463 278.598 365.281 283.195 365.286 287.884L365.291 314.062C365.29 314.91 365.393 316.005 365.148 316.818C364.237 319.837 362.407 321.075 360.231 323.1L329.73 350.135C328.492 351.269 327.272 352.411 325.953 353.452ZM304.685 273.501L297.723 282.327L319.762 290.459C320.178 290.546 323.162 289.299 323.815 289.055L331.779 286.103L342.859 282.044C343.087 281.971 341.391 279.907 341.065 279.469L336.863 273.86C336.62 273.549 336.641 273.54 336.233 273.511L304.685 273.501ZM286.813 290.664L286.817 313.761C287.39 314.137 287.889 314.339 288.452 314.808L313.762 337.295L319.914 342.963L344.334 321.372L351.74 314.903C353.914 313.037 353.472 314.067 353.479 310.918L353.415 290.701C353.042 290.977 352.18 291.131 351.721 291.303L329.717 299.465L321.902 302.37C321.186 302.611 320.47 302.918 319.743 303.112L286.813 290.664Z"/>
	<path fill="#30C5D2" transform="scale(0.915518 0.915518)" d="M326.717 319.55L325.897 319.724C326.341 319.122 326.552 318.363 326.873 317.688L329.628 311.84C331.026 308.84 332.707 305.89 333.872 302.794L347.668 302.608L348.63 302.514C348.626 302.925 347.666 304.358 347.402 304.808L339.869 317.348C339.828 317.413 335.714 317.891 335.045 317.99L326.717 319.55Z"/>
	<path fill="#30C5D2" transform="scale(0.915518 0.915518)" d="M313.889 319.377L300.113 317.412L291.785 302.57L300.974 302.612C302.716 302.615 304.555 302.5 306.283 302.734L313.889 319.377Z"/>
	<path fill="#30C5D2" transform="scale(0.915518 0.915518)" d="M377.816 325.778L377.825 329.05C377.828 330.13 378.013 329.818 377.206 330.447C376.757 330.798 376.324 331.188 375.905 331.575L345.219 358.593L331.409 370.918C329.609 372.505 327.957 374.285 325.984 375.669C322.577 378.059 317.879 378.072 314.4 375.799C313.567 375.254 312.81 374.585 312.058 373.936L262.196 329.683L262.21 313.355L320.05 365.433L377.807 313.577L377.816 325.778Z"/>
	<path fill="#30C5D2" transform="scale(0.915518 0.915518)" d="M442.047 286.548C447.246 282.666 450.958 283.875 455.645 288.079L487.696 316.584C489.713 318.362 492.286 320.407 492.802 323.198L492.822 323.312C492.933 323.924 492.897 324.555 492.894 325.174L492.872 355.025C492.87 355.786 492.937 356.632 492.763 357.375L492.422 358.627C491.819 360.39 490.378 361.877 488.716 362.682C486.206 363.897 483.981 363.125 481.503 362.279C480.929 362.797 480.457 363.48 479.984 364.089L469.199 378.095C468.709 378.164 468.175 378.127 467.679 378.129L456.029 378.132L424.911 378.113C424.428 377.415 424.032 376.749 423.5 376.033L416.438 366.344C416.167 365.97 413.747 362.492 413.679 362.463C413.679 362.463 413.49 362.541 413.473 362.548C411.782 363.23 409.888 363.494 408.113 362.989C402.537 361.403 402.719 356.805 402.714 352.116L402.709 325.938C402.71 325.09 402.607 323.995 402.852 323.182C403.762 320.163 405.593 318.925 407.769 316.9L438.27 289.865C439.508 288.731 440.728 287.589 442.047 286.548ZM463.315 366.499L470.277 357.674L448.238 349.541C447.822 349.454 444.838 350.701 444.185 350.945L436.221 353.897L425.141 357.956C424.913 358.029 426.609 360.093 426.935 360.531L431.137 366.14C431.38 366.451 431.359 366.46 431.767 366.489L463.315 366.499ZM481.187 349.336L481.183 326.239C480.61 325.863 480.111 325.661 479.548 325.192L454.238 302.705L448.086 297.037L423.666 318.628L416.26 325.097C414.086 326.963 414.528 325.933 414.521 329.082L414.585 349.299C414.958 349.023 415.82 348.869 416.279 348.697L438.283 340.535L446.098 337.63C446.814 337.389 447.53 337.082 448.257 336.888L481.187 349.336Z"/>
	<path fill="#30C5D2" transform="scale(0.915518 0.915518)" d="M441.283 320.45L442.103 320.276C441.659 320.878 441.449 321.637 441.127 322.312L438.372 328.16C436.974 331.16 435.293 334.11 434.128 337.206L420.332 337.392L419.37 337.486C419.374 337.076 420.334 335.642 420.598 335.192L428.131 322.652C428.172 322.587 432.286 322.109 432.955 322.01L441.283 320.45Z"/>
	<path fill="#30C5D2" transform="scale(0.915518 0.915518)" d="M454.111 320.623L467.887 322.588L476.215 337.43L467.026 337.388C465.284 337.385 463.445 337.5 461.717 337.266L454.111 320.623Z"/>
	<path fill="#30C5D2" transform="scale(0.915518 0.915518)" d="M390.185 314.222L390.175 310.95C390.172 309.87 389.986 310.182 390.794 309.553C391.243 309.202 391.676 308.812 392.095 308.425L422.781 281.407L436.591 269.082C438.391 267.495 440.043 265.715 442.016 264.331C445.423 261.941 450.121 261.928 453.6 264.201C454.433 264.746 455.19 265.415 455.942 266.065L505.804 310.317L505.79 326.645L447.95 274.567L390.193 326.423L390.185 314.222Z"/>
	<path fill="#30C5D2" transform="scale(0.915518 0.915518)" d="M-5.9527 414.548C-0.754 410.666 2.958 411.875 7.6448 416.079L39.696 444.584C41.713 446.362 44.286 448.407 44.802 451.198L44.822 451.312C44.933 451.924 44.897 452.555 44.894 453.174L44.872 483.025C44.87 483.786 44.937 484.632 44.763 485.375L44.422 486.627C43.819 488.39 42.378 489.877 40.716 490.682C38.206 491.897 35.981 491.125 33.503 490.279C32.929 490.797 32.4565 491.48 31.9838 492.089L21.1987 506.095C20.7085 506.164 20.175 506.127 19.679 506.129L8.0292 506.132L-23.0885 506.113C-23.572 505.415 -23.9677 504.749 -24.5 504.033L-31.5623 494.344C-31.8328 493.97 -34.253 490.492 -34.3213 490.463C-34.3213 490.463 -34.5097 490.541 -34.5268 490.548C-36.2182 491.23 -38.112 491.494 -39.8865 490.989C-45.4633 489.403 -45.2812 484.805 -45.2862 480.116L-45.2913 453.938C-45.2903 453.09 -45.3928 451.995 -45.1478 451.182C-44.2375 448.163 -42.407 446.925 -40.2315 444.9L-9.73 417.865C-8.492 416.731 -7.2722 415.589 -5.9527 414.548ZM15.3155 494.499L22.2767 485.674L0.238 477.541C-0.1783 477.454 -3.162 478.701 -3.8155 478.945L-11.7793 481.897L-22.8588 485.956C-23.0872 486.029 -21.391 488.093 -21.0653 488.531L-16.8635 494.14C-16.6205 494.451 -16.6412 494.46 -16.2335 494.489L15.3155 494.499ZM33.187 477.336L33.1827 454.239C32.6097 453.863 32.1105 453.661 31.5475 453.192L6.238 430.705L0.0857 425.037L-24.334 446.628L-31.7395 453.097C-33.914 454.963 -33.472 453.933 -33.4788 457.082L-33.4147 477.299C-33.042 477.023 -32.1803 476.869 -31.721 476.697L-9.7173 468.535L-1.902 465.63C-1.1857 465.389 -0.4702 465.082 0.2567 464.888L33.187 477.336Z"/>
	<path fill="#30C5D2" transform="scale(0.915518 0.915518)" d="M6.1107 448.623L19.8865 450.588L28.2152 465.43L19.026 465.388C17.284 465.385 15.445 465.5 13.717 465.266L6.1107 448.623Z"/>
	<path fill="#30C5D2" transform="scale(0.915518 0.915518)" d="M-57.8155 442.222L-57.8245 438.95C-57.828 437.87 -58.0135 438.182 -57.2062 437.553C-56.7565 437.202 -56.324 436.812 -55.9053 436.425L-25.2188 409.407L-11.409 397.082C-9.609 395.495 -7.9573 393.715 -5.9843 392.331C-2.5773 389.941 2.1215 389.928 5.5998 392.201C6.4325 392.746 7.19 393.415 7.9417 394.065L57.804 438.317L57.79 454.645L-0.0498 402.567L-57.8072 454.423L-57.8155 442.222Z"/>
	<path fill="#30C5D2" transform="scale(0.915518 0.915518)" d="M133.953 481.452C128.754 485.335 125.042 484.126 120.355 479.921L88.3035 451.416C86.2868 449.638 83.7138 447.593 83.1982 444.802L83.1779 444.688C83.0668 444.076 83.1026 443.445 83.1064 442.826L83.1277 412.975C83.1296 412.214 83.0628 411.368 83.2373 410.625L83.5777 409.373C84.1813 407.61 85.6223 406.123 87.2843 405.318C89.7943 404.103 92.019 404.875 94.497 405.721C95.071 405.203 95.5435 404.52 96.0162 403.911L106.801 389.905C107.291 389.836 107.825 389.873 108.321 389.871L119.971 389.868L151.089 389.887C151.572 390.585 151.968 391.251 152.5 391.967L159.562 401.656C159.833 402.03 162.253 405.508 162.321 405.537C162.321 405.537 162.51 405.459 162.527 405.452C164.218 404.77 166.112 404.506 167.886 405.011C173.463 406.598 173.281 411.195 173.286 415.884L173.291 442.062C173.29 442.91 173.393 444.005 173.148 444.818C172.237 447.837 170.407 449.075 168.231 451.1L137.73 478.135C136.492 479.269 135.272 480.411 133.953 481.452ZM112.684 401.501L105.723 410.327L127.762 418.459C128.178 418.546 131.162 417.299 131.815 417.055L139.779 414.103L150.859 410.044C151.087 409.971 149.391 407.907 149.065 407.469L144.863 401.86C144.62 401.549 144.641 401.54 144.233 401.511L112.684 401.501ZM94.813 418.664L94.8173 441.761C95.3903 442.137 95.8895 442.339 96.4525 442.808L121.762 465.295L127.914 470.963L152.334 449.372L159.74 442.903C161.914 441.037 161.472 442.067 161.479 438.918L161.415 418.701C161.042 418.977 160.18 419.131 159.721 419.303L137.717 427.465L129.902 430.37C129.186 430.611 128.47 430.918 127.743 431.112L94.813 418.664Z"/>
	<path fill="#30C5D2" transform="scale(0.915518 0.915518)" d="M134.717 447.55L133.897 447.724C134.341 447.122 134.552 446.363 134.873 445.688L137.628 439.84C139.026 436.84 140.707 433.89 141.872 430.794L155.668 430.608L156.63 430.514C156.626 430.925 155.666 432.358 155.402 432.808L147.869 445.348C147.828 445.413 143.714 445.891 143.045 445.99L134.717 447.55Z"/>
	<path fill="#30C5D2" transform="scale(0.915518 0.915518)" d="M121.889 447.377L108.114 445.412L99.7848 430.57L108.974 430.612C110.716 430.615 112.555 430.5 114.283 430.734L121.889 447.377Z"/>
	<path fill="#30C5D2" transform="scale(0.915518 0.915518)" d="M185.816 453.778L185.825 457.05C185.828 458.13 186.013 457.818 185.206 458.447C184.757 458.798 184.324 459.188 183.905 459.575L153.219 486.593L139.409 498.918C137.609 500.505 135.957 502.285 133.984 503.669C130.577 506.059 125.879 506.072 122.4 503.799C121.567 503.254 120.81 502.585 120.058 501.936L70.1964 457.683L70.2096 441.355L128.05 493.433L185.807 441.577L185.816 453.778Z"/>
	<path fill="#30C5D2" transform="scale(0.915518 0.915518)" d="M250.047 414.548C255.246 410.666 258.958 411.875 263.645 416.079L295.696 444.584C297.713 446.362 300.286 448.407 300.802 451.198L300.822 451.312C300.933 451.924 300.897 452.555 300.894 453.174L300.872 483.025C300.87 483.786 300.937 484.632 300.763 485.375L300.422 486.627C299.819 488.39 298.378 489.877 296.716 490.682C294.206 491.897 291.981 491.125 289.503 490.279C288.929 490.797 288.457 491.48 287.984 492.089L277.199 506.095C276.709 506.164 276.175 506.127 275.679 506.129L264.029 506.132L232.911 506.113C232.428 505.415 232.032 504.749 231.5 504.033L224.438 494.344C224.167 493.97 221.747 490.492 221.679 490.463C221.679 490.463 221.49 490.541 221.473 490.548C219.782 491.23 217.888 491.494 216.113 490.989C210.537 489.403 210.719 484.805 210.714 480.116L210.709 453.938C210.71 453.09 210.607 451.995 210.852 451.182C211.762 448.163 213.593 446.925 215.768 444.9L246.27 417.865C247.508 416.731 248.728 415.589 250.047 414.548ZM271.315 494.499L278.277 485.674L256.238 477.541C255.822 477.454 252.838 478.701 252.185 478.945L244.221 481.897L233.141 485.956C232.913 486.029 234.609 488.093 234.935 488.531L239.137 494.14C239.38 494.451 239.359 494.46 239.767 494.489L271.315 494.499ZM289.187 477.336L289.183 454.239C288.61 453.863 288.111 453.661 287.548 453.192L262.238 430.705L256.086 425.037L231.666 446.628L224.261 453.097C222.086 454.963 222.528 453.933 222.521 457.082L222.585 477.299C222.958 477.023 223.82 476.869 224.279 476.697L246.283 468.535L254.098 465.63C254.814 465.389 255.53 465.082 256.257 464.888L289.187 477.336Z"/>
	<path fill="#30C5D2" transform="scale(0.915518 0.915518)" d="M249.283 448.45L250.103 448.276C249.659 448.878 249.448 449.637 249.127 450.312L246.372 456.16C244.974 459.16 243.293 462.11 242.128 465.206L228.332 465.392L227.37 465.486C227.374 465.076 228.334 463.642 228.598 463.192L236.131 450.652C236.172 450.587 240.286 450.109 240.955 450.01L249.283 448.45Z"/>
	<path fill="#30C5D2" transform="scale(0.915518 0.915518)" d="M262.111 448.623L275.887 450.588L284.215 465.43L275.026 465.388C273.284 465.385 271.445 465.5 269.717 465.266L262.111 448.623Z"/>
	<path fill="#30C5D2" transform="scale(0.915518 0.915518)" d="M198.185 442.222L198.175 438.95C198.172 437.87 197.987 438.182 198.794 437.553C199.244 437.202 199.676 436.812 200.095 436.425L230.781 409.407L244.591 397.082C246.391 395.495 248.043 393.715 250.016 392.331C253.423 389.941 258.121 389.928 261.6 392.201C262.433 392.746 263.19 393.415 263.942 394.065L313.804 438.317L313.79 454.645L255.95 402.567L198.193 454.423L198.185 442.222Z"/>
	<path fill="#30C5D2" transform="scale(0.915518 0.915518)" d="M389.953 481.452C384.754 485.335 381.042 484.126 376.355 479.921L344.303 451.416C342.287 449.638 339.714 447.593 339.198 444.802L339.178 444.688C339.067 444.076 339.103 443.445 339.106 442.826L339.128 412.975C339.13 412.214 339.063 411.368 339.237 410.625L339.578 409.373C340.181 407.61 341.622 406.123 343.284 405.318C345.794 404.103 348.019 404.875 350.497 405.721C351.071 405.203 351.543 404.52 352.016 403.911L362.801 389.905C363.291 389.836 363.825 389.873 364.321 389.871L375.971 389.868L407.089 389.887C407.572 390.585 407.968 391.251 408.5 391.967L415.562 401.656C415.833 402.03 418.253 405.508 418.321 405.537C418.321 405.537 418.51 405.459 418.527 405.452C420.218 404.77 422.112 404.506 423.886 405.011C429.463 406.598 429.281 411.195 429.286 415.884L429.291 442.062C429.29 442.91 429.393 444.005 429.148 444.818C428.237 447.837 426.407 449.075 424.231 451.1L393.73 478.135C392.492 479.269 391.272 480.411 389.953 481.452ZM368.685 401.501L361.723 410.327L383.762 418.459C384.178 418.546 387.162 417.299 387.815 417.055L395.779 414.103L406.859 410.044C407.087 409.971 405.391 407.907 405.065 407.469L400.863 401.86C400.62 401.549 400.641 401.54 400.233 401.511L368.685 401.501ZM350.813 418.664L350.817 441.761C351.39 442.137 351.889 442.339 352.452 442.808L377.762 465.295L383.914 470.963L408.334 449.372L415.74 442.903C417.914 441.037 417.472 442.067 417.479 438.918L417.415 418.701C417.042 418.977 416.18 419.131 415.721 419.303L393.717 427.465L385.902 430.37C385.186 430.611 384.47 430.918 383.743 431.112L350.813 418.664Z"/>
	<path fill="#30C5D2" transform="scale(0.915518 0.915518)" d="M390.717 447.55L389.897 447.724C390.341 447.122 390.552 446.363 390.873 445.688L393.628 439.84C395.026 436.84 396.707 433.89 397.872 430.794L411.668 430.608L412.63 430.514C412.626 430.925 411.666 432.358 411.402 432.808L403.869 445.348C403.828 445.413 399.714 445.891 399.045 445.99L390.717 447.55Z"/>
	<path fill="#30C5D2" transform="scale(0.915518 0.915518)" d="M377.889 447.377L364.113 445.412L355.785 430.57L364.974 430.612C366.716 430.615 368.555 430.5 370.283 430.734L377.889 447.377Z"/>
	<path fill="#30C5D2" transform="scale(0.915518 0.915518)" d="M441.816 453.778L441.825 457.05C441.828 458.13 442.013 457.818 441.206 458.447C440.757 458.798 440.324 459.188 439.905 459.575L409.219 486.593L395.409 498.918C393.609 500.505 391.957 502.285 389.984 503.669C386.577 506.059 381.879 506.072 378.4 503.799C377.567 503.254 376.81 502.585 376.058 501.936L326.196 457.683L326.21 441.355L384.05 493.433L441.807 441.577L441.816 453.778Z"/>
	<path fill="#30C5D2" transform="scale(0.915518 0.915518)" d="M506.047 414.548C511.246 410.666 514.958 411.875 519.645 416.079L551.696 444.584C553.713 446.362 556.286 448.407 556.802 451.198L556.822 451.312C556.933 451.924 556.897 452.555 556.894 453.174L556.872 483.025C556.87 483.786 556.937 484.632 556.763 485.375L556.422 486.627C555.819 488.39 554.378 489.877 552.716 490.682C550.206 491.897 547.981 491.125 545.503 490.279C544.929 490.797 544.457 491.48 543.984 492.089L533.199 506.095C532.708 506.164 532.175 506.127 531.679 506.129L520.029 506.132L488.911 506.113C488.428 505.415 488.032 504.749 487.5 504.033L480.438 494.344C480.167 493.97 477.747 490.492 477.679 490.463C477.679 490.463 477.49 490.541 477.473 490.548C475.782 491.23 473.888 491.494 472.113 490.989C466.537 489.403 466.719 484.805 466.714 480.116L466.709 453.938C466.71 453.09 466.607 451.995 466.852 451.182C467.762 448.163 469.593 446.925 471.769 444.9L502.27 417.865C503.508 416.731 504.728 415.589 506.047 414.548ZM527.316 494.499L534.277 485.674L512.238 477.541C511.822 477.454 508.838 478.701 508.185 478.945L500.221 481.897L489.141 485.956C488.913 486.029 490.609 488.093 490.935 488.531L495.137 494.14C495.38 494.451 495.359 494.46 495.767 494.489L527.316 494.499ZM545.187 477.336L545.183 454.239C544.61 453.863 544.111 453.661 543.548 453.192L518.238 430.705L512.086 425.037L487.666 446.628L480.26 453.097C478.086 454.963 478.528 453.933 478.521 457.082L478.585 477.299C478.958 477.023 479.82 476.869 480.279 476.697L502.283 468.535L510.098 465.63C510.814 465.389 511.53 465.082 512.257 464.888L545.187 477.336Z"/>
	<path fill="#30C5D2" transform="scale(0.915518 0.915518)" d="M505.283 448.45L506.103 448.276C505.659 448.878 505.449 449.637 505.127 450.312L502.372 456.16C500.974 459.16 499.293 462.11 498.128 465.206L484.332 465.392L483.37 465.486C483.374 465.076 484.334 463.642 484.598 463.192L492.131 450.652C492.172 450.587 496.286 450.109 496.955 450.01L505.283 448.45Z"/>
	<path fill="#30C5D2" transform="scale(0.915518 0.915518)" d="M454.185 442.222L454.175 438.95C454.172 437.87 453.986 438.182 454.794 437.553C455.243 437.202 455.676 436.812 456.095 436.425L486.781 409.407L500.591 397.082C502.391 395.495 504.043 393.715 506.016 392.331C509.423 389.941 514.121 389.928 517.6 392.201C518.433 392.746 519.19 393.415 519.942 394.065L569.804 438.317L569.79 454.645L511.95 402.567L454.193 454.423L454.185 442.222Z"/>
</svg>
