<?xml version="1.0" encoding="utf-8" ?>
<svg xmlns="http://www.w3.org/2000/svg" xmlns:xlink="http://www.w3.org/1999/xlink" width="512" height="512">
	<path d="M259.475 113.53C234.17 115.88 212.121 96.7233 209.814 71.6157C207.518 46.6316 227.809 25.3937 252.141 23.3531C274.76 22.3202 297.866 37.7567 300.714 61.25C304.034 88.6415 286.884 110.225 259.475 113.53Z"/>
	<path d="M82.1144 205.605C72.9507 191.678 66.488 176.224 62.9304 159.916C62.0317 155.796 61.731 151.584 60.8782 147.488L60.749 146.889C59.9991 142.573 60.2263 137.754 60.2301 133.375C60.2502 109.884 67.5553 86.2948 79.4318 66.1098C81.4892 62.6131 91.1433 46.6933 95.3701 46.2382C101.604 45.567 100.128 52.5874 99.2985 55.922L97.4805 64.0986C91.2102 97.7775 98.4339 133.72 119.649 161.012C126.336 169.614 133.963 176.894 142.143 184.053L165.684 158.293C145.396 145.194 131.02 124.368 130.309 99.7756C130.101 92.5762 131.136 80.7322 138.3 76.8192L167.576 76.8361C172.573 76.842 177.836 76.5267 182.81 76.9211C190.428 77.5252 179.856 85.8886 180.006 92.7645C180.311 106.647 195.916 116.41 207.245 121.075C239.093 134.187 299.31 135.088 323.847 108.352C328.939 102.803 333.194 93.6544 329.234 86.3398C327.706 83.5171 321.601 77.6509 328.687 77.047C332.043 76.7611 335.479 76.8738 338.846 76.8673L366.847 76.8495C371.175 76.8535 374.206 76.0114 377.107 79.8408C380.845 84.7739 381.476 90.437 381.62 96.4141C382.315 125.212 366.506 142.276 345.308 158.371L368.93 184.116C370.978 182.75 372.85 180.942 374.661 179.278L382.461 171.698C408.972 143.342 421.344 102.901 414.734 64.6605L413.056 56.1209C412.175 52.1124 410.575 48.2242 415.081 45.9928L415.326 45.875C419.27 45.0233 422.733 51.4998 424.604 54.1317C443.337 80.4891 453.294 109.525 451.19 142.399C449.362 170.95 437.427 200.333 417.101 220.734C402.277 235.613 371.998 253.576 351.308 260.868C349.377 259.528 347.63 257.705 345.875 256.136L310.762 223.728C309.367 222.438 300.251 214.27 299.847 213.363L299.899 438.997C299.884 452.063 296.364 462.944 286.656 472.491C261.108 497.616 217.769 482.108 212.341 447.918C211.864 444.917 212.004 441.653 211.999 438.618L211.915 213.514C211.038 214.553 210.076 214.966 209.068 215.845L178.127 244.543C172.297 249.955 166.317 255.17 160.959 261.069C130.285 249.434 101.197 232.77 82.1144 205.605Z"/>
</svg>
