<?xml version="1.0" encoding="utf-8" ?>
<svg xmlns="http://www.w3.org/2000/svg" xmlns:xlink="http://www.w3.org/1999/xlink" width="512" height="512">
	<path fill="#F02" d="M0 0L0 512L512 512L512 0L0 0Z"/>
	<path fill="#011627" d="M258.694 145.53C239.073 147.352 221.977 132.498 220.188 113.03C218.408 93.6577 234.141 77.19 253.008 75.6078C270.546 74.8069 288.463 86.7762 290.671 104.993C293.245 126.232 279.947 142.967 258.694 145.53Z"/>
	<path fill="#011627" d="M121.171 216.924C114.065 206.125 109.054 194.142 106.296 181.497C105.599 178.303 105.366 175.037 104.704 171.861L104.604 171.396C104.023 168.05 104.199 164.313 104.202 160.918C104.217 142.703 109.882 124.412 119.091 108.761C120.686 106.05 128.172 93.7055 131.449 93.3527C136.283 92.8322 135.138 98.2758 134.495 100.861L133.085 107.201C128.224 133.316 133.825 161.185 150.275 182.347C155.46 189.017 161.374 194.662 167.716 200.213L185.97 180.239C170.239 170.082 159.092 153.934 158.54 134.865C158.379 129.283 159.182 120.099 164.737 117.065L187.437 117.078C191.311 117.083 195.392 116.838 199.249 117.144C205.156 117.612 196.959 124.097 197.075 129.429C197.311 140.193 209.411 147.763 218.196 151.38C242.89 161.547 289.582 162.246 308.608 141.515C312.556 137.212 315.856 130.119 312.785 124.447C311.6 122.258 306.866 117.71 312.361 117.242C314.963 117.02 317.627 117.107 320.238 117.102L341.95 117.088C345.306 117.091 347.656 116.439 349.905 119.408C352.804 123.233 353.293 127.624 353.405 132.259C353.943 154.588 341.685 167.819 325.249 180.299L343.565 200.262C345.153 199.203 346.604 197.801 348.009 196.51L354.057 190.633C374.613 168.646 384.206 137.288 379.081 107.637L377.78 101.016C377.097 97.9075 375.856 94.8926 379.35 93.1624L379.54 93.071C382.598 92.4106 385.283 97.4325 386.734 99.4732C401.259 119.91 408.98 142.425 407.348 167.915C405.931 190.053 396.677 212.836 380.916 228.655C369.422 240.192 345.944 254.12 329.901 259.775C328.404 258.736 327.049 257.322 325.688 256.105L298.462 230.977C297.38 229.976 290.312 223.643 289.999 222.94L290.039 397.894C290.027 408.025 287.298 416.462 279.77 423.865C259.961 443.347 226.356 431.322 222.147 404.811C221.777 402.484 221.886 399.954 221.882 397.6L221.817 223.057C221.137 223.862 220.391 224.183 219.609 224.864L195.618 247.116C191.097 251.313 186.461 255.356 182.306 259.93C158.522 250.909 135.967 237.988 121.171 216.924Z"/>
</svg>
