<?xml version="1.0" encoding="utf-8" ?>
<svg xmlns="http://www.w3.org/2000/svg" xmlns:xlink="http://www.w3.org/1999/xlink" width="511" height="511">
	<path fill="#30C5D2" d="M0 0L0 512L512 512L512 0L0 0Z"/>
	<path fill="#471069" d="M267.068 256.7C257.402 263.919 250.5 261.671 241.786 253.854L182.189 200.853C178.44 197.545 173.655 193.744 172.697 188.554L172.659 188.341C172.452 187.204 172.519 186.03 172.526 184.879L172.565 129.375C172.569 127.961 172.445 126.388 172.769 125.005L173.402 122.677C174.525 119.4 177.204 116.634 180.294 115.139C184.961 112.88 189.098 114.314 193.705 115.888C194.773 114.925 195.651 113.655 196.53 112.522L216.584 86.4793C217.495 86.351 218.487 86.4192 219.409 86.4171L241.071 86.4113L298.93 86.4455C299.829 87.7442 300.565 88.983 301.555 90.3145L314.686 108.33C315.189 109.025 319.689 115.491 319.816 115.545C319.816 115.545 320.167 115.399 320.198 115.387C323.343 114.12 326.865 113.628 330.164 114.567C340.533 117.517 340.195 126.066 340.204 134.783L340.213 183.46C340.212 185.036 340.402 187.073 339.947 188.583C338.254 194.198 334.851 196.498 330.805 200.264L274.092 250.531C271.79 252.64 269.522 254.765 267.068 256.7ZM227.523 108.041L214.579 124.451L255.557 139.573C256.331 139.734 261.879 137.415 263.094 136.963L277.902 131.473L298.503 123.925C298.928 123.791 295.774 119.952 295.168 119.137L287.356 108.708C286.904 108.131 286.942 108.113 286.184 108.06L227.523 108.041ZM194.293 139.954L194.301 182.899C195.366 183.598 196.295 183.974 197.341 184.846L244.401 226.658L255.841 237.197L301.246 197.051L315.016 185.023C319.059 181.553 318.237 183.468 318.25 177.613L318.131 140.022C317.437 140.535 315.835 140.822 314.981 141.142L274.068 156.318L259.537 161.719C258.205 162.167 256.874 162.737 255.523 163.099L194.293 139.954Z"/>
	<path fill="#471069" d="M268.489 193.664L266.965 193.987C267.79 192.867 268.182 191.456 268.779 190.2L273.902 179.327C276.502 173.75 279.628 168.265 281.793 162.508L307.445 162.162L309.233 161.986C309.226 162.75 307.441 165.415 306.95 166.251L292.944 189.569C292.868 189.689 285.218 190.579 283.974 190.763L268.489 193.664Z"/>
	<path fill="#471069" d="M244.638 193.343L219.024 189.687L203.537 162.091L220.624 162.169C223.863 162.175 227.282 161.96 230.495 162.396L244.638 193.343Z"/>
	<path fill="#471069" d="M363.501 205.243L363.517 211.327C363.524 213.336 363.869 212.755 362.368 213.925C361.532 214.577 360.727 215.303 359.949 216.022L302.891 266.259L277.214 289.175C273.867 292.127 270.796 295.436 267.127 298.009C260.792 302.453 252.055 302.478 245.588 298.251C244.04 297.238 242.631 295.994 241.233 294.786L148.521 212.503L148.546 182.144L256.093 278.977L363.485 182.557L363.501 205.243Z"/>
	<path fill="#471069" d="M76.5963 427.696L76.5963 366.245L65 366.245L65 359.134L97.4188 359.134L97.4188 366.245L86.1611 366.245L86.1611 427.696L76.5963 427.696ZM103.852 427.696L103.852 378.772L112.909 378.772L112.909 427.696L103.852 427.696ZM103.852 371.492L103.852 362.012L112.909 362.012L112.909 371.492L103.852 371.492ZM140.164 428.373C138.415 428.373 136.849 427.936 135.466 427.061C134.084 426.187 132.885 425.213 131.869 424.141L131.869 427.696L122.812 427.696L122.812 359.134L131.869 359.134L131.869 382.666C132.941 381.424 134.225 380.352 135.72 379.449C137.216 378.546 139.007 378.095 141.095 378.095C143.635 378.095 145.652 378.758 147.147 380.084C148.643 381.41 149.757 383.075 150.491 385.078C151.225 387.081 151.704 389.113 151.93 391.172C152.156 393.232 152.268 394.995 152.268 396.463L152.268 408.313C152.268 411.755 151.93 415.014 151.253 418.089C150.575 421.165 149.362 423.648 147.613 425.538C145.864 427.428 143.381 428.373 140.164 428.373ZM138.302 421.263C139.882 421.263 141.011 420.685 141.688 419.528C142.365 418.371 142.788 416.805 142.957 414.83C143.127 412.855 143.211 410.683 143.211 408.313L143.211 396.463C143.211 394.431 143.099 392.555 142.873 390.834C142.647 389.113 142.167 387.744 141.434 386.728C140.7 385.713 139.543 385.205 137.963 385.205C136.778 385.205 135.664 385.459 134.62 385.967C133.576 386.475 132.659 387.039 131.869 387.66L131.869 419.063C132.659 419.683 133.604 420.205 134.705 420.629C135.805 421.052 137.004 421.263 138.302 421.263ZM161.071 427.696L161.071 378.772L170.128 378.772L170.128 427.696L161.071 427.696ZM161.071 371.492L161.071 362.012L170.128 362.012L170.128 371.492L161.071 371.492ZM187.226 428.373C185.308 428.373 183.615 427.823 182.148 426.723C180.681 425.623 179.524 424.212 178.677 422.491C177.831 420.77 177.408 418.95 177.408 417.031C177.408 413.984 177.916 411.416 178.931 409.328C179.947 407.241 181.344 405.477 183.121 404.038C184.899 402.599 186.958 401.344 189.3 400.272C191.642 399.199 194.111 398.155 196.707 397.14L196.707 393.669C196.707 391.694 196.594 390.058 196.368 388.76C196.142 387.462 195.676 386.489 194.971 385.84C194.266 385.191 193.208 384.866 191.797 384.866C190.556 384.866 189.554 385.148 188.792 385.713C188.031 386.277 187.48 387.081 187.142 388.125C186.803 389.169 186.634 390.396 186.634 391.807L186.634 394.262L177.662 393.923C177.774 388.506 179.016 384.514 181.386 381.946C183.756 379.379 187.424 378.095 192.39 378.095C197.242 378.095 200.685 379.421 202.716 382.073C204.748 384.725 205.764 388.562 205.764 393.585L205.764 415.931C205.764 417.454 205.806 418.921 205.891 420.332C205.975 421.743 206.088 423.055 206.229 424.268C206.37 425.481 206.497 426.624 206.61 427.696L198.315 427.696C198.146 426.793 197.934 425.651 197.68 424.268C197.426 422.886 197.242 421.63 197.13 420.502C196.565 422.42 195.479 424.212 193.871 425.876C192.263 427.541 190.048 428.373 187.226 428.373ZM190.782 420.586C191.685 420.586 192.531 420.332 193.321 419.824C194.111 419.317 194.817 418.738 195.437 418.089C196.057 417.44 196.481 416.918 196.707 416.523L196.707 402.642C195.296 403.432 193.97 404.222 192.728 405.012C191.487 405.802 190.401 406.634 189.47 407.509C188.538 408.383 187.805 409.371 187.269 410.471C186.733 411.572 186.465 412.827 186.465 414.238C186.465 416.213 186.831 417.765 187.565 418.893C188.299 420.022 189.37 420.586 190.782 420.586ZM250.794 428.458C246.844 428.458 243.557 427.612 240.933 425.919C238.309 424.226 236.32 421.884 234.966 418.893C233.612 415.903 232.822 412.432 232.596 408.482L241.06 406.197C241.23 408.623 241.61 410.965 242.203 413.222C242.795 415.479 243.769 417.327 245.123 418.766C246.477 420.205 248.368 420.925 250.794 420.925C253.277 420.925 255.154 420.233 256.423 418.851C257.693 417.468 258.328 415.479 258.328 412.884C258.328 409.78 257.623 407.283 256.212 405.393C254.801 403.502 253.023 401.598 250.879 399.679L239.367 389.522C237.11 387.547 235.446 385.388 234.373 383.046C233.301 380.705 232.765 377.813 232.765 374.37C232.765 369.348 234.204 365.454 237.082 362.689C239.96 359.924 243.881 358.542 248.848 358.542C251.556 358.542 253.941 358.895 256 359.6C258.059 360.305 259.781 361.392 261.163 362.859C262.546 364.326 263.646 366.174 264.464 368.403C265.283 370.632 265.833 373.242 266.115 376.233L257.989 378.433C257.82 376.176 257.481 374.102 256.973 372.212C256.466 370.322 255.577 368.798 254.307 367.641C253.037 366.484 251.218 365.906 248.848 365.906C246.477 365.906 244.63 366.541 243.303 367.81C241.977 369.08 241.314 370.956 241.314 373.439C241.314 375.527 241.667 377.248 242.372 378.603C243.077 379.957 244.22 381.339 245.8 382.75L257.397 392.907C259.993 395.165 262.278 397.859 264.253 400.991C266.228 404.123 267.215 407.833 267.215 412.122C267.215 415.508 266.51 418.428 265.099 420.882C263.688 423.337 261.756 425.213 259.301 426.511C256.846 427.809 254.011 428.458 250.794 428.458ZM286.937 428.373C284.398 428.373 282.352 427.894 280.801 426.935C279.249 425.975 278.12 424.621 277.415 422.872C276.71 421.122 276.357 419.063 276.357 416.693L276.357 384.782L271.194 384.782L271.194 378.772L276.357 378.772L276.357 364.467L285.414 364.467L285.414 378.772L293.286 378.772L293.286 384.782L285.414 384.782L285.414 416.1C285.414 418.019 285.725 419.387 286.345 420.205C286.965 421.024 288.15 421.433 289.9 421.433C290.351 421.433 290.873 421.404 291.466 421.348C292.058 421.292 292.637 421.235 293.201 421.179L293.201 427.866C292.073 428.035 291.028 428.162 290.069 428.247C289.11 428.331 288.066 428.373 286.937 428.373ZM307.337 428.373C305.418 428.373 303.725 427.823 302.258 426.723C300.791 425.623 299.634 424.212 298.788 422.491C297.941 420.77 297.518 418.95 297.518 417.031C297.518 413.984 298.026 411.416 299.042 409.328C300.057 407.241 301.454 405.477 303.232 404.038C305.009 402.599 307.068 401.344 309.411 400.272C311.753 399.199 314.221 398.155 316.817 397.14L316.817 393.669C316.817 391.694 316.704 390.058 316.478 388.76C316.252 387.462 315.787 386.489 315.082 385.84C314.377 385.191 313.319 384.866 311.908 384.866C310.666 384.866 309.665 385.148 308.903 385.713C308.141 386.277 307.591 387.081 307.252 388.125C306.914 389.169 306.744 390.396 306.744 391.807L306.744 394.262L297.772 393.923C297.885 388.506 299.126 384.514 301.496 381.946C303.866 379.379 307.534 378.095 312.5 378.095C317.353 378.095 320.795 379.421 322.827 382.073C324.858 384.725 325.874 388.562 325.874 393.585L325.874 415.931C325.874 417.454 325.916 418.921 326.001 420.332C326.086 421.743 326.198 423.055 326.339 424.268C326.481 425.481 326.608 426.624 326.72 427.696L318.425 427.696C318.256 426.793 318.044 425.651 317.79 424.268C317.536 422.886 317.353 421.63 317.24 420.502C316.676 422.42 315.59 424.212 313.981 425.876C312.373 427.541 310.158 428.373 307.337 428.373ZM310.892 420.586C311.795 420.586 312.641 420.332 313.431 419.824C314.221 419.317 314.927 418.738 315.547 418.089C316.168 417.44 316.591 416.918 316.817 416.523L316.817 402.642C315.406 403.432 314.08 404.222 312.839 405.012C311.597 405.802 310.511 406.634 309.58 407.509C308.649 408.383 307.915 409.371 307.379 410.471C306.843 411.572 306.575 412.827 306.575 414.238C306.575 416.213 306.941 417.765 307.675 418.893C308.409 420.022 309.481 420.586 310.892 420.586ZM335.439 427.696L335.439 359.134L344.496 359.134L344.496 427.696L335.439 427.696ZM354.145 427.612L354.145 359.05L363.202 359.05L363.202 399.933L376.407 378.772L385.887 378.772L374.375 397.902L385.548 427.696L376.491 427.696L367.35 402.642L363.202 408.905L363.202 427.612L354.145 427.612ZM403.323 428.373C399.487 428.373 396.524 427.626 394.436 426.13C392.348 424.635 390.895 422.434 390.077 419.528C389.258 416.622 388.849 413.053 388.849 408.821L388.849 397.648C388.849 393.303 389.273 389.691 390.119 386.813C390.965 383.935 392.447 381.763 394.563 380.295C396.679 378.828 399.599 378.095 403.323 378.095C407.443 378.095 410.476 378.941 412.423 380.634C414.37 382.327 415.654 384.767 416.274 387.956C416.895 391.144 417.205 394.967 417.205 399.425L417.205 403.403L397.906 403.403L397.906 413.222C397.906 415.197 398.09 416.805 398.456 418.047C398.823 419.288 399.415 420.205 400.234 420.798C401.052 421.39 402.111 421.687 403.408 421.687C404.762 421.687 405.793 421.362 406.498 420.713C407.203 420.064 407.683 419.133 407.937 417.92C408.191 416.707 408.317 415.282 408.317 413.645L408.317 410.683L417.121 410.683L417.121 412.545C417.121 417.454 416.077 421.32 413.989 424.141C411.9 426.963 408.345 428.373 403.323 428.373ZM397.906 398.494L408.317 398.494L408.317 394.093C408.317 392.061 408.205 390.354 407.979 388.972C407.753 387.589 407.287 386.545 406.582 385.84C405.877 385.134 404.762 384.782 403.239 384.782C401.772 384.782 400.657 385.12 399.895 385.797C399.134 386.475 398.611 387.617 398.329 389.225C398.048 390.834 397.906 393.049 397.906 395.87L397.906 398.494ZM425.67 427.696L425.67 378.772L434.727 378.772L434.727 385.713C436.532 382.722 438.338 380.719 440.144 379.703C441.949 378.687 443.756 378.179 445.561 378.179C445.787 378.179 445.999 378.179 446.196 378.179C446.393 378.179 446.661 378.208 447 378.264L447 388.252C446.323 387.97 445.547 387.73 444.672 387.533C443.798 387.335 442.909 387.236 442.006 387.236C440.595 387.236 439.312 387.561 438.155 388.21C436.998 388.859 435.855 390.114 434.727 391.976L434.727 427.696L425.67 427.696Z"/>
</svg>
