<?xml version="1.0" encoding="utf-8" ?>
<svg xmlns="http://www.w3.org/2000/svg" xmlns:xlink="http://www.w3.org/1999/xlink" width="512" height="512">
	<path fill="#E1BB80" d="M0 0L0 512L512 512L512 0L0 0Z"/>
	<path fill="#352208" d="M261.67 434.286L240.244 434.009C241.089 430.799 240.658 426.633 240.664 423.322L240.744 402.953L225.44 402.861L225.315 432.177C217.588 430.785 209.984 429.173 202.442 426.964L193.266 423.904L193.342 396.859C191.557 396.57 189.413 396.775 187.587 396.771L176.339 396.798L176.415 420.09C175.532 419.58 174.526 419.509 173.578 419.153L152.003 408.897C148.961 407.393 145.671 406.123 142.752 404.413L142.857 349.528C142.857 347.5 143.202 334.231 142.815 333.427C142.522 332.82 141.621 332.222 141.152 331.706L129.343 315.903C94.1524 262.819 95.8307 191.329 132.682 139.619C158.726 103.073 203.121 77.3989 248.201 75.7715L260.437 75.7125C271.118 75.7568 282.074 77.4671 292.415 80.0943C321.849 87.5718 347.584 103.766 368.063 125.924C417.674 179.603 421.449 264.125 378.119 322.544L373.714 328.466C372.682 329.844 371.646 331.328 370.371 332.488L369.827 332.996C368.306 334.594 369.235 339.72 369.238 341.83L369.328 404.936C368.611 405.785 367.656 405.871 366.67 406.28L344.433 416.449L335.68 419.549L335.875 396.889L318.409 396.75L318.431 424.492C316.94 425.5 298.906 429.805 296.666 430.265C293.581 430.9 290.366 431.134 287.319 431.841L287.28 406.673C287.283 405.505 287.381 404.239 287.23 403.085L271.956 403.061C271.601 406.35 271.886 409.979 271.885 413.303L271.88 434.01C268.644 434.517 264.974 434.231 261.67 434.286ZM248.642 110.433C182.17 115.292 133.698 174.538 138.713 239.923L140.522 253.14C144.322 275.467 155.551 296.289 170.504 313.111C171.684 314.44 177.177 319.817 177.208 321.139L176.807 361.177L193.6 361.203L193.771 354.844C193.78 353.825 193.619 352.528 193.908 351.562L224.988 351.591L224.704 368.47L237.33 368.496C238.548 368.491 240.64 368.751 241.711 368.356L241.841 351.513L263.269 351.586L270.601 351.737C270.925 356.31 270.099 364.624 270.844 368.458L287.233 368.554L287.361 351.499L318.443 351.499L318.43 361.371L329.953 361.225C331.597 361.219 333.447 361.385 335.052 361.11L335.26 323.58C335.342 319.946 336.037 319.543 338.464 316.797L343.069 311.445C363.143 286.935 373.533 261.412 373.512 229.885C373.481 183.558 346.718 140.313 304.211 121.059C291.749 115.415 278.41 111.39 264.694 110.561L248.642 110.433Z"/>
	<path fill="#352208" d="M259.392 323.045L225.202 323.027C216.683 322.957 207.884 318.082 206.678 309.019C205.199 297.901 210.483 295.163 197.449 290.983C190.55 288.771 183.672 286.632 178.266 281.532C162.714 266.862 156.37 237.717 157.774 216.552C159.255 194.251 169.471 171.222 185.147 155.102C201.953 137.821 228.968 125.8 253.392 125.486L262.17 125.549C314.625 128.574 356.312 173.917 354.499 226.418C354.201 235.049 352.679 242.811 350.225 251.089C344.61 270.032 336.377 284.481 316.849 290.441C314.171 291.258 306.255 292.931 305.751 296.524L305.72 296.805C305.067 301.753 305.79 307.163 303.801 311.835C300.787 318.914 293.93 322.945 286.45 323.029L259.392 323.045ZM212.128 195.608C205.659 195.926 200.151 198.516 195.758 203.311C181.902 218.439 194.82 245.072 215.042 244.002C221.718 243.201 227.331 239.882 231.493 234.582C244.058 218.58 232.705 195.615 212.128 195.608ZM298.467 195.606C291.823 196.006 286.345 198.468 281.901 203.508C267.997 219.277 278.743 243.372 299.343 243.852C320.079 243.223 329.828 215.831 314.426 201.779C310.038 197.776 304.458 195.357 298.467 195.606ZM253.304 264.387C234.954 268.423 235.047 293.775 252.802 293.983L258.762 293.988C262.105 294.214 264.873 293.134 267.39 290.953C278.131 281.644 269.13 264.701 256.278 264.28L253.304 264.387Z"/>
</svg>
