<?xml version="1.0" encoding="utf-8" ?>
<svg xmlns="http://www.w3.org/2000/svg" xmlns:xlink="http://www.w3.org/1999/xlink" width="511" height="511">
	<path d="M279.811 389.808C259.016 405.338 244.168 400.502 225.421 383.685L97.2141 269.666C89.1472 262.551 78.8552 254.373 76.7927 243.208L76.7118 242.75C76.2673 240.305 76.4104 237.779 76.4258 235.303L76.5106 115.9C76.5186 112.857 76.2513 109.474 76.9493 106.499L78.3107 101.49C80.7251 94.4407 86.4894 88.4902 93.137 85.2729C103.177 80.4138 112.076 83.4982 121.988 86.8842C124.284 84.8126 126.174 82.0817 128.065 79.6448L171.205 23.6193C173.166 23.3434 175.3 23.49 177.284 23.4855L223.883 23.473L348.354 23.5466C350.288 26.3405 351.871 29.0055 354 31.8699L382.249 70.625C383.331 72.1211 393.012 86.0305 393.285 86.1479C393.285 86.1481 394.039 85.834 394.107 85.8065C400.873 83.0807 408.448 82.023 415.546 84.0427C437.853 90.3899 437.125 108.78 437.145 127.534L437.165 232.25C437.161 235.641 437.571 240.022 436.591 243.271C432.95 255.35 425.628 260.298 416.926 268.4L294.92 376.538C289.968 381.075 285.089 385.645 279.811 389.808ZM194.738 70.0047L166.893 105.306L255.048 137.837C256.713 138.185 268.648 133.196 271.262 132.222L303.117 120.412L347.435 104.175C348.349 103.886 341.564 95.6274 340.261 93.875L323.454 71.4389C322.482 70.1975 322.565 70.1594 320.934 70.0441L194.738 70.0047ZM123.252 138.657L123.269 231.044C125.561 232.547 127.558 233.355 129.81 235.231L231.048 325.181L255.657 347.853L353.336 261.488L382.958 235.613C391.656 228.148 389.888 232.267 389.915 219.672L389.659 138.803C388.168 139.908 384.721 140.524 382.884 141.214L294.869 173.861L263.608 185.48C260.743 186.443 257.881 187.67 254.973 188.449L123.252 138.657Z"/>
	<path d="M282.868 254.201L279.588 254.897C281.364 252.487 282.206 249.452 283.491 246.75L294.512 223.359C300.106 211.361 306.829 199.561 311.487 187.176L366.671 186.432L370.519 186.054C370.504 187.698 366.664 193.43 365.607 195.23L335.476 245.393C335.312 245.651 318.855 247.565 316.18 247.96L282.868 254.201Z"/>
	<path d="M231.557 253.51L176.454 245.647L143.139 186.28L179.896 186.447C186.864 186.461 194.22 185.999 201.132 186.935L231.557 253.51Z"/>
	<path d="M487.262 279.111L487.298 292.199C487.312 296.521 488.054 295.271 484.825 297.788C483.026 299.19 481.296 300.753 479.621 302.3L356.875 410.372L301.636 459.67C294.436 466.022 287.829 473.139 279.937 478.675C266.309 488.236 247.514 488.289 233.601 479.195C230.27 477.017 227.24 474.339 224.233 471.742L24.7857 294.73L24.8385 229.418L256.199 437.732L487.229 230.307L487.262 279.111Z"/>
</svg>
